<?xml version="1.0" standalone="no"?>
<!DOCTYPE svg PUBLIC "-//W3C//DTD SVG 20010904//EN"
 "http://www.w3.org/TR/2001/REC-SVG-20010904/DTD/svg10.dtd">
<svg version="1.0" xmlns="http://www.w3.org/2000/svg"
 width="848.000000pt" height="848.000000pt" viewBox="0 0 848.000000 848.000000"
 preserveAspectRatio="xMidYMid meet">
<metadata>
Created by potrace 1.16, written by Peter Selinger 2001-2019
</metadata>
<g transform="translate(0.000000,848.000000) scale(0.100000,-0.100000)"
fill="#000000" stroke="none">
<path d="M4449 3642 c-65 -46 -81 -73 -73 -128 4 -26 2 -44 -5 -48 -14 -9 -15
-73 -1 -81 6 -3 10 -17 10 -29 0 -13 7 -29 15 -36 19 -16 19 -29 -1 -51 -21
-24 -10 -74 23 -105 29 -27 42 -98 24 -131 -8 -17 -6 -24 10 -39 17 -15 20
-26 15 -56 -3 -20 -2 -39 2 -42 5 -3 4 -37 -1 -77 l-10 -72 31 -26 c37 -30 39
-37 15 -64 -13 -15 -15 -21 -5 -24 6 -3 12 -13 12 -23 0 -10 7 -21 16 -24 15
-6 15 -8 -2 -27 -19 -21 -18 -21 10 -44 26 -21 28 -27 22 -63 -3 -24 -2 -43 4
-47 6 -3 7 -17 4 -30 -3 -12 -1 -26 4 -29 6 -3 8 -15 5 -25 -3 -10 0 -22 7
-26 8 -5 8 -10 0 -20 -9 -10 -6 -16 9 -25 25 -13 27 -35 6 -47 -11 -7 -7 -13
20 -27 43 -23 43 -31 5 -51 -37 -19 -38 -30 -5 -51 33 -21 32 -32 -6 -63 l-31
-26 46 -34 c45 -34 56 -54 36 -66 -11 -7 -3 -88 13 -127 9 -22 16 -26 38 -21
35 7 46 -13 21 -40 -38 -43 -45 -67 -26 -88 16 -18 16 -20 -1 -39 -16 -18 -16
-20 -1 -26 9 -3 16 -17 16 -30 0 -14 7 -27 15 -30 20 -8 19 -31 -1 -42 -15 -8
-15 -10 0 -15 13 -5 14 -11 4 -32 -10 -22 -8 -29 11 -49 15 -16 21 -31 17 -44
-4 -11 -2 -23 4 -27 8 -5 5 -14 -9 -26 -29 -28 -26 -43 14 -65 13 -8 19 -20
17 -35 -8 -55 -4 -76 22 -113 29 -44 33 -74 11 -83 -13 -5 -12 -8 5 -20 19
-13 20 -21 14 -69 -8 -70 -1 -95 36 -122 28 -21 34 -22 68 -11 20 7 45 12 54
10 10 -1 28 3 40 10 13 7 39 15 58 18 31 6 35 10 38 39 3 34 21 42 42 17 26
-32 181 -9 272 41 14 8 34 14 44 14 10 0 35 12 55 26 20 14 79 41 130 60 52
19 147 60 212 92 l118 57 -5 32 c-3 24 -1 33 9 33 8 0 16 4 20 9 7 13 -53 81
-71 81 -7 0 -16 10 -18 23 -3 12 -7 34 -10 49 -4 15 -14 29 -24 32 -9 3 -23
25 -30 48 -7 23 -22 48 -33 56 -11 8 -18 20 -15 27 3 8 -4 25 -15 38 -10 14
-19 32 -19 40 0 33 -13 47 -41 47 -31 0 -41 26 -14 36 24 10 17 23 -21 39 -29
12 -35 19 -31 36 4 15 0 23 -14 26 -12 4 -22 17 -26 35 -3 16 -14 33 -24 39
-11 5 -19 18 -19 28 0 10 -7 24 -15 31 -8 7 -15 19 -15 26 0 8 -9 23 -20 34
-11 11 -20 33 -20 49 0 15 -11 45 -25 65 -14 20 -25 41 -25 47 0 5 -11 15 -25
21 -14 6 -28 23 -32 37 -3 14 -16 37 -29 51 -16 17 -20 30 -14 39 5 9 1 34
-11 68 -19 50 -19 73 2 73 5 0 9 -7 9 -15 0 -8 6 -15 14 -15 21 0 29 17 12 27
-7 4 -26 26 -41 48 -32 49 -60 65 -100 59 l-30 -5 23 17 c31 23 28 35 -8 28
-37 -8 -73 14 -96 57 -15 31 -15 32 17 65 36 38 36 39 -38 126 -60 71 -67 81
-92 123 -42 69 -92 125 -112 125 -15 0 -19 7 -19 35 0 37 -8 47 -85 108 -38
31 -44 51 -20 61 14 5 14 9 0 35 -32 63 -78 123 -101 132 -21 7 -23 11 -12 28
10 17 8 26 -20 65 -18 24 -32 49 -32 55 0 6 -13 17 -30 26 -21 11 -30 23 -30
40 0 17 -4 23 -15 19 -8 -4 -17 1 -21 10 -10 26 -47 18 -105 -22z"/>
</g>
</svg>
