<?xml version="1.0" standalone="no"?>
<!DOCTYPE svg PUBLIC "-//W3C//DTD SVG 20010904//EN"
 "http://www.w3.org/TR/2001/REC-SVG-20010904/DTD/svg10.dtd">
<svg version="1.0" xmlns="http://www.w3.org/2000/svg"
 width="848.000000pt" height="848.000000pt" viewBox="0 0 848.000000 848.000000"
 preserveAspectRatio="xMidYMid meet">
<metadata>
Created by potrace 1.16, written by Peter Selinger 2001-2019
</metadata>
<g transform="translate(0.000000,848.000000) scale(0.100000,-0.100000)"
fill="#000000" stroke="none">
<path d="M4598 3888 c-41 -31 -48 -109 -18 -195 13 -38 16 -59 9 -63 -6 -4 -4
-11 5 -20 9 -7 13 -17 10 -22 -3 -5 14 -28 39 -51 46 -43 77 -93 77 -123 0 -9
11 -25 24 -35 34 -26 67 -98 56 -119 -13 -25 9 -60 62 -100 44 -32 46 -36 32
-52 -15 -15 -14 -19 10 -42 14 -14 22 -26 18 -26 -4 -1 10 -10 31 -21 38 -20
44 -36 27 -70 -9 -16 -6 -25 19 -49 16 -17 35 -30 43 -30 7 0 24 -17 38 -38
33 -49 34 -52 17 -52 -8 0 -20 -7 -27 -15 -10 -12 -7 -19 16 -40 16 -15 41
-29 57 -32 25 -5 26 -7 12 -23 -22 -24 -20 -32 26 -107 55 -91 88 -126 106
-112 10 9 15 5 23 -16 5 -14 10 -32 10 -40 0 -7 16 -36 35 -65 19 -29 38 -64
41 -79 3 -14 10 -33 15 -41 5 -8 16 -29 24 -46 7 -17 21 -36 29 -44 9 -7 16
-19 16 -26 0 -8 5 -14 10 -14 6 0 10 -11 10 -23 0 -13 9 -32 20 -42 11 -10 17
-22 14 -26 -3 -5 2 -12 10 -15 9 -3 16 -13 16 -20 0 -8 7 -17 15 -20 8 -4 15
-15 15 -26 0 -10 13 -30 29 -44 16 -13 32 -38 36 -54 4 -16 26 -52 51 -79 28
-32 44 -58 44 -75 0 -15 7 -29 15 -32 10 -4 13 -13 9 -26 -4 -13 5 -31 31 -59
22 -25 34 -47 31 -56 -4 -9 1 -17 14 -20 14 -4 20 -14 20 -32 0 -32 31 -101
53 -120 10 -7 17 -21 17 -30 0 -22 19 -41 42 -41 12 0 18 -8 18 -23 0 -14 12
-32 30 -46 l31 -22 62 31 c34 18 71 40 83 51 11 10 25 19 30 19 5 0 26 11 46
25 30 20 38 33 43 68 9 57 21 78 35 57 5 -8 10 -25 10 -37 0 -13 5 -23 11 -23
15 0 394 326 449 387 71 78 142 166 153 190 8 19 6 27 -15 46 -19 18 -23 28
-17 45 6 16 5 20 -7 15 -9 -3 -25 -1 -37 5 -12 7 -35 16 -50 22 -16 5 -25 14
-22 20 3 5 -2 10 -12 10 -10 0 -26 14 -35 31 -15 25 -21 28 -37 19 -32 -17
-68 5 -146 85 -71 74 -81 89 -105 153 -8 20 -19 32 -31 32 -12 0 -24 13 -33
35 -8 19 -26 39 -39 44 -13 5 -36 20 -53 34 -38 32 -100 67 -120 67 -8 0 -19
12 -24 26 -6 14 -14 22 -20 19 -5 -3 -15 5 -21 19 -7 14 -21 26 -33 28 -11 2
-22 12 -24 23 -7 33 -22 45 -59 45 -37 0 -38 4 -18 52 6 15 2 16 -28 11 -45
-7 -75 10 -93 53 -8 19 -21 34 -30 34 -23 0 -70 35 -150 112 -40 37 -77 68
-83 68 -6 0 -16 11 -21 25 -6 15 -17 25 -29 25 -11 0 -24 7 -29 16 -5 8 -20
21 -33 27 -17 9 -25 22 -27 45 -3 26 -14 40 -55 71 -29 22 -77 50 -108 64 -63
28 -123 77 -145 118 -9 18 -19 26 -29 23 -11 -5 -13 -2 -9 10 7 17 -11 22 -21
6 -7 -12 -75 -13 -93 -2 -9 6 0 14 28 25 46 18 53 35 14 35 -32 0 -74 40 -88
84 -8 24 -19 35 -44 42 -20 5 -31 14 -28 22 7 17 -30 48 -49 41 -8 -4 -15 -13
-15 -22 0 -29 -19 -15 -26 20 -4 24 -1 42 9 59 15 22 15 23 -9 18 -20 -3 -33
4 -59 32 -30 34 -38 37 -82 34 -26 -1 -55 1 -63 5 -9 4 -23 2 -32 -5z"/>
</g>
</svg>
