<?xml version="1.0" standalone="no"?>
<!DOCTYPE svg PUBLIC "-//W3C//DTD SVG 20010904//EN"
 "http://www.w3.org/TR/2001/REC-SVG-20010904/DTD/svg10.dtd">
<svg version="1.0" xmlns="http://www.w3.org/2000/svg"
 width="848.000000pt" height="848.000000pt" viewBox="0 0 848.000000 848.000000"
 preserveAspectRatio="xMidYMid meet">
<metadata>
Created by potrace 1.16, written by Peter Selinger 2001-2019
</metadata>
<g transform="translate(0.000000,848.000000) scale(0.100000,-0.100000)"
fill="#000000" stroke="none">
<path d="M3914 6193 c3 -16 40 -228 81 -473 118 -691 176 -1022 182 -1036 6
-17 11 -17 69 -2 55 15 69 33 83 112 13 70 13 322 1 451 -5 50 -13 171 -19
270 -5 99 -14 193 -20 208 -20 51 -16 97 35 396 l5 34 -102 -8 c-56 -4 -122
-13 -146 -20 -42 -13 -44 -13 -60 12 -18 27 -89 83 -105 83 -5 0 -7 -12 -4
-27z"/>
</g>
</svg>
