<?xml version="1.0" standalone="no"?>
<!DOCTYPE svg PUBLIC "-//W3C//DTD SVG 20010904//EN"
 "http://www.w3.org/TR/2001/REC-SVG-20010904/DTD/svg10.dtd">
<svg version="1.0" xmlns="http://www.w3.org/2000/svg"
 width="848.000000pt" height="848.000000pt" viewBox="0 0 848.000000 848.000000"
 preserveAspectRatio="xMidYMid meet">
<metadata>
Created by potrace 1.16, written by Peter Selinger 2001-2019
</metadata>
<g transform="translate(0.000000,848.000000) scale(0.100000,-0.100000)"
fill="#000000" stroke="none">
<path d="M826 5438 c-13 -21 -57 -151 -69 -205 -6 -27 6 -38 59 -52 23 -6 58
-25 79 -41 21 -17 48 -33 61 -36 31 -8 163 13 262 42 45 13 90 24 100 24 22 0
149 -74 184 -107 25 -24 32 -26 95 -20 72 6 194 45 200 63 2 6 -18 20 -44 32
-68 29 -506 181 -578 201 -33 9 -72 24 -86 34 -14 9 -65 25 -112 36 -48 10
-95 25 -105 34 -24 22 -29 21 -46 -5z"/>
</g>
</svg>
