<?xml version="1.0" standalone="no"?>
<!DOCTYPE svg PUBLIC "-//W3C//DTD SVG 20010904//EN"
 "http://www.w3.org/TR/2001/REC-SVG-20010904/DTD/svg10.dtd">
<svg version="1.0" xmlns="http://www.w3.org/2000/svg"
 width="848.000000pt" height="848.000000pt" viewBox="0 0 848.000000 848.000000"
 preserveAspectRatio="xMidYMid meet">
<metadata>
Created by potrace 1.16, written by Peter Selinger 2001-2019
</metadata>
<g transform="translate(0.000000,848.000000) scale(0.100000,-0.100000)"
fill="#000000" stroke="none">
<path d="M3515 7793 c-119 -25 -326 -81 -417 -112 -241 -81 -585 -241 -614
-286 -15 -24 -15 -29 1 -73 31 -81 49 -100 123 -122 77 -23 213 -40 320 -40
72 0 75 1 120 41 77 67 119 86 242 109 63 12 171 43 239 68 l124 45 -6 57 c-4
31 -12 70 -18 86 -7 16 -13 45 -14 64 -1 19 -5 65 -10 103 l-7 67 -32 -1 c-17
-1 -40 -3 -51 -6z"/>
</g>
</svg>
