<?xml version="1.0" standalone="no"?>
<!DOCTYPE svg PUBLIC "-//W3C//DTD SVG 20010904//EN"
 "http://www.w3.org/TR/2001/REC-SVG-20010904/DTD/svg10.dtd">
<svg version="1.0" xmlns="http://www.w3.org/2000/svg"
 width="848.000000pt" height="848.000000pt" viewBox="0 0 848.000000 848.000000"
 preserveAspectRatio="xMidYMid meet">
<metadata>
Created by potrace 1.16, written by Peter Selinger 2001-2019
</metadata>
<g transform="translate(0.000000,848.000000) scale(0.100000,-0.100000)"
fill="#000000" stroke="none">
<path d="M4817 2312 c-31 -44 -83 -104 -117 -133 -66 -59 -72 -78 -45 -154 8
-22 15 -59 15 -83 0 -47 25 -168 40 -191 7 -13 23 -9 99 22 50 20 123 42 163
47 39 6 77 15 84 21 7 5 24 35 38 66 31 64 34 55 -66 182 -68 85 -99 143 -123
226 -10 33 -21 64 -25 68 -4 5 -32 -27 -63 -71z"/>
</g>
</svg>
