<?xml version="1.0" standalone="no"?>
<!DOCTYPE svg PUBLIC "-//W3C//DTD SVG 20010904//EN"
 "http://www.w3.org/TR/2001/REC-SVG-20010904/DTD/svg10.dtd">
<svg version="1.0" xmlns="http://www.w3.org/2000/svg"
 width="848.000000pt" height="848.000000pt" viewBox="0 0 848.000000 848.000000"
 preserveAspectRatio="xMidYMid meet">
<metadata>
Created by potrace 1.16, written by Peter Selinger 2001-2019
</metadata>
<g transform="translate(0.000000,848.000000) scale(0.100000,-0.100000)"
fill="#000000" stroke="none">
<path d="M3198 2383 c-99 -162 -328 -549 -411 -694 l-27 -47 23 -6 c12 -3 55
-6 95 -6 l73 0 72 67 c98 91 115 117 136 207 14 57 31 95 64 144 61 89 81 166
75 290 l-5 93 37 29 38 30 -21 40 c-12 22 -25 40 -28 40 -4 0 -58 -84 -121
-187z"/>
</g>
</svg>
