<?xml version="1.0" standalone="no"?>
<!DOCTYPE svg PUBLIC "-//W3C//DTD SVG 20010904//EN"
 "http://www.w3.org/TR/2001/REC-SVG-20010904/DTD/svg10.dtd">
<svg version="1.0" xmlns="http://www.w3.org/2000/svg"
 width="848.000000pt" height="848.000000pt" viewBox="0 0 848.000000 848.000000"
 preserveAspectRatio="xMidYMid meet">
<metadata>
Created by potrace 1.16, written by Peter Selinger 2001-2019
</metadata>
<g transform="translate(0.000000,848.000000) scale(0.100000,-0.100000)"
fill="#000000" stroke="none">
<path d="M4926 3498 c-2 -18 -14 -95 -26 -171 l-21 -137 21 -48 c34 -78 112
-200 131 -205 9 -3 30 -24 45 -48 100 -155 308 -405 461 -555 86 -85 120 -110
205 -155 152 -80 266 -192 282 -278 7 -39 31 -81 46 -81 6 0 10 12 11 28 0 18
9 3 28 -51 16 -43 36 -84 46 -91 22 -16 120 -4 144 18 23 21 28 20 34 -6 6
-22 7 -22 37 7 59 57 101 166 79 207 -9 16 -7 24 10 39 15 14 19 27 14 53 -5
31 -3 33 18 29 18 -3 41 10 96 58 39 35 69 67 67 71 -3 4 -19 8 -37 8 -28 0
-29 1 -12 13 17 13 15 16 -21 43 -21 16 -57 47 -79 69 -43 43 -177 159 -735
636 -484 414 -547 466 -591 486 -21 10 -39 23 -39 29 0 7 -33 16 -76 23 -41 6
-88 18 -104 26 -29 15 -29 15 -34 -17z"/>
</g>
</svg>
