<?xml version="1.0" standalone="no"?>
<!DOCTYPE svg PUBLIC "-//W3C//DTD SVG 20010904//EN"
 "http://www.w3.org/TR/2001/REC-SVG-20010904/DTD/svg10.dtd">
<svg version="1.0" xmlns="http://www.w3.org/2000/svg"
 width="848.000000pt" height="848.000000pt" viewBox="0 0 848.000000 848.000000"
 preserveAspectRatio="xMidYMid meet">
<metadata>
Created by potrace 1.16, written by Peter Selinger 2001-2019
</metadata>
<g transform="translate(0.000000,848.000000) scale(0.100000,-0.100000)"
fill="#000000" stroke="none">
<path d="M2345 3531 c-156 -56 -441 -164 -567 -214 -29 -12 -37 -27 -15 -27 8
0 38 -17 68 -38 30 -21 95 -52 144 -69 50 -17 121 -43 158 -57 89 -34 122 -34
144 2 68 109 113 170 192 257 l91 100 -2 54 c-2 30 -7 56 -13 57 -5 2 -95 -28
-200 -65z"/>
</g>
</svg>
