<?xml version="1.0" standalone="no"?>
<!DOCTYPE svg PUBLIC "-//W3C//DTD SVG 20010904//EN"
 "http://www.w3.org/TR/2001/REC-SVG-20010904/DTD/svg10.dtd">
<svg version="1.0" xmlns="http://www.w3.org/2000/svg"
 width="848.000000pt" height="848.000000pt" viewBox="0 0 848.000000 848.000000"
 preserveAspectRatio="xMidYMid meet">
<metadata>
Created by potrace 1.16, written by Peter Selinger 2001-2019
</metadata>
<g transform="translate(0.000000,848.000000) scale(0.100000,-0.100000)"
fill="#000000" stroke="none">
<path d="M4845 7500 c-9 -15 -64 -326 -175 -995 -55 -330 -135 -798 -179
-1040 -124 -686 -138 -782 -120 -814 29 -52 51 -40 116 61 88 138 849 1443
908 1557 22 44 12 51 -87 51 l-77 0 -24 53 c-28 61 -56 92 -154 171 -55 44
-75 67 -83 94 -19 70 -13 90 51 174 60 81 120 189 133 241 3 15 -3 80 -14 145
-25 146 -48 183 -132 216 -31 13 -79 40 -106 60 -30 21 -53 32 -57 26z"/>
</g>
</svg>
