<?xml version="1.0" standalone="no"?>
<!DOCTYPE svg PUBLIC "-//W3C//DTD SVG 20010904//EN"
 "http://www.w3.org/TR/2001/REC-SVG-20010904/DTD/svg10.dtd">
<svg version="1.0" xmlns="http://www.w3.org/2000/svg"
 width="848.000000pt" height="848.000000pt" viewBox="0 0 848.000000 848.000000"
 preserveAspectRatio="xMidYMid meet">
<metadata>
Created by potrace 1.16, written by Peter Selinger 2001-2019
</metadata>
<g transform="translate(0.000000,848.000000) scale(0.100000,-0.100000)"
fill="#000000" stroke="none">
<path d="M3223 7276 c-60 -12 -81 -24 -171 -100 l-44 -36 -96 1 c-54 0 -143 6
-199 12 -72 9 -103 9 -103 2 0 -11 138 -259 246 -443 35 -61 65 -102 75 -102
9 0 79 64 155 143 126 128 145 153 197 252 54 102 65 135 81 248 l5 37 -42 -1
c-23 -1 -70 -6 -104 -13z"/>
</g>
</svg>
