<?xml version="1.0" standalone="no"?>
<!DOCTYPE svg PUBLIC "-//W3C//DTD SVG 20010904//EN"
 "http://www.w3.org/TR/2001/REC-SVG-20010904/DTD/svg10.dtd">
<svg version="1.0" xmlns="http://www.w3.org/2000/svg"
 width="848.000000pt" height="848.000000pt" viewBox="0 0 848.000000 848.000000"
 preserveAspectRatio="xMidYMid meet">
<metadata>
Created by potrace 1.16, written by Peter Selinger 2001-2019
</metadata>
<g transform="translate(0.000000,848.000000) scale(0.100000,-0.100000)"
fill="#000000" stroke="none">
<path d="M2468 7121 c-30 -33 -78 -79 -108 -102 -161 -124 -183 -162 -320
-543 -25 -70 -62 -147 -87 -185 l-44 -65 43 -38 c52 -47 194 -159 218 -173 9
-6 28 -23 41 -38 13 -16 63 -60 111 -100 48 -40 156 -130 239 -202 219 -187
273 -229 277 -215 2 6 -9 38 -26 69 -35 66 -96 261 -96 306 0 17 7 73 17 125
9 52 18 129 20 170 4 79 39 172 108 283 42 69 54 101 34 93 -13 -5 -14 -2 -5
15 9 17 1 38 -51 132 -100 179 -228 397 -275 464 l-42 63 -54 -59z"/>
</g>
</svg>
