<?xml version="1.0" standalone="no"?>
<!DOCTYPE svg PUBLIC "-//W3C//DTD SVG 20010904//EN"
 "http://www.w3.org/TR/2001/REC-SVG-20010904/DTD/svg10.dtd">
<svg version="1.0" xmlns="http://www.w3.org/2000/svg"
 width="848.000000pt" height="848.000000pt" viewBox="0 0 848.000000 848.000000"
 preserveAspectRatio="xMidYMid meet">
<metadata>
Created by potrace 1.16, written by Peter Selinger 2001-2019
</metadata>
<g transform="translate(0.000000,848.000000) scale(0.100000,-0.100000)"
fill="#000000" stroke="none">
<path d="M5849 6894 c-7 -8 -25 -22 -41 -30 -16 -8 -26 -19 -23 -23 2 -5 -2
-14 -10 -21 -8 -7 -24 -31 -35 -54 -36 -73 -75 -140 -91 -157 -9 -9 -29 -43
-45 -75 -15 -32 -32 -61 -36 -62 -5 -2 -20 -29 -35 -60 -14 -32 -36 -70 -47
-87 -77 -110 -116 -188 -116 -230 0 -24 -5 -56 -12 -70 -17 -37 -4 -41 45 -11
40 23 137 119 137 135 0 3 31 33 70 66 64 55 75 70 134 190 35 72 74 162 86
200 13 39 33 90 45 115 30 62 37 95 29 146 -7 47 -29 59 -55 28z"/>
</g>
</svg>
