<?xml version="1.0" standalone="no"?>
<!DOCTYPE svg PUBLIC "-//W3C//DTD SVG 20010904//EN"
 "http://www.w3.org/TR/2001/REC-SVG-20010904/DTD/svg10.dtd">
<svg version="1.0" xmlns="http://www.w3.org/2000/svg"
 width="848.000000pt" height="848.000000pt" viewBox="0 0 848.000000 848.000000"
 preserveAspectRatio="xMidYMid meet">
<metadata>
Created by potrace 1.16, written by Peter Selinger 2001-2019
</metadata>
<g transform="translate(0.000000,848.000000) scale(0.100000,-0.100000)"
fill="#000000" stroke="none">
<path d="M2295 7297 c-141 -89 -274 -187 -385 -283 -111 -96 -420 -407 -420
-422 0 -25 70 -68 102 -63 4 0 14 -14 22 -33 16 -39 240 -236 267 -236 43 0
88 86 174 325 95 267 116 299 323 484 46 40 92 91 103 113 l20 39 -21 44 c-21
44 -63 95 -77 95 -4 0 -53 -28 -108 -63z"/>
</g>
</svg>
