<?xml version="1.0" standalone="no"?>
<!DOCTYPE svg PUBLIC "-//W3C//DTD SVG 20010904//EN"
 "http://www.w3.org/TR/2001/REC-SVG-20010904/DTD/svg10.dtd">
<svg version="1.0" xmlns="http://www.w3.org/2000/svg"
 width="848.000000pt" height="848.000000pt" viewBox="0 0 848.000000 848.000000"
 preserveAspectRatio="xMidYMid meet">
<metadata>
Created by potrace 1.16, written by Peter Selinger 2001-2019
</metadata>
<g transform="translate(0.000000,848.000000) scale(0.100000,-0.100000)"
fill="#000000" stroke="none">
<path d="M6411 6379 c-118 -21 -111 -15 -205 -154 -30 -44 -57 -97 -60 -117
-5 -27 -18 -47 -48 -73 -79 -67 -192 -139 -255 -162 -77 -28 -140 -59 -353
-176 -91 -50 -199 -102 -240 -117 -65 -23 -80 -33 -111 -74 -51 -67 -121 -202
-119 -229 1 -12 2 -27 1 -33 -1 -6 -40 -55 -87 -110 -47 -54 -94 -111 -104
-125 l-19 -26 32 -30 c57 -53 96 -75 122 -69 37 9 267 197 670 546 99 86 238
203 310 260 260 209 710 596 728 626 4 8 15 14 23 14 31 0 2 19 -59 39 -93 30
-113 31 -226 10z"/>
</g>
</svg>
