<?xml version="1.0" standalone="no"?>
<!DOCTYPE svg PUBLIC "-//W3C//DTD SVG 20010904//EN"
 "http://www.w3.org/TR/2001/REC-SVG-20010904/DTD/svg10.dtd">
<svg version="1.0" xmlns="http://www.w3.org/2000/svg"
 width="848.000000pt" height="848.000000pt" viewBox="0 0 848.000000 848.000000"
 preserveAspectRatio="xMidYMid meet">
<metadata>
Created by potrace 1.16, written by Peter Selinger 2001-2019
</metadata>
<g transform="translate(0.000000,848.000000) scale(0.100000,-0.100000)"
fill="#000000" stroke="none">
<path d="M7522 4185 c-29 -35 -68 -118 -77 -166 -3 -19 -1 -48 5 -64 19 -51
32 -257 20 -330 -6 -36 -38 -138 -71 -227 -33 -88 -62 -179 -65 -202 -6 -41
-5 -42 27 -53 19 -6 74 -25 122 -42 112 -39 143 -40 152 -4 3 14 24 62 45 106
22 43 44 104 50 136 6 31 16 76 22 101 6 25 14 77 19 115 4 39 17 113 28 165
11 52 23 140 27 195 3 55 12 128 20 163 8 35 14 78 14 97 l0 34 -156 3 -156 3
-26 -30z"/>
</g>
</svg>
