<?xml version="1.0" standalone="no"?>
<!DOCTYPE svg PUBLIC "-//W3C//DTD SVG 20010904//EN"
 "http://www.w3.org/TR/2001/REC-SVG-20010904/DTD/svg10.dtd">
<svg version="1.0" xmlns="http://www.w3.org/2000/svg"
 width="848.000000pt" height="848.000000pt" viewBox="0 0 848.000000 848.000000"
 preserveAspectRatio="xMidYMid meet">
<metadata>
Created by potrace 1.16, written by Peter Selinger 2001-2019
</metadata>
<g transform="translate(0.000000,848.000000) scale(0.100000,-0.100000)"
fill="#000000" stroke="none">
<path d="M5765 4771 c-134 -47 -484 -177 -543 -202 l-43 -19 3 -137 3 -138 28
-3 c21 -3 29 2 36 20 7 16 10 18 10 6 1 -26 20 -32 42 -12 17 15 23 16 40 5
15 -9 24 -9 34 -1 9 7 14 7 17 1 1 -6 18 -13 35 -17 29 -6 34 -3 43 21 8 20
14 25 22 17 6 -6 17 -8 24 -5 8 3 17 -2 20 -11 8 -21 50 -21 58 0 6 15 8 15
31 0 29 -19 97 -21 125 -4 15 10 22 9 39 -6 25 -22 59 -13 71 19 24 62 42 461
22 492 -5 9 -37 2 -117 -26z"/>
</g>
</svg>
