<?xml version="1.0" standalone="no"?>
<!DOCTYPE svg PUBLIC "-//W3C//DTD SVG 20010904//EN"
 "http://www.w3.org/TR/2001/REC-SVG-20010904/DTD/svg10.dtd">
<svg version="1.0" xmlns="http://www.w3.org/2000/svg"
 width="848.000000pt" height="848.000000pt" viewBox="0 0 848.000000 848.000000"
 preserveAspectRatio="xMidYMid meet">
<metadata>
Created by potrace 1.16, written by Peter Selinger 2001-2019
</metadata>
<g transform="translate(0.000000,848.000000) scale(0.100000,-0.100000)"
fill="#000000" stroke="none">
<path d="M616 4154 c15 -196 35 -412 40 -436 7 -37 16 -40 67 -28 35 9 80 7
243 -14 259 -34 393 -34 561 -1 71 13 175 29 233 35 58 5 157 17 221 26 105
14 122 14 192 0 42 -9 110 -16 151 -16 61 0 86 -5 142 -30 37 -17 69 -29 71
-27 2 3 10 46 17 96 18 115 26 127 136 186 42 23 61 41 80 76 l24 47 86 7
c127 11 181 21 191 36 5 8 9 30 9 50 l0 36 -272 6 c-150 4 -706 10 -1235 13
l-963 7 6 -69z"/>
</g>
</svg>
