<?xml version="1.0" standalone="no"?>
<!DOCTYPE svg PUBLIC "-//W3C//DTD SVG 20010904//EN"
 "http://www.w3.org/TR/2001/REC-SVG-20010904/DTD/svg10.dtd">
<svg version="1.0" xmlns="http://www.w3.org/2000/svg"
 width="848.000000pt" height="848.000000pt" viewBox="0 0 848.000000 848.000000"
 preserveAspectRatio="xMidYMid meet">
<metadata>
Created by potrace 1.16, written by Peter Selinger 2001-2019
</metadata>
<g transform="translate(0.000000,848.000000) scale(0.100000,-0.100000)"
fill="#000000" stroke="none">
<path d="M3126 4187 c-22 -16 -38 -127 -34 -239 3 -76 5 -83 23 -81 29 3 370
122 389 136 17 12 50 172 40 188 -10 16 -51 9 -69 -11 -24 -26 -42 -25 -51 2
-6 21 -7 21 -20 3 -13 -18 -15 -18 -50 -1 -32 15 -39 15 -59 2 -16 -11 -25
-12 -33 -4 -8 8 -15 8 -25 -1 -11 -9 -17 -8 -27 4 -15 18 -60 20 -84 2z"/>
</g>
</svg>
