<?xml version="1.0" standalone="no"?>
<!DOCTYPE svg PUBLIC "-//W3C//DTD SVG 20010904//EN"
 "http://www.w3.org/TR/2001/REC-SVG-20010904/DTD/svg10.dtd">
<svg version="1.0" xmlns="http://www.w3.org/2000/svg"
 width="848.000000pt" height="848.000000pt" viewBox="0 0 848.000000 848.000000"
 preserveAspectRatio="xMidYMid meet">
<metadata>
Created by potrace 1.16, written by Peter Selinger 2001-2019
</metadata>
<g transform="translate(0.000000,848.000000) scale(0.100000,-0.100000)"
fill="#000000" stroke="none">
<path d="M3916 6212 c-3 -5 6 -82 21 -171 l26 -161 -46 -98 c-25 -53 -50 -117
-56 -142 -6 -25 -11 -142 -11 -261 0 -214 0 -215 25 -249 36 -48 45 -91 45
-207 0 -111 2 -115 102 -276 35 -56 34 -56 151 3 43 22 87 40 98 40 48 0 69
100 68 314 0 83 -5 192 -9 241 -5 50 -13 171 -19 270 -5 99 -14 193 -20 208
-20 51 -16 97 35 396 l5 34 -102 -8 c-56 -4 -121 -13 -145 -20 l-43 -13 -29
37 c-33 40 -88 76 -96 63z"/>
</g>
</svg>
