<?xml version="1.0" standalone="no"?>
<!DOCTYPE svg PUBLIC "-//W3C//DTD SVG 20010904//EN"
 "http://www.w3.org/TR/2001/REC-SVG-20010904/DTD/svg10.dtd">
<svg version="1.0" xmlns="http://www.w3.org/2000/svg"
 width="848.000000pt" height="848.000000pt" viewBox="0 0 848.000000 848.000000"
 preserveAspectRatio="xMidYMid meet">
<metadata>
Created by potrace 1.16, written by Peter Selinger 2001-2019
</metadata>
<g transform="translate(0.000000,848.000000) scale(0.100000,-0.100000)"
fill="#000000" stroke="none">
<path d="M3154 3302 c-81 -53 -195 -153 -205 -180 -6 -15 -33 -127 -59 -249
l-48 -222 -65 -75 c-42 -48 -68 -88 -72 -109 -7 -33 10 -353 21 -412 3 -16 20
-55 36 -85 l31 -54 -12 -81 c-7 -44 -11 -96 -10 -115 2 -19 -3 -45 -10 -58
-19 -36 -6 -44 68 -37 105 11 136 22 200 76 80 68 106 109 130 203 14 56 33
98 65 145 60 88 80 165 74 289 l-5 93 36 27 c20 14 37 27 39 28 2 1 -12 30
-31 65 l-35 64 39 76 38 77 -84 165 -85 164 -1 94 c-1 52 -4 104 -7 116 l-7
23 -41 -28z"/>
</g>
</svg>
