<?xml version="1.0" standalone="no"?>
<!DOCTYPE svg PUBLIC "-//W3C//DTD SVG 20010904//EN"
 "http://www.w3.org/TR/2001/REC-SVG-20010904/DTD/svg10.dtd">
<svg version="1.0" xmlns="http://www.w3.org/2000/svg"
 width="848.000000pt" height="848.000000pt" viewBox="0 0 848.000000 848.000000"
 preserveAspectRatio="xMidYMid meet">
<metadata>
Created by potrace 1.16, written by Peter Selinger 2001-2019
</metadata>
<g transform="translate(0.000000,848.000000) scale(0.100000,-0.100000)"
fill="#000000" stroke="none">
<path d="M2905 4058 c-49 -5 -94 -13 -99 -18 -5 -5 -18 -26 -30 -46 -14 -25
-42 -48 -85 -73 -91 -51 -104 -73 -105 -168 0 -43 1 -89 2 -103 1 -14 -1 -59
-5 -101 -9 -83 2 -67 -148 -239 -37 -42 -84 -111 -107 -157 l-41 -82 27 -42
c35 -52 56 -112 56 -157 0 -26 -9 -45 -35 -73 -30 -34 -35 -46 -35 -88 0 -58
9 -89 20 -71 4 7 13 9 19 6 8 -5 7 -15 -5 -35 -16 -26 -15 -31 30 -132 49
-114 70 -185 81 -273 5 -38 16 -67 31 -86 35 -41 119 -80 172 -80 l45 0 -6 98
c-4 53 -9 156 -13 227 l-6 130 76 81 75 82 71 338 c166 790 160 758 167 922
l6 152 -34 -1 c-19 -1 -74 -6 -124 -11z"/>
</g>
</svg>
