<?xml version="1.0" standalone="no"?>
<!DOCTYPE svg PUBLIC "-//W3C//DTD SVG 20010904//EN"
 "http://www.w3.org/TR/2001/REC-SVG-20010904/DTD/svg10.dtd">
<svg version="1.0" xmlns="http://www.w3.org/2000/svg"
 width="848.000000pt" height="848.000000pt" viewBox="0 0 848.000000 848.000000"
 preserveAspectRatio="xMidYMid meet">
<metadata>
Created by potrace 1.16, written by Peter Selinger 2001-2019
</metadata>
<g transform="translate(0.000000,848.000000) scale(0.100000,-0.100000)"
fill="#000000" stroke="none">
<path d="M732 5143 c-5 -10 -19 -68 -31 -128 -25 -127 -22 -144 33 -193 77
-67 102 -74 311 -83 151 -6 212 -13 295 -34 58 -14 139 -28 180 -31 91 -7 278
14 495 56 l160 31 125 -16 c99 -13 138 -23 188 -47 l64 -32 111 22 c118 23
138 33 121 59 -11 17 -336 141 -695 264 l-235 80 -60 -21 c-97 -36 -155 -50
-211 -50 -44 0 -61 6 -100 34 -27 18 -73 47 -103 64 l-55 31 -110 -28 c-60
-16 -144 -35 -186 -42 l-77 -13 -43 37 c-63 55 -159 76 -177 40z"/>
</g>
</svg>
