<?xml version="1.0" standalone="no"?>
<!DOCTYPE svg PUBLIC "-//W3C//DTD SVG 20010904//EN"
 "http://www.w3.org/TR/2001/REC-SVG-20010904/DTD/svg10.dtd">
<svg version="1.0" xmlns="http://www.w3.org/2000/svg"
 width="848.000000pt" height="848.000000pt" viewBox="0 0 848.000000 848.000000"
 preserveAspectRatio="xMidYMid meet">
<metadata>
Created by potrace 1.16, written by Peter Selinger 2001-2019
</metadata>
<g transform="translate(0.000000,848.000000) scale(0.100000,-0.100000)"
fill="#000000" stroke="none">
<path d="M1606 2950 c-91 -36 -142 -108 -132 -189 3 -25 8 -82 12 -126 6 -76
8 -82 41 -109 20 -16 41 -43 48 -59 7 -17 31 -44 53 -61 22 -17 68 -55 102
-83 l61 -53 37 19 c51 27 197 145 217 175 13 19 14 29 5 45 -15 28 3 27 24 -1
l17 -23 -6 29 c-13 64 -34 97 -70 112 -43 17 -56 45 -86 172 -11 48 -24 97
-29 110 -25 59 -191 82 -294 42z m201 -181 c35 -41 63 -77 63 -81 0 -13 -109
-9 -130 4 -16 10 -24 10 -40 0 -24 -15 -60 -16 -60 -2 0 12 57 129 73 148 16
20 27 11 94 -69z"/>
</g>
</svg>
