<?xml version="1.0" standalone="no"?>
<!DOCTYPE svg PUBLIC "-//W3C//DTD SVG 20010904//EN"
 "http://www.w3.org/TR/2001/REC-SVG-20010904/DTD/svg10.dtd">
<svg version="1.0" xmlns="http://www.w3.org/2000/svg"
 width="848.000000pt" height="848.000000pt" viewBox="0 0 848.000000 848.000000"
 preserveAspectRatio="xMidYMid meet">
<metadata>
Created by potrace 1.16, written by Peter Selinger 2001-2019
</metadata>
<g transform="translate(0.000000,848.000000) scale(0.100000,-0.100000)"
fill="#000000" stroke="none">
<path d="M3689 6549 c-75 -36 -87 -40 -115 -30 -41 15 -94 14 -187 -4 -43 -8
-80 -15 -83 -15 -2 0 -43 -33 -91 -73 -104 -88 -166 -153 -212 -224 -40 -64
-86 -94 -165 -108 -60 -11 -61 -11 -68 -50 -4 -22 -10 -87 -14 -145 -6 -97 -4
-113 24 -216 16 -62 42 -130 57 -152 15 -23 30 -62 32 -86 5 -44 7 -45 262
-258 141 -118 359 -301 484 -406 140 -117 239 -193 258 -197 36 -8 127 3 135
16 3 5 -20 56 -50 114 l-56 104 0 104 c0 112 -9 150 -49 211 -26 39 -26 41
-26 250 0 236 4 256 75 410 l41 89 -21 131 c-32 191 -89 495 -102 539 -7 23
-17 37 -28 37 -9 0 -54 -18 -101 -41z m-360 -1063 c48 -25 63 -83 36 -136 -36
-69 -106 -81 -161 -26 -88 88 13 219 125 162z"/>
</g>
</svg>
