<?xml version="1.0" standalone="no"?>
<!DOCTYPE svg PUBLIC "-//W3C//DTD SVG 20010904//EN"
 "http://www.w3.org/TR/2001/REC-SVG-20010904/DTD/svg10.dtd">
<svg version="1.0" xmlns="http://www.w3.org/2000/svg"
 width="848.000000pt" height="848.000000pt" viewBox="0 0 848.000000 848.000000"
 preserveAspectRatio="xMidYMid meet">
<metadata>
Created by potrace 1.16, written by Peter Selinger 2001-2019
</metadata>
<g transform="translate(0.000000,848.000000) scale(0.100000,-0.100000)"
fill="#000000" stroke="none">
<path d="M4607 7826 c-8 -8 -17 -36 -20 -63 -3 -26 -15 -69 -27 -96 -12 -26
-18 -52 -15 -57 3 -6 25 -10 48 -10 23 -1 71 -7 107 -15 36 -8 79 -14 96 -15
20 0 39 -9 55 -26 37 -39 136 -102 179 -114 26 -7 52 -26 79 -57 23 -25 41
-49 41 -53 0 -4 69 -10 153 -12 224 -7 273 -30 403 -189 48 -59 59 -79 70
-137 21 -99 18 -96 65 -62 27 19 54 30 76 30 75 0 168 76 253 206 27 42 50 87
50 99 0 25 -68 75 -131 96 -19 7 -48 24 -65 39 -60 52 -435 224 -629 289 -115
38 -342 97 -454 117 -273 49 -311 52 -334 30z"/>
</g>
</svg>
