<?xml version="1.0" standalone="no"?>
<!DOCTYPE svg PUBLIC "-//W3C//DTD SVG 20010904//EN"
 "http://www.w3.org/TR/2001/REC-SVG-20010904/DTD/svg10.dtd">
<svg version="1.0" xmlns="http://www.w3.org/2000/svg"
 width="848.000000pt" height="848.000000pt" viewBox="0 0 848.000000 848.000000"
 preserveAspectRatio="xMidYMid meet">
<metadata>
Created by potrace 1.16, written by Peter Selinger 2001-2019
</metadata>
<g transform="translate(0.000000,848.000000) scale(0.100000,-0.100000)"
fill="#000000" stroke="none">
<path d="M6385 5819 c-122 -97 -158 -138 -206 -235 -42 -86 -52 -98 -186 -226
-15 -14 -38 -40 -51 -57 -13 -17 -46 -43 -73 -58 l-51 -28 4 -110 c4 -99 8
-118 36 -179 26 -55 36 -67 51 -63 26 6 45 -8 38 -28 -4 -9 -11 -13 -17 -10
-7 4 -10 -56 -10 -174 0 -231 -19 -334 -102 -555 -33 -88 -76 -206 -94 -261
l-35 -100 26 -22 26 -23 -26 0 c-26 0 -26 -2 -20 -40 4 -22 14 -71 23 -108 17
-69 18 -70 107 -146 l90 -76 60 0 c53 0 69 -5 147 -50 57 -34 106 -54 142 -60
63 -10 77 -17 166 -77 35 -25 66 -40 68 -34 2 6 11 11 21 11 11 0 34 29 63 78
77 127 58 117 174 93 55 -11 115 -18 134 -15 49 8 148 -30 162 -62 12 -27 78
-62 132 -71 39 -6 46 2 19 24 -16 13 -15 14 12 9 30 -5 30 -4 64 92 19 53 54
149 78 212 51 133 64 200 40 200 -14 0 -14 3 -2 28 12 22 12 45 3 127 -19 166
-15 220 19 305 28 68 29 77 16 92 -14 16 -14 18 3 24 42 13 64 24 64 32 0 4
-27 26 -61 48 -44 28 -73 57 -104 104 -59 91 -62 96 -80 189 -14 68 -15 91 -5
129 18 72 59 139 113 184 26 23 63 64 82 93 18 29 73 96 121 150 49 53 96 108
105 122 16 23 15 26 -5 47 -11 12 -29 37 -38 54 -15 28 -22 32 -59 32 l-41 0
31 29 c36 33 38 46 13 60 -15 8 -20 27 -25 91 -4 44 -11 89 -16 99 -15 26 -84
33 -140 14 -25 -9 -61 -15 -79 -14 -36 2 -61 -9 -114 -52 l-38 -30 -58 31 -58
31 -99 -29 c-55 -16 -107 -30 -116 -30 -8 0 -30 16 -49 35 -34 35 -34 35 -125
35 -76 0 -95 3 -108 18 -10 10 -17 25 -17 33 0 8 -7 23 -15 33 -8 11 -15 27
-15 37 0 9 -8 27 -18 39 l-18 22 -79 -63z m945 -2218 c24 -47 9 -82 -54 -125
-48 -32 -51 -32 -72 -1 -14 22 -15 30 -4 50 14 27 48 33 68 13 8 -8 14 -4 23
18 7 16 11 37 10 47 -3 23 16 22 29 -2z"/>
</g>
</svg>
