<?xml version="1.0" standalone="no"?>
<!DOCTYPE svg PUBLIC "-//W3C//DTD SVG 20010904//EN"
 "http://www.w3.org/TR/2001/REC-SVG-20010904/DTD/svg10.dtd">
<svg version="1.0" xmlns="http://www.w3.org/2000/svg"
 width="848.000000pt" height="848.000000pt" viewBox="0 0 848.000000 848.000000"
 preserveAspectRatio="xMidYMid meet">
<metadata>
Created by potrace 1.16, written by Peter Selinger 2001-2019
</metadata>
<g transform="translate(0.000000,848.000000) scale(0.100000,-0.100000)"
fill="#000000" stroke="none">
<path d="M7525 4189 c-67 -81 -90 -165 -69 -257 9 -38 15 -119 16 -200 1 -135
0 -138 -37 -237 -20 -55 -58 -161 -82 -235 -25 -74 -54 -151 -64 -171 -26 -51
-46 -146 -58 -279 -10 -105 -15 -123 -55 -205 -25 -49 -59 -109 -76 -132 -28
-38 -245 -239 -324 -301 -29 -22 -29 -22 -10 -44 l19 -21 -26 16 c-25 16 -27
16 -71 -13 -71 -47 -135 -121 -148 -171 -32 -130 -88 -244 -138 -286 -26 -22
-27 -26 -31 -149 -4 -140 2 -157 44 -130 113 74 503 453 639 621 108 132 257
356 330 497 29 56 79 152 111 212 56 105 115 251 115 281 0 9 -15 24 -32 35
-21 13 -27 20 -16 20 33 0 69 24 74 49 3 14 23 64 44 111 65 141 143 570 165
918 l7 102 -150 0 -150 0 -27 -31z m-54 -1218 c24 -24 29 -38 29 -76 0 -38 -5
-52 -29 -76 -24 -24 -38 -29 -76 -29 -39 0 -52 5 -77 30 -28 28 -30 36 -25 78
10 95 113 137 178 73z"/>
</g>
</svg>
