<?xml version="1.0" standalone="no"?>
<!DOCTYPE svg PUBLIC "-//W3C//DTD SVG 20010904//EN"
 "http://www.w3.org/TR/2001/REC-SVG-20010904/DTD/svg10.dtd">
<svg version="1.0" xmlns="http://www.w3.org/2000/svg"
 width="848.000000pt" height="848.000000pt" viewBox="0 0 848.000000 848.000000"
 preserveAspectRatio="xMidYMid meet">
<metadata>
Created by potrace 1.16, written by Peter Selinger 2001-2019
</metadata>
<g transform="translate(0.000000,848.000000) scale(0.100000,-0.100000)"
fill="#000000" stroke="none">
<path d="M3938 7850 c-236 -12 -318 -35 -318 -89 0 -11 5 -23 10 -26 6 -3 7
-17 4 -30 -4 -16 0 -26 12 -33 20 -11 11 -30 -22 -42 -32 -13 -30 -22 7 -39
21 -9 27 -16 19 -21 -9 -6 -6 -10 9 -15 25 -8 28 -30 5 -43 -15 -8 -15 -10 0
-15 14 -5 15 -11 6 -27 -9 -16 -8 -21 5 -25 52 -17 52 -15 16 -44 l-34 -28 28
-25 c23 -21 25 -29 16 -46 -7 -14 -8 -23 -1 -27 5 -3 10 -13 10 -21 0 -9 7
-22 15 -30 23 -23 20 -80 -5 -87 -29 -7 -25 -41 10 -81 20 -23 28 -40 23 -51
-4 -12 0 -23 13 -32 15 -11 16 -17 7 -32 -9 -14 -8 -22 5 -34 14 -15 14 -19
-2 -49 -14 -26 -15 -39 -7 -60 6 -16 18 -28 26 -28 46 0 73 -176 38 -239 -15
-26 -24 -31 -55 -31 -73 0 -52 -36 27 -47 40 -5 50 -3 61 12 13 17 14 15 14
-18 0 -20 -4 -37 -10 -37 -13 0 -13 -37 0 -45 5 -3 14 -22 19 -42 9 -30 7 -42
-9 -67 -18 -31 -18 -31 5 -59 31 -35 47 -91 34 -124 -13 -34 -11 -43 6 -43 18
0 20 -33 3 -61 -11 -17 -10 -23 10 -39 25 -20 28 -40 10 -58 -9 -9 -9 -12 0
-12 19 0 14 -20 -5 -21 -10 0 -13 -3 -6 -5 8 -4 9 -13 4 -27 -9 -23 2 -119 20
-175 6 -17 20 -37 30 -43 16 -8 19 -17 14 -40 -5 -21 -2 -31 8 -35 8 -3 18
-21 22 -40 5 -27 1 -41 -17 -64 -13 -16 -30 -29 -38 -30 -10 0 -7 -8 12 -24
15 -13 32 -26 37 -27 6 -2 13 -24 15 -47 3 -24 9 -49 15 -56 6 -7 8 -22 4 -34
-3 -15 0 -24 11 -28 20 -8 21 -33 1 -40 -14 -6 -13 -8 2 -20 15 -12 16 -15 3
-23 -12 -9 -12 -12 2 -28 12 -13 14 -23 7 -35 -6 -11 -6 -24 1 -38 5 -11 15
-29 20 -40 6 -12 8 -25 5 -30 -4 -6 -3 -16 2 -22 4 -7 6 -25 5 -39 -2 -14 4
-31 12 -39 18 -14 21 -72 5 -101 -13 -24 4 -84 26 -93 18 -6 45 3 45 15 0 5
12 15 28 23 15 9 47 33 72 55 38 33 42 41 31 55 -9 10 -11 28 -6 58 9 53 21
77 52 101 27 22 32 77 7 98 -13 11 -15 25 -10 74 13 122 34 199 61 218 25 19
33 51 15 62 -6 4 -7 12 -3 18 4 7 9 21 10 32 2 11 6 27 10 35 3 8 5 21 4 29
-1 7 1 20 4 30 10 24 17 80 16 131 0 24 5 51 13 60 27 33 58 180 61 296 1 45
5 86 9 92 7 12 19 94 18 132 0 14 4 30 10 37 5 7 7 17 3 23 -3 5 -3 15 0 20 4
6 8 37 8 68 2 43 8 65 26 89 21 28 23 39 18 91 -4 40 -2 63 6 71 6 6 12 24 13
39 1 15 5 47 10 72 4 25 7 64 7 88 0 23 3 42 8 42 5 0 9 6 9 13 0 6 6 24 14
38 8 17 13 52 11 95 -2 38 2 75 7 82 6 6 8 12 4 12 -3 0 3 15 14 34 16 29 16
35 4 40 -19 7 -18 21 4 42 9 10 18 31 19 48 1 17 5 47 9 67 3 23 2 39 -5 43
-20 13 -11 45 19 73 36 34 33 57 -11 72 -44 15 -37 35 11 28 39 -5 40 -4 38
22 -1 14 4 48 11 74 10 34 11 54 3 74 -6 16 -13 40 -16 55 -8 35 -53 48 -174
51 -83 2 -87 1 -90 -20 -5 -32 -21 -29 -33 6 -9 27 -14 28 -86 35 -91 7 -333
6 -535 -4z"/>
</g>
</svg>
