<?xml version="1.0" standalone="no"?>
<!DOCTYPE svg PUBLIC "-//W3C//DTD SVG 20010904//EN"
 "http://www.w3.org/TR/2001/REC-SVG-20010904/DTD/svg10.dtd">
<svg version="1.0" xmlns="http://www.w3.org/2000/svg"
 width="848.000000pt" height="848.000000pt" viewBox="0 0 848.000000 848.000000"
 preserveAspectRatio="xMidYMid meet">
<metadata>
Created by potrace 1.16, written by Peter Selinger 2001-2019
</metadata>
<g transform="translate(0.000000,848.000000) scale(0.100000,-0.100000)"
fill="#000000" stroke="none">
<path d="M826 5448 c-17 -27 -66 -193 -66 -225 0 -19 9 -25 55 -38 73 -22 62
-38 -20 -30 l-63 7 -16 -73 c-17 -77 -36 -185 -36 -206 0 -7 16 -31 36 -52
l35 -40 -40 16 c-23 9 -43 14 -46 11 -12 -12 -26 -170 -32 -369 l-6 -216 174
-7 c101 -4 195 -3 223 2 32 7 59 6 78 0 37 -13 175 -5 191 11 16 16 47 14 67
-4 15 -13 22 -14 44 -3 20 9 32 9 45 1 10 -6 24 -7 32 -3 8 5 127 7 264 5 138
-2 257 -3 265 -3 8 1 76 1 150 0 74 -1 141 -1 148 -1 6 0 28 0 47 0 19 0 41 0
48 0 6 0 71 3 144 6 77 2 139 1 149 -5 12 -7 26 -6 41 1 19 8 27 7 40 -6 14
-14 18 -14 38 -1 16 11 65 17 164 21 138 6 141 6 141 -15 0 -30 17 -36 46 -17
34 22 54 13 54 -26 0 -27 2 -30 16 -18 13 10 17 10 24 -1 7 -12 12 -11 28 4
19 17 21 17 31 -1 6 -10 11 -13 11 -8 0 15 83 12 96 -4 13 -17 50 0 58 26 7
20 93 64 111 56 7 -2 15 -22 19 -44 3 -21 11 -39 17 -39 7 0 8 7 4 18 -4 9
-10 28 -13 41 l-5 25 28 -22 c15 -12 30 -20 34 -18 18 12 53 106 46 123 -5 10
-7 21 -7 26 1 4 -11 7 -28 7 -38 0 -38 16 0 68 28 40 29 42 11 52 -11 5 -43
10 -71 10 -36 0 -52 4 -56 15 -4 8 -10 13 -14 10 -5 -3 -11 -1 -15 5 -3 5 -19
10 -36 10 -19 0 -29 5 -29 14 0 22 -17 28 -38 15 -12 -7 -33 -9 -55 -5 -30 6
-40 14 -51 40 -13 31 -24 37 -182 96 -93 34 -213 77 -266 96 -89 30 -99 31
-108 16 -7 -13 -9 -14 -10 -3 0 11 -3 10 -13 -3 -20 -27 -56 -12 -73 31 -12
27 -18 32 -28 24 -10 -9 -15 -7 -21 6 -6 16 -8 16 -16 -5 -7 -19 -13 -21 -36
-16 -62 15 -138 48 -159 69 -13 13 -25 20 -28 17 -3 -3 -6 4 -6 15 0 28 -8 33
-35 23 -18 -7 -25 -5 -30 8 -6 15 -8 14 -16 -5 -4 -13 -13 -23 -19 -23 -22 0
-90 41 -90 55 0 21 -17 27 -41 15 -32 -18 -69 -4 -80 30 -13 37 -35 45 -53 18
-16 -23 -36 -16 -36 12 0 40 -68 68 -97 39 -11 -11 -175 -70 -180 -65 -2 2 15
16 38 31 46 32 69 61 69 87 0 16 -2 16 -30 0 -29 -16 -31 -16 -42 2 -8 14 -12
15 -18 6 -9 -15 -55 -2 -99 27 -14 9 -37 17 -51 18 -48 4 -195 68 -222 97 -27
29 -80 39 -94 17 -3 -6 -17 -8 -33 -4 -14 4 -33 8 -41 10 -40 8 -84 43 -95 75
-11 34 -13 35 -72 38 -44 2 -63 -1 -73 -13 -19 -23 -56 -18 -74 10 -20 31 -31
31 -50 3z"/>
</g>
</svg>
