<?xml version="1.0" standalone="no"?>
<!DOCTYPE svg PUBLIC "-//W3C//DTD SVG 20010904//EN"
 "http://www.w3.org/TR/2001/REC-SVG-20010904/DTD/svg10.dtd">
<svg version="1.0" xmlns="http://www.w3.org/2000/svg"
 width="848.000000pt" height="848.000000pt" viewBox="0 0 848.000000 848.000000"
 preserveAspectRatio="xMidYMid meet">
<metadata>
Created by potrace 1.16, written by Peter Selinger 2001-2019
</metadata>
<g transform="translate(0.000000,848.000000) scale(0.100000,-0.100000)"
fill="#000000" stroke="none">
<path d="M6249 7208 c-18 -18 -55 -64 -84 -103 -59 -80 -108 -126 -165 -155
-47 -24 -55 -38 -64 -111 -4 -31 -21 -85 -38 -120 -33 -70 -77 -210 -78 -246
0 -13 5 -23 12 -23 24 0 256 83 338 122 47 21 107 43 134 49 57 11 70 20 103
72 13 20 71 87 129 148 57 60 102 114 99 120 -8 12 -233 193 -303 243 l-52 38
-31 -34z"/>
</g>
</svg>
