<?xml version="1.0" standalone="no"?>
<!DOCTYPE svg PUBLIC "-//W3C//DTD SVG 20010904//EN"
 "http://www.w3.org/TR/2001/REC-SVG-20010904/DTD/svg10.dtd">
<svg version="1.0" xmlns="http://www.w3.org/2000/svg"
 width="848.000000pt" height="848.000000pt" viewBox="0 0 848.000000 848.000000"
 preserveAspectRatio="xMidYMid meet">
<metadata>
Created by potrace 1.16, written by Peter Selinger 2001-2019
</metadata>
<g transform="translate(0.000000,848.000000) scale(0.100000,-0.100000)"
fill="#000000" stroke="none">
<path d="M3872 3573 c-179 -306 -457 -793 -491 -860 -17 -34 -31 -75 -31 -91
0 -35 37 -87 121 -169 l64 -62 145 -16 c205 -24 307 -24 347 -2 24 12 55 17
122 17 l90 0 139 -89 c243 -155 246 -156 311 -96 54 51 246 305 279 370 29 59
62 176 62 224 0 23 -10 61 -21 84 -30 57 -387 677 -434 754 -45 71 -38 71
-146 -8 l-66 -49 -110 0 c-128 0 -139 5 -202 99 -67 98 -55 105 -179 -106z"/>
</g>
</svg>
