<?xml version="1.0" standalone="no"?>
<!DOCTYPE svg PUBLIC "-//W3C//DTD SVG 20010904//EN"
 "http://www.w3.org/TR/2001/REC-SVG-20010904/DTD/svg10.dtd">
<svg version="1.0" xmlns="http://www.w3.org/2000/svg"
 width="848.000000pt" height="848.000000pt" viewBox="0 0 848.000000 848.000000"
 preserveAspectRatio="xMidYMid meet">
<metadata>
Created by potrace 1.16, written by Peter Selinger 2001-2019
</metadata>
<g transform="translate(0.000000,848.000000) scale(0.100000,-0.100000)"
fill="#000000" stroke="none">
<path d="M3350 2443 c-28 -26 -29 -31 -20 -68 10 -46 -3 -163 -27 -235 -8 -25
-32 -72 -54 -106 -22 -34 -46 -89 -55 -127 -16 -62 -16 -68 0 -91 29 -46 72
-60 191 -66 101 -6 118 -10 208 -49 l98 -43 192 -9 c226 -11 247 -10 572 43
212 33 265 46 350 79 55 22 131 44 169 49 37 6 72 13 77 16 15 9 59 101 59
122 0 11 -34 66 -76 123 -75 101 -102 151 -139 253 l-18 49 -26 -30 c-14 -16
-51 -61 -82 -99 -31 -39 -76 -87 -101 -107 l-46 -38 -146 96 c-229 151 -245
158 -342 153 -60 -3 -91 -10 -118 -26 l-36 -22 -188 20 c-254 27 -240 24 -321
85 -40 30 -77 55 -82 55 -5 0 -22 -12 -39 -27z"/>
</g>
</svg>
