<?xml version="1.0" standalone="no"?>
<!DOCTYPE svg PUBLIC "-//W3C//DTD SVG 20010904//EN"
 "http://www.w3.org/TR/2001/REC-SVG-20010904/DTD/svg10.dtd">
<svg version="1.0" xmlns="http://www.w3.org/2000/svg"
 width="848.000000pt" height="848.000000pt" viewBox="0 0 848.000000 848.000000"
 preserveAspectRatio="xMidYMid meet">
<metadata>
Created by potrace 1.16, written by Peter Selinger 2001-2019
</metadata>
<g transform="translate(0.000000,848.000000) scale(0.100000,-0.100000)"
fill="#000000" stroke="none">
<path d="M5062 2753 c-5 -10 -19 -52 -32 -93 -28 -94 -50 -137 -89 -174 -37
-35 -37 -43 -7 -167 22 -95 24 -99 115 -213 50 -64 94 -122 97 -130 3 -7 -8
-44 -23 -82 -45 -110 -40 -163 26 -303 48 -99 56 -127 65 -208 9 -86 8 -99
-15 -175 -20 -71 -24 -102 -23 -215 2 -185 1 -183 72 -183 34 0 83 10 122 24
36 13 81 29 100 36 19 7 46 18 60 26 53 29 128 62 212 94 48 18 110 48 138 66
28 18 66 36 86 40 39 7 68 30 58 46 -4 6 1 8 12 6 25 -6 150 61 250 134 30 22
32 26 38 112 3 49 6 118 6 153 l0 63 -47 0 c-59 0 -169 17 -205 31 -34 14 -77
96 -113 213 -25 84 -31 94 -93 156 -47 46 -95 80 -162 115 -106 56 -232 169
-375 337 -44 51 -98 111 -120 133 -22 22 -55 63 -73 91 -18 28 -41 59 -51 68
-18 17 -20 17 -29 -1z"/>
</g>
</svg>
