<?xml version="1.0" standalone="no"?>
<!DOCTYPE svg PUBLIC "-//W3C//DTD SVG 20010904//EN"
 "http://www.w3.org/TR/2001/REC-SVG-20010904/DTD/svg10.dtd">
<svg version="1.0" xmlns="http://www.w3.org/2000/svg"
 width="848.000000pt" height="848.000000pt" viewBox="0 0 848.000000 848.000000"
 preserveAspectRatio="xMidYMid meet">
<metadata>
Created by potrace 1.16, written by Peter Selinger 2001-2019
</metadata>
<g transform="translate(0.000000,848.000000) scale(0.100000,-0.100000)"
fill="#000000" stroke="none">
<path d="M4771 4924 c-12 -15 -21 -30 -21 -34 0 -3 -32 -44 -71 -91 -115 -138
-118 -156 -28 -166 62 -7 75 -16 137 -101 34 -45 52 -62 64 -58 21 5 25 -19 4
-27 -8 -3 -19 -35 -26 -74 -18 -98 -36 -146 -80 -215 -33 -50 -38 -64 -29 -80
9 -16 7 -24 -5 -36 -15 -15 -16 -15 -16 1 0 25 -15 13 -33 -25 -32 -69 -31
-74 15 -124 50 -55 123 -104 152 -104 31 1 156 56 183 81 25 24 31 65 11 71
-9 3 -5 19 13 54 33 60 53 146 47 202 -3 41 -3 41 32 44 l35 3 -3 140 c-2 102
-6 145 -17 162 -8 12 -15 29 -15 38 0 43 -144 232 -227 296 -90 71 -98 74
-122 43z"/>
</g>
</svg>
