<?xml version="1.0" standalone="no"?>
<!DOCTYPE svg PUBLIC "-//W3C//DTD SVG 20010904//EN"
 "http://www.w3.org/TR/2001/REC-SVG-20010904/DTD/svg10.dtd">
<svg version="1.0" xmlns="http://www.w3.org/2000/svg"
 width="848.000000pt" height="848.000000pt" viewBox="0 0 848.000000 848.000000"
 preserveAspectRatio="xMidYMid meet">
<metadata>
Created by potrace 1.16, written by Peter Selinger 2001-2019
</metadata>
<g transform="translate(0.000000,848.000000) scale(0.100000,-0.100000)"
fill="#000000" stroke="none">
<path d="M5201 3734 c-6 -22 -23 -87 -38 -146 -24 -93 -31 -108 -48 -108 -33
1 -138 26 -162 38 -20 11 -22 10 -27 -20 -2 -18 -14 -95 -26 -171 l-21 -137
21 -48 c34 -78 112 -200 131 -205 9 -3 30 -24 45 -48 100 -155 308 -405 461
-555 86 -85 120 -110 205 -155 152 -80 266 -192 282 -278 7 -39 31 -81 46 -81
6 0 10 12 11 28 0 18 9 3 28 -51 16 -43 36 -84 46 -91 22 -16 120 -4 144 18
23 21 28 20 34 -6 6 -22 7 -22 37 7 59 57 101 166 79 207 -9 16 -7 24 10 39
15 14 19 27 14 53 -5 32 -4 33 20 29 21 -4 39 8 104 71 73 70 76 75 44 66 -41
-11 -62 -2 -32 14 21 11 19 14 -44 65 -88 71 -188 182 -176 194 11 11 31 1 31
-17 0 -6 18 -29 39 -50 40 -39 40 -39 46 -15 3 13 5 49 4 79 0 30 0 101 1 157
1 78 -2 110 -16 138 -14 31 -16 54 -10 149 l7 112 -79 57 c-86 62 -118 77
-165 77 -21 0 -67 20 -129 55 -89 51 -101 55 -160 55 l-63 0 -82 76 -82 75
-26 -51 c-14 -28 -30 -48 -35 -45 -5 3 -17 -7 -27 -22 -23 -36 -32 -43 -65
-43 -54 0 -135 138 -184 313 -38 136 -77 189 -151 203 -30 6 -32 4 -42 -32z"/>
</g>
</svg>
