<?xml version="1.0" standalone="no"?>
<!DOCTYPE svg PUBLIC "-//W3C//DTD SVG 20010904//EN"
 "http://www.w3.org/TR/2001/REC-SVG-20010904/DTD/svg10.dtd">
<svg version="1.0" xmlns="http://www.w3.org/2000/svg"
 width="848.000000pt" height="848.000000pt" viewBox="0 0 848.000000 848.000000"
 preserveAspectRatio="xMidYMid meet">
<metadata>
Created by potrace 1.16, written by Peter Selinger 2001-2019
</metadata>
<g transform="translate(0.000000,848.000000) scale(0.100000,-0.100000)"
fill="#000000" stroke="none">
<path d="M3066 1700 c-97 -89 -114 -96 -250 -106 -104 -8 -81 18 -233 -264
-119 -221 -118 -219 -95 -227 9 -3 24 -12 32 -19 8 -6 34 -17 57 -23 23 -7 45
-16 49 -22 7 -12 74 -42 144 -66 25 -8 78 -32 118 -54 41 -21 83 -39 94 -39
24 0 169 -43 353 -106 140 -47 192 -58 381 -79 67 -7 131 -18 142 -24 28 -15
32 -7 43 100 9 87 26 141 66 201 17 27 17 30 -21 144 -37 112 -38 120 -32 213
11 170 16 190 48 227 17 19 27 38 24 42 -4 4 -67 9 -139 13 -123 5 -138 8
-221 43 -49 20 -106 46 -125 56 -33 16 -46 17 -116 8 l-80 -11 -72 37 c-40 20
-74 36 -76 36 -2 0 -43 -36 -91 -80z"/>
</g>
</svg>
