<?xml version="1.0" standalone="no"?>
<!DOCTYPE svg PUBLIC "-//W3C//DTD SVG 20010904//EN"
 "http://www.w3.org/TR/2001/REC-SVG-20010904/DTD/svg10.dtd">
<svg version="1.0" xmlns="http://www.w3.org/2000/svg"
 width="848.000000pt" height="848.000000pt" viewBox="0 0 848.000000 848.000000"
 preserveAspectRatio="xMidYMid meet">
<metadata>
Created by potrace 1.16, written by Peter Selinger 2001-2019
</metadata>
<g transform="translate(0.000000,848.000000) scale(0.100000,-0.100000)"
fill="#000000" stroke="none">
<path d="M3232 7279 c-67 -11 -78 -18 -159 -86 l-66 -56 -146 7 c-80 3 -177
13 -215 21 -53 11 -73 12 -83 3 -11 -9 -17 -9 -23 2 -7 11 -30 -6 -103 -75
-52 -50 -123 -116 -159 -147 -55 -48 -74 -73 -111 -150 -25 -51 -70 -163 -100
-249 -60 -169 -83 -221 -120 -265 -29 -35 -53 -79 -39 -70 17 10 25 -13 11
-30 -12 -14 -14 -14 -25 1 -7 9 -18 14 -24 10 -23 -14 -5 -107 43 -215 25 -58
50 -123 56 -145 6 -22 18 -49 26 -59 8 -11 15 -27 15 -37 0 -9 11 -32 24 -52
l24 -35 -44 -144 c-59 -192 -80 -241 -114 -266 -36 -27 -47 -74 -26 -106 8
-13 34 -31 58 -39 24 -8 178 -65 343 -127 165 -61 468 -172 673 -246 l374
-134 56 49 c32 27 83 76 115 109 l59 59 -350 293 -350 292 -10 54 c-7 30 -22
73 -36 97 -13 23 -34 76 -46 117 -11 41 -28 95 -37 118 -14 40 -14 51 2 130 9
48 20 135 24 193 l7 107 108 213 107 214 124 125 c115 115 130 134 189 247 58
109 66 130 74 202 l8 81 -40 -1 c-23 -1 -65 -5 -94 -10z"/>
</g>
</svg>
