<?xml version="1.0" standalone="no"?>
<!DOCTYPE svg PUBLIC "-//W3C//DTD SVG 20010904//EN"
 "http://www.w3.org/TR/2001/REC-SVG-20010904/DTD/svg10.dtd">
<svg version="1.0" xmlns="http://www.w3.org/2000/svg"
 width="848.000000pt" height="848.000000pt" viewBox="0 0 848.000000 848.000000"
 preserveAspectRatio="xMidYMid meet">
<metadata>
Created by potrace 1.16, written by Peter Selinger 2001-2019
</metadata>
<g transform="translate(0.000000,848.000000) scale(0.100000,-0.100000)"
fill="#000000" stroke="none">
<path d="M2364 7338 c-247 -132 -624 -453 -869 -738 -146 -170 -315 -402 -315
-432 0 -20 88 -103 135 -127 22 -12 54 -24 72 -27 35 -7 32 -9 227 170 l86 78
69 -36 69 -36 49 62 c84 108 92 123 153 295 106 297 136 343 329 513 84 73
134 143 125 175 -9 31 -63 113 -78 118 -8 3 -31 -4 -52 -15z m-838 -1002 c26
-26 34 -42 34 -71 0 -49 -53 -105 -100 -105 -64 0 -109 43 -110 104 0 53 52
106 105 106 29 0 45 -8 71 -34z"/>
</g>
</svg>
