<?xml version="1.0" standalone="no"?>
<!DOCTYPE svg PUBLIC "-//W3C//DTD SVG 20010904//EN"
 "http://www.w3.org/TR/2001/REC-SVG-20010904/DTD/svg10.dtd">
<svg version="1.0" xmlns="http://www.w3.org/2000/svg"
 width="848.000000pt" height="848.000000pt" viewBox="0 0 848.000000 848.000000"
 preserveAspectRatio="xMidYMid meet">
<metadata>
Created by potrace 1.16, written by Peter Selinger 2001-2019
</metadata>
<g transform="translate(0.000000,848.000000) scale(0.100000,-0.100000)"
fill="#000000" stroke="none">
<path d="M6619 6879 c-85 -63 -158 -139 -184 -189 -13 -27 -28 -83 -35 -131
-7 -48 -20 -98 -31 -116 l-20 -33 123 1 c81 0 142 -5 178 -15 94 -27 115 -23
189 38 36 30 88 77 114 104 l48 49 -49 59 c-67 80 -235 249 -259 263 -17 8
-29 4 -74 -30z"/>
</g>
</svg>
