<?xml version="1.0" standalone="no"?>
<!DOCTYPE svg PUBLIC "-//W3C//DTD SVG 20010904//EN"
 "http://www.w3.org/TR/2001/REC-SVG-20010904/DTD/svg10.dtd">
<svg version="1.0" xmlns="http://www.w3.org/2000/svg"
 width="848.000000pt" height="848.000000pt" viewBox="0 0 848.000000 848.000000"
 preserveAspectRatio="xMidYMid meet">
<metadata>
Created by potrace 1.16, written by Peter Selinger 2001-2019
</metadata>
<g transform="translate(0.000000,848.000000) scale(0.100000,-0.100000)"
fill="#000000" stroke="none">
<path d="M4473 7561 c-73 -18 -85 -25 -135 -69 l-27 -25 -143 10 c-142 9 -144
9 -288 -23 -234 -52 -444 -126 -479 -167 -7 -9 -16 -52 -20 -97 -6 -55 -15
-91 -28 -108 -11 -15 -42 -69 -68 -121 -42 -81 -68 -114 -178 -228 -121 -126
-157 -177 -157 -220 0 -10 -19 -43 -42 -73 -48 -64 -128 -227 -128 -261 0 -20
7 -36 35 -77 1 -1 24 7 51 18 60 26 95 58 141 130 42 64 71 93 202 199 l96 78
111 17 c105 17 112 17 144 1 l34 -17 108 53 c94 46 108 57 104 74 -3 11 -9 50
-12 86 -8 80 -19 71 167 135 72 24 151 55 177 68 l47 24 118 -20 c114 -19 119
-19 138 -2 11 10 55 89 98 175 78 157 103 198 193 321 27 37 48 75 46 85 -8
41 -194 62 -305 34z"/>
</g>
</svg>
