<?xml version="1.0" standalone="no"?>
<!DOCTYPE svg PUBLIC "-//W3C//DTD SVG 20010904//EN"
 "http://www.w3.org/TR/2001/REC-SVG-20010904/DTD/svg10.dtd">
<svg version="1.0" xmlns="http://www.w3.org/2000/svg"
 width="848.000000pt" height="848.000000pt" viewBox="0 0 848.000000 848.000000"
 preserveAspectRatio="xMidYMid meet">
<metadata>
Created by potrace 1.16, written by Peter Selinger 2001-2019
</metadata>
<g transform="translate(0.000000,848.000000) scale(0.100000,-0.100000)"
fill="#000000" stroke="none">
<path d="M3488 3952 c-26 -9 -52 -21 -57 -27 -5 -5 -53 -131 -107 -280 l-96
-269 7 -145 c8 -160 13 -174 117 -355 34 -57 42 -66 53 -55 30 30 531 903 537
934 2 16 -4 20 -42 26 -63 10 -84 19 -177 80 -127 83 -170 109 -179 108 -5 0
-30 -8 -56 -17z"/>
</g>
</svg>
