<?xml version="1.0" standalone="no"?>
<!DOCTYPE svg PUBLIC "-//W3C//DTD SVG 20010904//EN"
 "http://www.w3.org/TR/2001/REC-SVG-20010904/DTD/svg10.dtd">
<svg version="1.0" xmlns="http://www.w3.org/2000/svg"
 width="848.000000pt" height="848.000000pt" viewBox="0 0 848.000000 848.000000"
 preserveAspectRatio="xMidYMid meet">
<metadata>
Created by potrace 1.16, written by Peter Selinger 2001-2019
</metadata>
<g transform="translate(0.000000,848.000000) scale(0.100000,-0.100000)"
fill="#000000" stroke="none">
<path d="M5165 7223 c4 -31 11 -68 17 -82 9 -24 11 -24 17 -7 7 18 8 18 14 2
12 -30 8 -86 -5 -83 -16 3 -61 -81 -88 -162 -26 -80 -54 -119 -96 -137 -33
-14 -34 -16 -34 -69 0 -61 20 -77 21 -17 0 20 3 30 6 22 3 -8 10 -26 15 -39 8
-23 9 -23 23 -5 14 19 16 17 19 -21 1 -13 12 -23 34 -30 17 -5 32 -12 32 -16
0 -4 21 -35 46 -68 33 -44 45 -68 41 -83 -3 -12 0 -36 8 -55 l14 -34 97 3 97
3 69 120 c66 116 67 120 46 126 -21 6 -18 10 38 65 77 74 116 133 113 171 -4
49 12 115 27 109 10 -4 14 4 14 28 0 28 -14 47 -100 135 -56 57 -100 111 -100
121 0 15 -15 24 -66 40 -79 24 -78 24 -70 5 4 -11 -2 -15 -25 -15 -17 0 -37 7
-45 15 -11 11 -38 15 -101 15 l-85 0 7 -57z m260 -190 c9 -29 20 -53 25 -53 5
0 22 8 39 18 29 16 31 16 50 -3 10 -11 22 -30 26 -42 l6 -23 -135 0 c-148 0
-146 -1 -125 59 13 36 25 40 34 11 13 -40 35 -15 35 40 0 36 10 64 20 53 4 -4
15 -32 25 -60z"/>
</g>
</svg>
