<?xml version="1.0" standalone="no"?>
<!DOCTYPE svg PUBLIC "-//W3C//DTD SVG 20010904//EN"
 "http://www.w3.org/TR/2001/REC-SVG-20010904/DTD/svg10.dtd">
<svg version="1.0" xmlns="http://www.w3.org/2000/svg"
 width="848.000000pt" height="848.000000pt" viewBox="0 0 848.000000 848.000000"
 preserveAspectRatio="xMidYMid meet">
<metadata>
Created by potrace 1.16, written by Peter Selinger 2001-2019
</metadata>
<g transform="translate(0.000000,848.000000) scale(0.100000,-0.100000)"
fill="#000000" stroke="none">
<path d="M3940 7850 c-154 -8 -258 -21 -282 -36 -19 -12 9 -194 30 -194 4 0 7
-34 7 -74 0 -43 5 -80 11 -86 9 -9 47 -5 149 14 114 21 168 26 305 26 158 0
168 1 186 22 10 11 46 33 79 48 33 16 68 36 77 47 51 56 77 195 43 223 -20 16
-368 22 -605 10z"/>
</g>
</svg>
