<?xml version="1.0" standalone="no"?>
<!DOCTYPE svg PUBLIC "-//W3C//DTD SVG 20010904//EN"
 "http://www.w3.org/TR/2001/REC-SVG-20010904/DTD/svg10.dtd">
<svg version="1.0" xmlns="http://www.w3.org/2000/svg"
 width="848.000000pt" height="848.000000pt" viewBox="0 0 848.000000 848.000000"
 preserveAspectRatio="xMidYMid meet">
<metadata>
Created by potrace 1.16, written by Peter Selinger 2001-2019
</metadata>
<g transform="translate(0.000000,848.000000) scale(0.100000,-0.100000)"
fill="#000000" stroke="none">
<path d="M4135 6914 c-38 -14 -121 -43 -184 -63 -127 -41 -138 -52 -125 -126
5 -32 8 -36 14 -20 6 16 9 17 13 5 14 -40 17 -73 7 -85 -8 -10 -8 -36 0 -95
14 -105 24 -128 56 -140 21 -8 24 -13 14 -25 -17 -21 5 -55 36 -55 14 0 23 -4
20 -9 -3 -5 -15 -7 -26 -4 -26 7 -26 -13 0 -27 11 -6 20 -19 20 -30 0 -10 12
-33 27 -50 26 -31 28 -32 87 -26 34 4 101 9 149 12 92 7 102 13 110 63 2 11
12 30 22 41 16 17 17 26 8 50 -9 24 -7 31 10 48 13 14 24 48 34 103 8 45 21
92 29 103 17 25 19 142 3 215 -6 30 -22 62 -37 79 -27 28 -36 31 -192 58 -14
2 -56 -8 -95 -22z m4 -164 c12 -33 26 -60 31 -60 4 0 22 8 38 17 35 20 54 10
71 -38 l10 -29 -140 0 -140 0 7 23 c4 12 11 33 16 47 9 24 10 24 24 6 8 -11
14 -24 14 -29 0 -4 4 -6 9 -3 5 4 12 30 16 59 12 85 15 86 44 7z"/>
</g>
</svg>
