<?xml version="1.0" standalone="no"?>
<!DOCTYPE svg PUBLIC "-//W3C//DTD SVG 20010904//EN"
 "http://www.w3.org/TR/2001/REC-SVG-20010904/DTD/svg10.dtd">
<svg version="1.0" xmlns="http://www.w3.org/2000/svg"
 width="848.000000pt" height="848.000000pt" viewBox="0 0 848.000000 848.000000"
 preserveAspectRatio="xMidYMid meet">
<metadata>
Created by potrace 1.16, written by Peter Selinger 2001-2019
</metadata>
<g transform="translate(0.000000,848.000000) scale(0.100000,-0.100000)"
fill="#000000" stroke="none">
<path d="M4055 2351 c-11 -4 -31 -12 -45 -18 -14 -6 -38 -14 -53 -18 -38 -8
-51 -43 -72 -185 -9 -63 -32 -195 -51 -294 -19 -98 -32 -181 -29 -185 4 -3 97
-5 208 -5 187 2 219 5 422 41 l220 39 -3 39 c-2 22 -13 83 -24 135 -11 52 -23
118 -27 146 -4 28 -15 63 -24 77 -10 15 -89 74 -177 132 l-159 105 -83 -1
c-46 -1 -92 -4 -103 -8z"/>
</g>
</svg>
