<?xml version="1.0" standalone="no"?>
<!DOCTYPE svg PUBLIC "-//W3C//DTD SVG 20010904//EN"
 "http://www.w3.org/TR/2001/REC-SVG-20010904/DTD/svg10.dtd">
<svg version="1.0" xmlns="http://www.w3.org/2000/svg"
 width="848.000000pt" height="848.000000pt" viewBox="0 0 848.000000 848.000000"
 preserveAspectRatio="xMidYMid meet">
<metadata>
Created by potrace 1.16, written by Peter Selinger 2001-2019
</metadata>
<g transform="translate(0.000000,848.000000) scale(0.100000,-0.100000)"
fill="#000000" stroke="none">
<path d="M4515 1673 c-16 -2 -88 -15 -160 -29 -71 -14 -171 -28 -223 -31 l-93
-6 -37 -45 c-41 -50 -50 -92 -51 -247 -1 -78 4 -104 36 -200 l36 -109 -35 -66
c-52 -96 -63 -248 -20 -265 10 -4 71 -11 137 -17 125 -11 380 4 609 37 134 19
133 17 112 152 -9 59 -28 158 -41 218 -14 61 -32 157 -41 215 -34 228 -64 375
-81 388 -16 11 -82 14 -148 5z m-59 -767 c28 -28 34 -42 34 -76 0 -73 -76
-127 -141 -100 -44 19 -69 56 -69 104 0 68 37 104 109 105 25 1 41 -7 67 -33z"/>
</g>
</svg>
