<?xml version="1.0" standalone="no"?>
<!DOCTYPE svg PUBLIC "-//W3C//DTD SVG 20010904//EN"
 "http://www.w3.org/TR/2001/REC-SVG-20010904/DTD/svg10.dtd">
<svg version="1.0" xmlns="http://www.w3.org/2000/svg"
 width="848.000000pt" height="848.000000pt" viewBox="0 0 848.000000 848.000000"
 preserveAspectRatio="xMidYMid meet">
<metadata>
Created by potrace 1.16, written by Peter Selinger 2001-2019
</metadata>
<g transform="translate(0.000000,848.000000) scale(0.100000,-0.100000)"
fill="#000000" stroke="none">
<path d="M4463 3651 c-104 -70 -100 -36 -43 -367 60 -341 176 -975 193 -1054
8 -36 18 -56 28 -58 23 -4 96 72 165 170 32 46 75 105 97 132 50 64 79 123
106 212 27 91 26 127 -3 189 -50 107 -467 815 -480 815 -2 0 -30 -18 -63 -39z"/>
</g>
</svg>
