<?xml version="1.0" standalone="no"?>
<!DOCTYPE svg PUBLIC "-//W3C//DTD SVG 20010904//EN"
 "http://www.w3.org/TR/2001/REC-SVG-20010904/DTD/svg10.dtd">
<svg version="1.0" xmlns="http://www.w3.org/2000/svg"
 width="848.000000pt" height="848.000000pt" viewBox="0 0 848.000000 848.000000"
 preserveAspectRatio="xMidYMid meet">
<metadata>
Created by potrace 1.16, written by Peter Selinger 2001-2019
</metadata>
<g transform="translate(0.000000,848.000000) scale(0.100000,-0.100000)"
fill="#000000" stroke="none">
<path d="M5300 2475 c0 -16 107 -210 226 -410 65 -110 147 -249 181 -310 35
-60 69 -115 76 -120 6 -6 37 -59 67 -119 30 -59 87 -160 125 -225 93 -154 87
-153 280 -33 59 37 60 38 67 92 3 30 6 101 7 158 l1 102 -47 0 c-59 0 -169 17
-205 31 -34 14 -77 96 -113 213 -25 84 -31 94 -93 156 -48 46 -95 80 -162 115
-84 44 -113 67 -252 204 -87 85 -158 151 -158 146z"/>
</g>
</svg>
