<?xml version="1.0" standalone="no"?>
<!DOCTYPE svg PUBLIC "-//W3C//DTD SVG 20010904//EN"
 "http://www.w3.org/TR/2001/REC-SVG-20010904/DTD/svg10.dtd">
<svg version="1.0" xmlns="http://www.w3.org/2000/svg"
 width="848.000000pt" height="848.000000pt" viewBox="0 0 848.000000 848.000000"
 preserveAspectRatio="xMidYMid meet">
<metadata>
Created by potrace 1.16, written by Peter Selinger 2001-2019
</metadata>
<g transform="translate(0.000000,848.000000) scale(0.100000,-0.100000)"
fill="#000000" stroke="none">
<path d="M4148 3568 c-11 -9 -27 -74 -52 -218 -42 -243 -74 -441 -86 -536 -4
-38 -24 -145 -44 -239 -43 -205 -44 -225 -13 -225 12 0 42 9 66 20 32 15 65
20 132 20 l88 0 148 -95 c81 -52 156 -95 165 -95 14 0 16 6 13 28 -3 15 -21
122 -41 237 -19 116 -44 242 -54 280 -10 39 -28 131 -40 205 -46 299 -104 603
-118 616 -17 18 -142 19 -164 2z"/>
</g>
</svg>
