<?xml version="1.0" standalone="no"?>
<!DOCTYPE svg PUBLIC "-//W3C//DTD SVG 20010904//EN"
 "http://www.w3.org/TR/2001/REC-SVG-20010904/DTD/svg10.dtd">
<svg version="1.0" xmlns="http://www.w3.org/2000/svg"
 width="848.000000pt" height="848.000000pt" viewBox="0 0 848.000000 848.000000"
 preserveAspectRatio="xMidYMid meet">
<metadata>
Created by potrace 1.16, written by Peter Selinger 2001-2019
</metadata>
<g transform="translate(0.000000,848.000000) scale(0.100000,-0.100000)"
fill="#000000" stroke="none">
<path d="M2908 4057 l-106 -9 -17 -44 c-14 -37 -25 -48 -87 -81 -39 -21 -80
-50 -91 -64 -23 -32 -35 -146 -19 -175 6 -11 12 -13 12 -6 0 6 8 12 18 12 21
0 238 72 360 119 l82 32 0 115 c0 112 0 114 -22 112 -13 0 -71 -5 -130 -11z"/>
</g>
</svg>
