<?xml version="1.0" standalone="no"?>
<!DOCTYPE svg PUBLIC "-//W3C//DTD SVG 20010904//EN"
 "http://www.w3.org/TR/2001/REC-SVG-20010904/DTD/svg10.dtd">
<svg version="1.0" xmlns="http://www.w3.org/2000/svg"
 width="848.000000pt" height="848.000000pt" viewBox="0 0 848.000000 848.000000"
 preserveAspectRatio="xMidYMid meet">
<metadata>
Created by potrace 1.16, written by Peter Selinger 2001-2019
</metadata>
<g transform="translate(0.000000,848.000000) scale(0.100000,-0.100000)"
fill="#000000" stroke="none">
<path d="M4713 4032 c-7 -4 -20 -26 -29 -47 l-16 -40 51 -46 c29 -25 67 -55
86 -65 19 -10 35 -25 35 -32 0 -17 24 -10 112 34 85 43 98 63 58 92 -16 12
-34 22 -40 22 -7 0 -63 20 -126 45 -128 51 -115 47 -131 37z"/>
</g>
</svg>
