<?xml version="1.0" standalone="no"?>
<!DOCTYPE svg PUBLIC "-//W3C//DTD SVG 20010904//EN"
 "http://www.w3.org/TR/2001/REC-SVG-20010904/DTD/svg10.dtd">
<svg version="1.0" xmlns="http://www.w3.org/2000/svg"
 width="848.000000pt" height="848.000000pt" viewBox="0 0 848.000000 848.000000"
 preserveAspectRatio="xMidYMid meet">
<metadata>
Created by potrace 1.16, written by Peter Selinger 2001-2019
</metadata>
<g transform="translate(0.000000,848.000000) scale(0.100000,-0.100000)"
fill="#000000" stroke="none">
<path d="M2875 3060 c-5 -6 -45 -37 -87 -70 -97 -75 -345 -287 -414 -354 l-53
-51 50 -119 c33 -80 56 -154 68 -224 14 -77 25 -109 42 -128 35 -38 117 -74
167 -74 l45 0 -7 93 c-3 50 -8 153 -12 227 l-6 135 76 82 76 82 34 168 c18 92
37 185 40 206 7 36 1 45 -19 27z"/>
</g>
</svg>
