<?xml version="1.0" standalone="no"?>
<!DOCTYPE svg PUBLIC "-//W3C//DTD SVG 20010904//EN"
 "http://www.w3.org/TR/2001/REC-SVG-20010904/DTD/svg10.dtd">
<svg version="1.0" xmlns="http://www.w3.org/2000/svg"
 width="848.000000pt" height="848.000000pt" viewBox="0 0 848.000000 848.000000"
 preserveAspectRatio="xMidYMid meet">
<metadata>
Created by potrace 1.16, written by Peter Selinger 2001-2019
</metadata>
<g transform="translate(0.000000,848.000000) scale(0.100000,-0.100000)"
fill="#000000" stroke="none">
<path d="M6965 6489 c-127 -96 -174 -153 -250 -298 -55 -106 -84 -150 -142
-211 l-73 -77 16 -49 c27 -81 40 -89 149 -89 l94 0 40 -39 40 -40 103 32 c57
18 106 32 111 32 4 0 25 -11 47 -25 22 -14 44 -25 49 -25 6 0 36 18 67 40 40
28 68 40 92 40 52 0 158 20 177 34 14 10 11 22 -30 105 -25 52 -70 132 -100
178 -30 45 -62 97 -71 115 -24 48 -224 316 -239 322 -8 3 -43 -18 -80 -45z"/>
</g>
</svg>
