<?xml version="1.0" standalone="no"?>
<!DOCTYPE svg PUBLIC "-//W3C//DTD SVG 20010904//EN"
 "http://www.w3.org/TR/2001/REC-SVG-20010904/DTD/svg10.dtd">
<svg version="1.0" xmlns="http://www.w3.org/2000/svg"
 width="848.000000pt" height="848.000000pt" viewBox="0 0 848.000000 848.000000"
 preserveAspectRatio="xMidYMid meet">
<metadata>
Created by potrace 1.16, written by Peter Selinger 2001-2019
</metadata>
<g transform="translate(0.000000,848.000000) scale(0.100000,-0.100000)"
fill="#000000" stroke="none">
<path d="M2059 3726 c-2 -3 -87 -14 -189 -26 -102 -12 -246 -33 -320 -46 -194
-34 -384 -31 -683 12 l-107 15 -43 -23 c-40 -23 -42 -26 -39 -63 4 -55 65
-307 104 -434 24 -77 38 -106 53 -113 24 -11 135 27 690 234 176 66 348 130
383 143 35 12 69 30 75 38 7 8 32 17 57 20 43 4 364 114 424 144 l29 15 -24
19 c-34 25 -96 39 -181 39 -40 1 -100 7 -133 15 -62 15 -89 18 -96 11z"/>
</g>
</svg>
