<?xml version="1.0" standalone="no"?>
<!DOCTYPE svg PUBLIC "-//W3C//DTD SVG 20010904//EN"
 "http://www.w3.org/TR/2001/REC-SVG-20010904/DTD/svg10.dtd">
<svg version="1.0" xmlns="http://www.w3.org/2000/svg"
 width="848.000000pt" height="848.000000pt" viewBox="0 0 848.000000 848.000000"
 preserveAspectRatio="xMidYMid meet">
<metadata>
Created by potrace 1.16, written by Peter Selinger 2001-2019
</metadata>
<g transform="translate(0.000000,848.000000) scale(0.100000,-0.100000)"
fill="#000000" stroke="none">
<path d="M1591 3249 c-74 -20 -279 -92 -584 -205 l-158 -58 7 -31 c27 -126
256 -565 391 -750 204 -280 204 -280 235 -264 27 15 250 206 266 228 14 21 11
25 -170 225 -93 102 -98 110 -127 199 -16 51 -34 118 -41 149 l-11 58 43 81
c24 45 52 87 63 95 28 18 193 64 229 64 41 0 184 -40 200 -56 8 -7 24 -55 36
-106 26 -102 54 -177 105 -278 56 -110 50 -108 129 -46 l69 53 -2 89 -2 89 37
25 36 24 -6 66 c-8 71 -32 118 -76 143 -42 25 -240 104 -319 127 -42 12 -91
35 -112 52 -63 51 -123 58 -238 27z"/>
</g>
</svg>
