<?xml version="1.0" standalone="no"?>
<!DOCTYPE svg PUBLIC "-//W3C//DTD SVG 20010904//EN"
 "http://www.w3.org/TR/2001/REC-SVG-20010904/DTD/svg10.dtd">
<svg version="1.0" xmlns="http://www.w3.org/2000/svg"
 width="848.000000pt" height="848.000000pt" viewBox="0 0 848.000000 848.000000"
 preserveAspectRatio="xMidYMid meet">
<metadata>
Created by potrace 1.16, written by Peter Selinger 2001-2019
</metadata>
<g transform="translate(0.000000,848.000000) scale(0.100000,-0.100000)"
fill="#000000" stroke="none">
<path d="M3699 6554 c-84 -41 -97 -45 -125 -35 -42 15 -84 14 -187 -5 l-89
-16 -109 -90 -110 -90 42 -76 c95 -175 286 -496 315 -530 17 -21 34 -48 39
-62 16 -55 377 -704 411 -740 12 -12 14 -5 14 55 0 73 -18 126 -61 187 -21 29
-22 36 -16 242 7 236 12 265 68 388 l39 88 -55 316 c-55 312 -74 414 -79 414
-1 0 -45 -21 -97 -46z"/>
</g>
</svg>
