<?xml version="1.0" standalone="no"?>
<!DOCTYPE svg PUBLIC "-//W3C//DTD SVG 20010904//EN"
 "http://www.w3.org/TR/2001/REC-SVG-20010904/DTD/svg10.dtd">
<svg version="1.0" xmlns="http://www.w3.org/2000/svg"
 width="848.000000pt" height="848.000000pt" viewBox="0 0 848.000000 848.000000"
 preserveAspectRatio="xMidYMid meet">
<metadata>
Created by potrace 1.16, written by Peter Selinger 2001-2019
</metadata>
<g transform="translate(0.000000,848.000000) scale(0.100000,-0.100000)"
fill="#000000" stroke="none">
<path d="M6260 6586 c-19 -7 -62 -26 -95 -41 -33 -15 -91 -38 -130 -51 -164
-53 -251 -86 -266 -100 -9 -8 -28 -43 -43 -77 -22 -49 -41 -74 -93 -117 -35
-30 -77 -73 -92 -95 -15 -22 -59 -62 -98 -90 l-71 -50 -53 -135 c-65 -167 -81
-218 -69 -225 12 -7 107 40 340 170 102 57 203 108 225 115 66 20 115 47 207
115 64 47 89 72 93 92 12 56 38 99 146 239 l109 143 0 61 0 60 -37 0 c-21 -1
-54 -7 -73 -14z"/>
</g>
</svg>
