<?xml version="1.0" standalone="no"?>
<!DOCTYPE svg PUBLIC "-//W3C//DTD SVG 20010904//EN"
 "http://www.w3.org/TR/2001/REC-SVG-20010904/DTD/svg10.dtd">
<svg version="1.0" xmlns="http://www.w3.org/2000/svg"
 width="848.000000pt" height="848.000000pt" viewBox="0 0 848.000000 848.000000"
 preserveAspectRatio="xMidYMid meet">
<metadata>
Created by potrace 1.16, written by Peter Selinger 2001-2019
</metadata>
<g transform="translate(0.000000,848.000000) scale(0.100000,-0.100000)"
fill="#000000" stroke="none">
<path d="M3802 1601 c-21 -13 -129 -644 -139 -813 l-6 -86 69 -7 c38 -3 88
-12 112 -19 28 -9 45 -10 49 -3 3 5 10 50 14 99 8 85 26 139 66 200 17 27 17
30 -21 144 -37 112 -38 120 -32 213 11 166 16 188 47 227 22 28 26 39 17 46
-17 10 -159 10 -176 -1z"/>
</g>
</svg>
