<?xml version="1.0" standalone="no"?>
<!DOCTYPE svg PUBLIC "-//W3C//DTD SVG 20010904//EN"
 "http://www.w3.org/TR/2001/REC-SVG-20010904/DTD/svg10.dtd">
<svg version="1.0" xmlns="http://www.w3.org/2000/svg"
 width="848.000000pt" height="848.000000pt" viewBox="0 0 848.000000 848.000000"
 preserveAspectRatio="xMidYMid meet">
<metadata>
Created by potrace 1.16, written by Peter Selinger 2001-2019
</metadata>
<g transform="translate(0.000000,848.000000) scale(0.100000,-0.100000)"
fill="#000000" stroke="none">
<path d="M1856 6174 c-9 -23 9 -84 59 -199 23 -55 46 -111 50 -125 8 -28 26
-70 61 -146 13 -28 24 -57 24 -64 0 -20 -79 -277 -102 -329 -10 -25 -32 -57
-48 -71 -16 -14 -32 -37 -36 -52 -8 -35 -3 -38 320 -155 475 -173 1040 -375
1100 -395 71 -22 73 -21 183 85 81 78 81 82 11 118 -21 11 -38 23 -38 27 0 12
-160 147 -204 173 -20 11 -36 25 -36 29 0 4 -28 30 -62 57 -34 26 -94 77 -133
113 -40 36 -92 79 -116 97 -25 17 -64 51 -89 74 -69 64 -364 317 -464 397 -74
59 -96 72 -126 72 -34 0 -36 2 -47 43 -10 36 -26 55 -105 121 -51 44 -111 91
-133 105 -22 14 -41 29 -43 34 -6 12 -20 8 -26 -9z"/>
</g>
</svg>
