<?xml version="1.0" standalone="no"?>
<!DOCTYPE svg PUBLIC "-//W3C//DTD SVG 20010904//EN"
 "http://www.w3.org/TR/2001/REC-SVG-20010904/DTD/svg10.dtd">
<svg version="1.0" xmlns="http://www.w3.org/2000/svg"
 width="848.000000pt" height="848.000000pt" viewBox="0 0 848.000000 848.000000"
 preserveAspectRatio="xMidYMid meet">
<metadata>
Created by potrace 1.16, written by Peter Selinger 2001-2019
</metadata>
<g transform="translate(0.000000,848.000000) scale(0.100000,-0.100000)"
fill="#000000" stroke="none">
<path d="M1438 6529 c-20 -11 -136 -164 -206 -272 -50 -76 -51 -80 -37 -107
16 -30 85 -94 125 -115 14 -7 43 -15 65 -19 40 -6 40 -6 177 119 l137 125 57
-25 c32 -14 62 -24 68 -22 13 4 -69 84 -216 207 -135 114 -147 122 -170 109z"/>
</g>
</svg>
