<?xml version="1.0" standalone="no"?>
<!DOCTYPE svg PUBLIC "-//W3C//DTD SVG 20010904//EN"
 "http://www.w3.org/TR/2001/REC-SVG-20010904/DTD/svg10.dtd">
<svg version="1.0" xmlns="http://www.w3.org/2000/svg"
 width="848.000000pt" height="848.000000pt" viewBox="0 0 848.000000 848.000000"
 preserveAspectRatio="xMidYMid meet">
<metadata>
Created by potrace 1.16, written by Peter Selinger 2001-2019
</metadata>
<g transform="translate(0.000000,848.000000) scale(0.100000,-0.100000)"
fill="#000000" stroke="none">
<path d="M6588 6168 c-83 -66 -409 -339 -568 -478 -80 -70 -260 -220 -400
-335 -272 -222 -560 -467 -598 -507 -22 -24 -22 -25 -4 -48 l18 -22 40 20 c21
11 74 45 118 76 122 88 213 126 302 126 40 0 45 3 76 49 44 66 122 128 243
193 82 45 104 62 123 96 13 24 40 51 66 66 63 37 111 98 148 189 18 44 46 95
63 113 16 19 111 101 209 182 165 135 183 153 218 217 21 39 38 77 38 85 0 29
-39 19 -92 -22z"/>
</g>
</svg>
