<?xml version="1.0" standalone="no"?>
<!DOCTYPE svg PUBLIC "-//W3C//DTD SVG 20010904//EN"
 "http://www.w3.org/TR/2001/REC-SVG-20010904/DTD/svg10.dtd">
<svg version="1.0" xmlns="http://www.w3.org/2000/svg"
 width="848.000000pt" height="848.000000pt" viewBox="0 0 848.000000 848.000000"
 preserveAspectRatio="xMidYMid meet">
<metadata>
Created by potrace 1.16, written by Peter Selinger 2001-2019
</metadata>
<g transform="translate(0.000000,848.000000) scale(0.100000,-0.100000)"
fill="#000000" stroke="none">
<path d="M6620 6879 c-87 -65 -159 -140 -186 -192 -15 -29 -29 -80 -35 -130
-6 -49 -18 -95 -30 -114 l-21 -33 124 0 c89 0 144 -6 198 -20 l75 -19 35 24
c49 34 176 147 200 178 l20 26 -76 83 c-75 82 -234 237 -244 238 -3 0 -30 -19
-60 -41z"/>
</g>
</svg>
