<?xml version="1.0" standalone="no"?>
<!DOCTYPE svg PUBLIC "-//W3C//DTD SVG 20010904//EN"
 "http://www.w3.org/TR/2001/REC-SVG-20010904/DTD/svg10.dtd">
<svg version="1.0" xmlns="http://www.w3.org/2000/svg"
 width="848.000000pt" height="848.000000pt" viewBox="0 0 848.000000 848.000000"
 preserveAspectRatio="xMidYMid meet">
<metadata>
Created by potrace 1.16, written by Peter Selinger 2001-2019
</metadata>
<g transform="translate(0.000000,848.000000) scale(0.100000,-0.100000)"
fill="#000000" stroke="none">
<path d="M7284 3075 c-23 -56 -42 -151 -54 -277 -11 -112 -13 -121 -63 -215
-57 -107 -136 -194 -315 -347 l-93 -79 32 -33 c17 -18 58 -47 90 -64 36 -19
65 -43 74 -60 8 -16 24 -34 34 -40 21 -11 43 9 146 130 99 117 255 376 255
424 0 12 11 33 24 45 25 24 54 79 145 277 74 160 77 152 -76 212 -181 70 -181
70 -199 27z m187 -104 c24 -24 29 -38 29 -76 0 -64 -39 -105 -100 -105 -52 0
-76 13 -95 50 -25 47 -19 84 19 124 28 30 40 36 75 36 34 0 49 -6 72 -29z"/>
</g>
</svg>
