<?xml version="1.0" standalone="no"?>
<!DOCTYPE svg PUBLIC "-//W3C//DTD SVG 20010904//EN"
 "http://www.w3.org/TR/2001/REC-SVG-20010904/DTD/svg10.dtd">
<svg version="1.0" xmlns="http://www.w3.org/2000/svg"
 width="848.000000pt" height="848.000000pt" viewBox="0 0 848.000000 848.000000"
 preserveAspectRatio="xMidYMid meet">
<metadata>
Created by potrace 1.16, written by Peter Selinger 2001-2019
</metadata>
<g transform="translate(0.000000,848.000000) scale(0.100000,-0.100000)"
fill="#000000" stroke="none">
<path d="M6641 2070 c-81 -70 -86 -77 -113 -174 -26 -96 -74 -190 -120 -238
l-38 -40 0 -128 c0 -79 4 -131 10 -135 14 -8 72 37 275 212 142 123 315 306
315 334 0 18 -53 59 -76 59 -15 0 -28 10 -38 28 -8 15 -36 48 -63 73 -83 78
-73 78 -152 9z"/>
</g>
</svg>
