<?xml version="1.0" standalone="no"?>
<!DOCTYPE svg PUBLIC "-//W3C//DTD SVG 20010904//EN"
 "http://www.w3.org/TR/2001/REC-SVG-20010904/DTD/svg10.dtd">
<svg version="1.0" xmlns="http://www.w3.org/2000/svg"
 width="848.000000pt" height="848.000000pt" viewBox="0 0 848.000000 848.000000"
 preserveAspectRatio="xMidYMid meet">
<metadata>
Created by potrace 1.16, written by Peter Selinger 2001-2019
</metadata>
<g transform="translate(0.000000,848.000000) scale(0.100000,-0.100000)"
fill="#000000" stroke="none">
<path d="M5735 5178 c-61 -43 -138 -124 -156 -164 l-19 -41 -62 0 c-90 1 -152
-24 -292 -116 -68 -45 -132 -87 -142 -93 -18 -11 -16 -16 30 -83 26 -39 52
-74 57 -76 11 -7 219 70 289 106 30 16 69 29 85 29 17 0 49 9 71 19 l41 19 -4
48 c-3 35 0 55 11 69 13 17 17 18 25 5 6 -8 13 -32 16 -52 4 -21 10 -40 15
-43 4 -3 37 5 72 18 75 26 80 39 49 122 -15 40 -21 79 -21 140 0 122 -8 134
-65 93z"/>
</g>
</svg>
