<?xml version="1.0" standalone="no"?>
<!DOCTYPE svg PUBLIC "-//W3C//DTD SVG 20010904//EN"
 "http://www.w3.org/TR/2001/REC-SVG-20010904/DTD/svg10.dtd">
<svg version="1.0" xmlns="http://www.w3.org/2000/svg"
 width="848.000000pt" height="848.000000pt" viewBox="0 0 848.000000 848.000000"
 preserveAspectRatio="xMidYMid meet">
<metadata>
Created by potrace 1.16, written by Peter Selinger 2001-2019
</metadata>
<g transform="translate(0.000000,848.000000) scale(0.100000,-0.100000)"
fill="#000000" stroke="none">
<path d="M3741 3811 c-8 -5 -17 -29 -20 -53 l-6 -43 -42 3 c-39 3 -46 -1 -145
-87 -56 -49 -116 -102 -132 -117 l-29 -26 23 -18 c23 -18 23 -18 2 -24 -11 -4
-29 -2 -40 5 -17 11 -26 6 -72 -32 l-52 -44 7 -145 7 -145 60 -115 c32 -63 66
-124 75 -135 15 -20 15 -20 36 8 28 36 458 771 502 858 19 37 31 69 28 73 -4
3 -19 6 -35 6 -16 0 -54 9 -85 20 -66 23 -63 23 -82 11z"/>
</g>
</svg>
