<?xml version="1.0" standalone="no"?>
<!DOCTYPE svg PUBLIC "-//W3C//DTD SVG 20010904//EN"
 "http://www.w3.org/TR/2001/REC-SVG-20010904/DTD/svg10.dtd">
<svg version="1.0" xmlns="http://www.w3.org/2000/svg"
 width="848.000000pt" height="848.000000pt" viewBox="0 0 848.000000 848.000000"
 preserveAspectRatio="xMidYMid meet">
<metadata>
Created by potrace 1.16, written by Peter Selinger 2001-2019
</metadata>
<g transform="translate(0.000000,848.000000) scale(0.100000,-0.100000)"
fill="#000000" stroke="none">
<path d="M3935 3710 c-11 -25 -34 -65 -51 -90 -46 -67 -76 -130 -70 -146 3 -8
-1 -14 -9 -14 -8 0 -29 -28 -46 -62 -17 -35 -57 -101 -87 -148 -57 -87 -92
-153 -92 -174 0 -7 -14 -22 -30 -35 -17 -12 -39 -39 -48 -59 -9 -20 -25 -43
-34 -50 -10 -7 -18 -24 -18 -37 0 -13 -9 -33 -21 -44 -20 -18 -20 -20 -3 -29
17 -9 16 -13 -12 -59 -18 -29 -38 -49 -51 -51 -28 -4 -55 -35 -59 -67 -1 -14
-8 -32 -14 -40 -7 -8 -9 -15 -5 -15 4 0 -11 -18 -33 -39 -26 -25 -43 -53 -47
-75 -4 -19 -13 -37 -21 -40 -7 -3 -11 -12 -8 -21 4 -10 0 -15 -10 -15 -12 0
-16 -8 -14 -27 2 -39 -71 -169 -137 -243 -12 -14 -26 -38 -29 -55 -13 -56 -75
-153 -125 -194 -36 -30 -54 -55 -65 -89 -9 -26 -35 -79 -57 -117 -101 -172
-172 -311 -223 -440 -31 -76 -54 -141 -51 -143 2 -3 11 0 18 6 11 9 19 6 37
-13 14 -15 35 -25 52 -25 17 0 38 -9 51 -23 12 -13 37 -27 56 -30 54 -11 224
-86 243 -108 10 -12 29 -19 51 -19 18 0 60 -9 93 -20 32 -12 93 -29 135 -40
41 -11 100 -31 131 -44 96 -42 287 -72 302 -47 3 5 1 23 -5 40 -10 27 -8 35 7
53 15 16 19 36 19 92 0 53 5 78 19 98 15 23 17 38 11 86 -5 49 -3 61 14 83 13
17 17 30 10 40 -15 24 -10 57 13 73 19 14 19 16 5 22 -21 8 -22 22 -1 45 9 10
16 35 17 56 0 21 5 44 10 51 5 6 6 12 2 12 -5 0 0 8 9 19 16 17 16 21 0 61
-13 31 -26 46 -51 56 -18 8 -33 18 -33 23 0 13 27 21 45 15 8 -4 27 -3 41 0
23 6 26 11 20 37 -3 17 0 40 6 52 7 12 11 26 10 31 -2 4 3 14 9 22 7 8 9 29 6
48 -4 24 -1 39 9 47 8 6 14 18 14 26 0 7 7 25 16 39 15 23 15 26 0 42 -11 13
-13 21 -5 29 6 6 12 21 14 34 2 13 11 54 21 91 16 62 16 69 1 85 -10 12 -13
28 -10 47 7 33 -8 46 -52 46 -44 0 -10 20 35 20 57 1 63 9 55 82 -6 56 -5 66
10 71 11 5 14 13 10 26 -3 11 1 24 10 31 11 9 14 22 10 37 -3 15 0 30 10 39
19 19 19 41 0 78 -18 34 -12 62 14 69 13 3 20 17 24 53 3 27 1 56 -3 65 -6 9
-5 20 1 26 6 6 12 30 14 54 2 24 4 46 5 49 1 3 2 9 1 14 -1 4 4 15 10 23 7 8
14 39 15 70 2 31 9 60 15 64 8 4 5 10 -7 17 -18 10 -18 11 -1 30 12 13 15 28
11 49 -4 23 -2 32 11 37 15 5 15 9 4 22 -11 13 -10 18 10 33 20 15 21 19 8 30
-14 11 -14 16 -1 47 8 19 12 40 8 46 -4 6 0 17 10 23 14 11 15 14 1 25 -8 7
-23 31 -34 54 -10 23 -30 61 -45 84 -26 42 -28 43 -51 28 -22 -15 -24 -14 -27
7 -2 18 -7 13 -23 -23z"/>
</g>
</svg>
