<?xml version="1.0" standalone="no"?>
<!DOCTYPE svg PUBLIC "-//W3C//DTD SVG 20010904//EN"
 "http://www.w3.org/TR/2001/REC-SVG-20010904/DTD/svg10.dtd">
<svg version="1.0" xmlns="http://www.w3.org/2000/svg"
 width="848.000000pt" height="848.000000pt" viewBox="0 0 848.000000 848.000000"
 preserveAspectRatio="xMidYMid meet">
<metadata>
Created by potrace 1.16, written by Peter Selinger 2001-2019
</metadata>
<g transform="translate(0.000000,848.000000) scale(0.100000,-0.100000)"
fill="#000000" stroke="none">
<path d="M4112 3594 c-18 -21 -22 -35 -17 -58 18 -89 18 -94 -5 -106 -18 -9
-19 -14 -9 -27 11 -12 10 -17 -5 -25 -14 -8 -15 -13 -5 -24 15 -18 5 -108 -15
-139 -8 -12 -13 -36 -12 -54 1 -21 -6 -43 -21 -63 -21 -29 -21 -33 -7 -49 11
-12 12 -19 4 -24 -6 -4 -9 -14 -6 -22 3 -8 0 -24 -8 -36 -19 -31 -30 -115 -17
-131 8 -10 6 -18 -9 -31 -14 -13 -17 -22 -10 -35 8 -14 5 -19 -12 -23 -21 -6
-21 -7 -5 -25 16 -17 16 -20 2 -32 -15 -12 -15 -14 0 -23 15 -8 15 -10 -1 -28
-13 -14 -14 -22 -5 -32 8 -11 6 -18 -9 -32 -15 -13 -17 -22 -10 -36 16 -29 12
-64 -10 -84 -14 -13 -17 -22 -10 -35 6 -10 5 -21 -1 -27 -20 -20 2 -43 43 -43
27 0 38 -4 36 -12 -4 -12 -24 -19 -89 -32 -18 -4 -28 -14 -31 -31 -3 -14 -2
-28 2 -30 9 -5 6 -62 -3 -72 -4 -3 -2 -12 4 -20 9 -10 8 -18 -6 -33 -14 -15
-15 -23 -6 -33 9 -11 8 -17 -5 -27 -9 -8 -13 -22 -10 -36 4 -13 0 -27 -9 -34
-13 -11 -13 -14 2 -26 17 -12 17 -13 0 -19 -15 -6 -16 -15 -11 -58 6 -42 4
-52 -12 -64 -16 -11 -17 -17 -6 -33 10 -17 9 -26 -4 -52 -9 -17 -18 -44 -21
-58 -3 -25 -1 -28 37 -33 23 -3 45 -8 48 -12 11 -11 -22 -25 -59 -25 -34 0
-35 -2 -31 -29 4 -29 -21 -94 -46 -120 -10 -10 -13 -29 -9 -58 2 -24 1 -46 -4
-49 -5 -3 -5 -13 1 -24 7 -12 7 -21 0 -25 -5 -3 -7 -25 -4 -48 5 -32 2 -46 -9
-56 -13 -10 -14 -17 -5 -31 10 -15 8 -22 -12 -38 -21 -17 -23 -22 -11 -36 12
-14 11 -18 -4 -30 -15 -11 -16 -15 -4 -33 18 -30 -3 -161 -37 -231 -40 -82
-28 -93 119 -111 48 -5 96 -15 108 -21 18 -10 22 -7 36 29 16 42 43 56 43 23
0 -45 19 -52 168 -64 110 -8 158 -8 210 1 37 7 74 12 82 11 57 -5 176 3 237
16 41 8 77 13 81 10 4 -2 29 0 56 6 37 8 52 17 65 39 9 16 22 29 29 29 17 0
15 18 -7 46 -11 14 -17 33 -14 44 3 11 0 20 -6 20 -6 0 -8 11 -5 29 4 17 1 32
-5 36 -9 5 -9 10 -1 20 7 9 9 23 4 37 -4 13 -8 28 -9 33 -1 13 -14 45 -26 68
-6 11 -6 24 1 37 14 26 13 27 -17 44 -21 11 -23 15 -10 16 16 0 16 2 -4 29
-17 24 -20 38 -15 77 9 82 1 151 -22 177 -8 9 -12 20 -9 23 3 4 -1 20 -9 37
-11 19 -14 42 -10 66 13 79 15 76 -37 81 -26 3 -48 9 -48 14 0 4 15 15 33 25
28 13 32 21 30 46 -2 16 -8 35 -14 42 -5 7 -7 21 -3 32 3 10 1 22 -5 26 -6 3
-8 11 -5 16 4 5 -3 21 -14 35 -25 32 -26 47 -6 64 14 12 14 15 -1 31 -12 13
-13 22 -5 38 9 16 8 22 -8 31 -11 5 -29 24 -41 40 l-22 30 31 6 c35 7 39 19
13 33 -15 8 -18 20 -17 61 2 27 -1 53 -7 56 -5 3 -6 14 -3 24 3 10 1 21 -5 25
-6 4 -8 16 -5 26 4 11 1 26 -5 34 -10 12 -10 18 0 30 10 12 10 18 0 30 -6 8
-9 19 -6 24 4 5 1 13 -5 16 -5 4 -8 13 -5 21 3 7 1 16 -5 20 -6 4 -6 11 2 20
13 16 -2 64 -20 64 -13 0 -6 53 8 58 21 7 11 32 -13 32 -30 0 -42 16 -26 35 8
10 8 15 0 20 -6 4 -9 14 -6 22 4 9 -1 21 -11 28 -17 13 -17 14 1 34 13 14 16
26 10 38 -4 10 -8 23 -9 30 0 6 -8 20 -18 30 -11 13 -16 31 -13 54 2 21 -2 41
-11 51 -14 15 -13 19 2 34 16 16 16 18 -4 33 -15 11 -18 20 -11 31 6 10 4 20
-5 30 -10 11 -13 35 -11 79 2 52 -1 67 -17 82 -18 16 -18 21 -7 49 9 22 10 34
2 42 -6 6 -8 16 -6 23 3 7 -5 20 -18 29 -15 11 -17 16 -8 16 12 1 11 3 -2 11
-11 6 -18 22 -18 39 l0 30 -62 0 c-35 0 -79 3 -98 6 -29 4 -39 0 -58 -22z"/>
</g>
</svg>
