<?xml version="1.0" standalone="no"?>
<!DOCTYPE svg PUBLIC "-//W3C//DTD SVG 20010904//EN"
 "http://www.w3.org/TR/2001/REC-SVG-20010904/DTD/svg10.dtd">
<svg version="1.0" xmlns="http://www.w3.org/2000/svg"
 width="848.000000pt" height="848.000000pt" viewBox="0 0 848.000000 848.000000"
 preserveAspectRatio="xMidYMid meet">
<metadata>
Created by potrace 1.16, written by Peter Selinger 2001-2019
</metadata>
<g transform="translate(0.000000,848.000000) scale(0.100000,-0.100000)"
fill="#000000" stroke="none">
<path d="M3425 7775 c-236 -55 -538 -163 -770 -275 -154 -74 -175 -91 -175
-137 0 -54 21 -112 47 -133 l24 -19 -22 -42 -21 -43 25 17 c31 20 50 22 45 5
-3 -7 10 -34 29 -60 18 -26 33 -52 33 -56 0 -5 9 -17 20 -27 11 -10 20 -24 20
-32 0 -7 4 -13 9 -13 4 0 11 -16 14 -37 9 -56 56 -139 114 -205 35 -38 53 -68
53 -84 0 -17 7 -28 20 -31 22 -6 26 -18 8 -29 -7 -5 -5 -11 7 -21 11 -7 13
-13 6 -13 -7 0 -9 -4 -6 -10 3 -5 17 -10 31 -10 21 0 30 -11 55 -62 22 -46 28
-72 24 -95 -5 -30 -3 -33 40 -52 32 -14 45 -26 45 -40 0 -12 -7 -21 -15 -21
-8 0 -15 -2 -15 -6 0 -10 78 -119 99 -138 11 -11 21 -25 21 -33 0 -8 11 -29
25 -47 14 -18 25 -37 25 -43 0 -5 9 -18 21 -29 28 -25 52 -72 45 -90 -3 -8 5
-21 20 -31 17 -11 24 -23 21 -35 -3 -12 2 -23 14 -31 10 -6 19 -19 19 -28 0
-10 21 -29 46 -44 41 -24 44 -29 32 -42 -13 -13 -13 -19 3 -50 10 -20 28 -46
40 -59 12 -13 19 -30 16 -38 -3 -8 1 -20 8 -26 8 -7 12 -16 9 -22 -3 -5 6 -21
20 -35 14 -14 26 -35 26 -45 0 -12 9 -22 21 -25 14 -4 19 -12 16 -24 -3 -10 5
-27 19 -40 13 -12 24 -33 24 -45 0 -13 9 -28 20 -34 11 -6 20 -17 20 -24 0 -8
7 -16 15 -20 8 -3 15 -14 15 -25 0 -11 9 -25 19 -31 11 -5 43 -49 72 -97 48
-79 51 -88 41 -116 -11 -28 -9 -32 28 -67 26 -25 40 -46 40 -63 0 -14 8 -32
18 -39 9 -7 22 -24 28 -38 57 -128 61 -132 87 -106 8 8 27 16 43 18 25 3 29 7
31 38 2 19 8 58 14 86 13 56 0 118 -26 128 -9 3 -13 21 -12 59 1 32 -4 62 -12
71 -7 8 -10 24 -6 35 3 10 1 22 -5 26 -7 4 -7 12 0 25 15 27 12 66 -5 80 -8 7
-13 16 -10 20 3 4 -1 13 -9 19 -14 11 -16 122 -2 152 4 9 0 36 -7 60 -15 45
-28 93 -34 119 -10 54 -14 77 -15 90 0 8 -5 21 -10 27 -6 7 -7 24 -4 37 4 17
1 28 -10 34 -11 6 -13 11 -5 16 18 11 13 43 -10 65 -13 12 -17 21 -10 26 17
10 13 45 -5 52 -12 4 -14 14 -10 39 4 18 2 35 -3 38 -5 4 -6 18 -2 34 7 23 -1
127 -15 200 -3 12 -16 28 -29 34 -27 12 -34 48 -11 48 24 0 26 15 10 71 -8 30
-16 83 -17 119 -2 56 -5 65 -22 68 -48 9 -85 34 -85 58 0 27 3 29 29 13 23
-15 71 -3 71 17 0 43 -43 153 -71 180 -33 32 -36 50 -12 76 16 18 16 22 -2 74
-10 31 -18 79 -17 109 1 48 -2 57 -23 71 -27 17 -33 52 -13 72 17 17 -8 140
-35 169 -18 20 -18 23 -4 29 27 10 9 24 -31 24 l-37 1 32 29 c25 22 29 31 19
39 -9 8 -12 27 -8 61 4 49 4 50 -27 61 -32 11 -39 23 -21 34 6 3 10 21 10 40
0 19 5 46 10 61 6 15 8 35 5 45 -9 27 -92 24 -220 -6z"/>
</g>
</svg>
