<?xml version="1.0" standalone="no"?>
<!DOCTYPE svg PUBLIC "-//W3C//DTD SVG 20010904//EN"
 "http://www.w3.org/TR/2001/REC-SVG-20010904/DTD/svg10.dtd">
<svg version="1.0" xmlns="http://www.w3.org/2000/svg"
 width="848.000000pt" height="848.000000pt" viewBox="0 0 848.000000 848.000000"
 preserveAspectRatio="xMidYMid meet">
<metadata>
Created by potrace 1.16, written by Peter Selinger 2001-2019
</metadata>
<g transform="translate(0.000000,848.000000) scale(0.100000,-0.100000)"
fill="#000000" stroke="none">
<path d="M2435 7363 c-66 -13 -179 -82 -380 -233 -136 -102 -432 -373 -524
-479 l-53 -62 21 -23 c12 -13 38 -32 57 -42 21 -12 42 -35 55 -61 13 -28 27
-43 39 -43 20 0 60 -44 60 -65 0 -7 10 -15 23 -19 12 -3 33 -21 45 -40 13 -19
34 -42 47 -50 23 -15 26 -14 74 24 28 22 53 40 57 40 3 0 -10 -22 -30 -49 -48
-65 -63 -144 -19 -100 7 7 17 8 25 3 7 -5 20 -9 28 -9 8 0 19 -10 25 -22 5
-13 17 -23 27 -23 10 0 18 -9 20 -22 2 -17 12 -24 38 -29 73 -12 115 -53 99
-97 -11 -28 2 -49 37 -57 110 -25 117 -29 164 -96 36 -51 58 -70 105 -94 42
-21 61 -37 65 -54 4 -17 15 -27 37 -33 18 -5 48 -27 71 -53 22 -25 44 -45 50
-45 6 0 15 -7 19 -14 5 -8 26 -21 48 -28 39 -13 58 -37 70 -88 7 -32 78 -83
94 -67 8 8 19 3 41 -18 16 -16 30 -35 30 -42 0 -7 11 -13 26 -13 20 0 25 -4
20 -16 -13 -34 84 -122 122 -110 21 7 35 -14 26 -38 -8 -20 101 -98 146 -106
29 -4 36 -10 40 -35 4 -21 11 -30 25 -30 27 -1 47 -14 39 -26 -3 -5 2 -21 10
-34 13 -19 25 -25 55 -25 41 0 71 -23 71 -55 0 -13 3 -15 13 -6 16 13 27 5 27
-21 0 -10 7 -18 16 -18 40 0 154 -103 154 -139 0 -19 3 -22 12 -13 20 20 35
14 46 -17 10 -28 10 -28 69 -19 73 11 111 26 123 49 8 14 1 27 -36 66 -50 53
-96 125 -98 153 -1 10 -12 27 -26 38 -24 19 -24 21 -7 39 16 19 15 22 -16 74
-56 92 -60 97 -85 108 -13 6 -21 15 -18 20 8 12 -48 122 -73 145 -12 11 -26
36 -31 57 -6 23 -30 57 -60 87 -28 28 -50 57 -50 65 0 8 -16 39 -35 67 -32 48
-35 58 -33 114 l3 61 -32 -3 c-24 -3 -33 1 -33 11 0 8 -8 21 -17 28 -28 24
-91 128 -108 180 -10 28 -23 53 -31 56 -8 3 -19 23 -24 44 -6 21 -15 39 -20
39 -13 0 -50 64 -50 86 0 11 -9 27 -20 37 -11 9 -17 23 -14 32 4 10 -3 18 -20
25 -30 11 -33 22 -11 40 12 10 13 16 4 26 -6 8 -15 14 -20 14 -4 0 -19 4 -34
10 -22 9 -24 13 -15 31 9 16 8 24 -4 38 -9 10 -16 22 -16 28 0 6 -6 16 -14 23
-8 6 -16 26 -18 43 -3 28 -6 32 -30 29 -37 -4 -63 35 -55 83 5 33 -10 65 -32
65 -11 0 -39 54 -34 67 2 6 -8 19 -22 29 -14 9 -38 40 -52 68 -14 28 -34 63
-45 78 -10 15 -32 68 -47 118 -37 116 -50 136 -98 144 -78 14 -80 16 -49 41
l29 23 -37 66 c-40 72 -42 74 -71 69z"/>
</g>
</svg>
