<?xml version="1.0" standalone="no"?>
<!DOCTYPE svg PUBLIC "-//W3C//DTD SVG 20010904//EN"
 "http://www.w3.org/TR/2001/REC-SVG-20010904/DTD/svg10.dtd">
<svg version="1.0" xmlns="http://www.w3.org/2000/svg"
 width="848.000000pt" height="848.000000pt" viewBox="0 0 848.000000 848.000000"
 preserveAspectRatio="xMidYMid meet">
<metadata>
Created by potrace 1.16, written by Peter Selinger 2001-2019
</metadata>
<g transform="translate(0.000000,848.000000) scale(0.100000,-0.100000)"
fill="#000000" stroke="none">
<path d="M1423 6513 c-63 -74 -162 -206 -202 -268 -35 -55 -38 -84 -15 -120
19 -29 6 -33 -31 -9 -24 16 -25 15 -55 -33 -47 -73 -193 -366 -234 -469 -20
-50 -36 -105 -36 -121 0 -64 77 -105 126 -68 24 18 93 19 117 1 9 -7 17 -25
17 -39 0 -17 8 -30 23 -38 12 -7 26 -18 30 -25 6 -11 12 -11 27 -2 15 10 22 9
38 -5 24 -22 27 -21 51 5 24 25 47 19 102 -30 29 -25 86 -45 134 -47 6 0 14
-6 18 -12 4 -7 26 -13 47 -13 31 0 43 -5 56 -26 9 -14 23 -23 30 -20 7 3 43 0
80 -5 67 -9 68 -9 91 18 l22 28 1 -62 c0 -70 11 -85 36 -49 15 24 17 25 45 10
17 -8 35 -26 41 -39 12 -26 80 -66 140 -83 29 -8 40 -7 49 4 16 20 29 17 29
-5 0 -26 17 -36 35 -21 10 9 16 7 24 -7 10 -17 12 -17 21 0 16 26 38 21 59
-14 18 -29 19 -30 26 -10 9 30 22 26 30 -8 3 -16 12 -34 18 -39 11 -8 170 -72
181 -72 2 0 7 11 10 25 4 14 13 25 22 25 30 0 74 -31 80 -56 l6 -25 22 21 c13
11 25 18 28 15 3 -4 73 -30 154 -60 82 -29 199 -72 259 -95 61 -23 123 -45
138 -47 21 -4 29 -12 34 -35 7 -36 46 -55 80 -39 18 8 28 6 50 -13 56 -46 82
-54 172 -49 81 5 109 14 154 52 16 13 16 16 2 38 -9 13 -13 28 -9 34 14 24
-199 209 -241 209 -42 0 -56 10 -44 31 10 20 7 22 -28 19 -32 -2 -103 59 -103
89 0 33 -75 105 -103 97 -31 -8 -77 20 -77 47 0 12 -7 33 -16 45 -12 17 -19
20 -34 12 -27 -14 -30 -13 -30 16 0 22 -2 24 -15 14 -19 -16 -33 -5 -43 33 -6
25 -14 33 -35 35 -27 3 -71 48 -62 62 8 14 -16 23 -27 12 -14 -14 -49 4 -42
21 3 8 0 26 -6 41 -9 24 -14 28 -39 23 -29 -6 -29 -6 -18 28 14 47 4 56 -100
90 -92 31 -165 84 -184 132 -5 13 -12 22 -16 21 -13 -4 -116 67 -152 105 -18
19 -39 46 -45 59 -7 13 -24 25 -41 29 -17 3 -29 10 -28 17 2 8 -4 9 -22 2 -24
-9 -25 -8 -15 10 16 31 0 47 -20 21 -14 -20 -18 -21 -28 -8 -10 12 -9 22 4 51
21 43 14 53 -20 31 -26 -17 -28 -16 -30 20 -1 13 -9 21 -23 23 -12 2 -27 10
-33 18 -7 8 -18 14 -24 14 -7 0 -41 20 -76 45 -35 25 -71 45 -80 45 -9 0 -21
5 -28 12 -9 9 -12 8 -13 -7 -2 -39 -4 -45 -14 -47 -5 -2 -14 9 -19 24 -8 22
-6 32 9 48 18 20 17 21 -33 74 -29 30 -52 60 -52 65 0 6 -4 10 -9 9 -5 -2 -17
6 -25 17 -9 11 -16 14 -16 8 0 -7 -5 -13 -10 -13 -7 0 -7 6 -1 19 8 15 4 24
-28 49 -41 33 -60 72 -35 72 21 0 17 18 -6 30 -17 9 -28 7 -55 -10 -27 -16
-35 -18 -35 -8 0 14 -40 58 -52 58 -3 0 -28 -26 -55 -57z"/>
</g>
</svg>
