<?xml version="1.0" standalone="no"?>
<!DOCTYPE svg PUBLIC "-//W3C//DTD SVG 20010904//EN"
 "http://www.w3.org/TR/2001/REC-SVG-20010904/DTD/svg10.dtd">
<svg version="1.0" xmlns="http://www.w3.org/2000/svg"
 width="848.000000pt" height="848.000000pt" viewBox="0 0 848.000000 848.000000"
 preserveAspectRatio="xMidYMid meet">
<metadata>
Created by potrace 1.16, written by Peter Selinger 2001-2019
</metadata>
<g transform="translate(0.000000,848.000000) scale(0.100000,-0.100000)"
fill="#000000" stroke="none">
<path d="M1308 4243 c-21 -11 -107 -15 -358 -20 -182 -3 -332 -9 -334 -12 -3
-5 5 -131 30 -439 l7 -93 48 6 c27 4 49 5 49 2 0 -2 -18 -16 -41 -31 -48 -32
-49 -21 12 -271 65 -266 99 -355 136 -355 7 0 13 -7 13 -15 0 -24 37 -18 58 9
12 17 26 23 38 20 11 -3 53 6 94 21 41 14 80 27 85 28 6 2 21 9 35 17 14 7 25
12 25 10 0 -6 79 22 100 35 12 7 49 20 83 29 34 8 89 29 122 46 33 17 82 33
108 36 85 10 92 12 92 39 0 27 9 32 27 14 12 -12 60 9 84 37 8 9 41 30 73 45
55 26 61 27 77 13 16 -15 19 -13 34 15 17 34 35 41 35 14 1 -14 6 -12 24 11
20 24 29 28 53 23 35 -7 111 13 123 32 5 9 17 11 33 7 17 -4 33 1 49 14 24 18
60 30 157 51 57 12 69 23 73 67 3 40 21 50 26 15 6 -39 27 -46 58 -20 44 36
89 55 118 50 17 -4 34 1 45 11 10 9 68 29 128 43 l110 27 13 51 c20 79 26 84
44 42 15 -38 33 -46 54 -25 7 7 12 8 12 4 0 -5 11 -1 25 8 14 9 25 13 25 10 0
-4 8 0 18 9 13 12 21 14 29 6 7 -7 31 4 78 36 70 47 80 51 89 37 3 -5 19 -9
36 -10 17 0 28 3 24 9 -7 13 23 59 38 59 7 0 27 -14 45 -32 48 -46 49 -30 2
27 -44 53 -43 49 -23 163 6 32 6 32 -34 32 -23 0 -44 4 -47 10 -3 5 -23 -1
-47 -14 -39 -22 -44 -22 -76 -9 -25 10 -37 11 -47 3 -16 -13 -65 -2 -65 15 0
7 -7 18 -15 25 -11 9 -20 8 -42 -7 -51 -35 -63 -36 -63 -3 l0 30 -117 0 c-85
0 -126 -4 -147 -15 -37 -19 -65 -19 -87 1 -16 14 -23 15 -48 4 -19 -7 -56 -10
-103 -6 -40 3 -81 5 -90 5 -43 -1 -139 -1 -153 0 -23 2 -43 2 -65 0 -16 -1
-160 -2 -212 -1 -7 0 -98 -2 -202 -4 -104 -1 -197 1 -205 6 -10 5 -26 3 -43
-6 -16 -8 -34 -11 -41 -7 -7 4 -61 6 -120 4 -82 -2 -113 1 -125 11 -15 13 -21
13 -44 1z"/>
</g>
</svg>
