<?xml version="1.0" standalone="no"?>
<!DOCTYPE svg PUBLIC "-//W3C//DTD SVG 20010904//EN"
 "http://www.w3.org/TR/2001/REC-SVG-20010904/DTD/svg10.dtd">
<svg version="1.0" xmlns="http://www.w3.org/2000/svg"
 width="848.000000pt" height="848.000000pt" viewBox="0 0 848.000000 848.000000"
 preserveAspectRatio="xMidYMid meet">
<metadata>
Created by potrace 1.16, written by Peter Selinger 2001-2019
</metadata>
<g transform="translate(0.000000,848.000000) scale(0.100000,-0.100000)"
fill="#000000" stroke="none">
<path d="M3393 3960 c-12 -5 -29 -20 -38 -33 -11 -18 -22 -23 -40 -19 -19 3
-25 0 -25 -12 0 -11 -7 -16 -17 -15 -28 4 -185 -80 -190 -102 -7 -25 -23 -25
-23 1 0 11 -7 20 -15 20 -8 0 -15 6 -15 12 0 7 -14 -2 -30 -20 -20 -22 -38
-33 -53 -31 -12 2 -38 -7 -57 -19 -19 -13 -45 -21 -57 -19 -13 2 -23 0 -23 -5
0 -5 -5 -6 -10 -3 -6 4 -17 1 -25 -5 -8 -7 -15 -9 -15 -4 0 5 -7 1 -14 -9 -11
-15 -19 -16 -34 -8 -16 9 -28 3 -70 -35 -42 -37 -51 -52 -57 -92 l-8 -47 -12
40 c-8 26 -19 41 -31 44 -10 1 -26 10 -36 18 -14 12 -17 12 -25 0 -14 -24 -71
-60 -86 -54 -8 3 -20 0 -26 -6 -6 -6 -11 -7 -11 -3 0 5 -7 3 -15 -4 -8 -7 -15
-9 -15 -6 0 4 -10 1 -22 -6 -13 -7 -26 -13 -30 -14 -5 -1 -10 -3 -13 -4 -3 -1
-8 -3 -12 -4 -5 -1 -20 -10 -35 -20 -16 -10 -35 -16 -43 -12 -8 3 -15 2 -15
-3 0 -5 -19 -5 -42 0 -24 4 -62 8 -86 9 -39 0 -43 -2 -37 -21 8 -23 -2 -108
-15 -129 -17 -27 -23 0 -10 40 17 51 7 61 -29 26 -25 -24 -29 -25 -41 -11 -12
14 -16 13 -44 -13 -17 -16 -37 -27 -45 -24 -8 2 -22 -6 -32 -19 -17 -23 -18
-23 -37 -6 -28 25 -69 13 -94 -29 -20 -34 -49 -50 -69 -39 -6 4 -36 -7 -67
-23 -74 -39 -128 -61 -352 -139 -225 -79 -274 -93 -278 -82 -7 18 -22 8 -22
-15 0 -108 247 -602 408 -817 18 -24 67 -90 109 -147 41 -57 81 -106 89 -109
8 -3 29 1 47 8 17 8 41 12 51 10 14 -2 17 2 13 13 -8 20 7 21 23 1 19 -23 30
-18 30 13 1 20 12 36 46 62 25 19 50 34 57 33 7 -1 23 -5 37 -8 22 -6 23 -5 6
5 -17 11 -14 16 34 65 l52 53 -23 31 -23 31 24 25 c13 14 47 40 74 57 28 17
59 41 68 52 21 25 49 27 66 4 7 -10 17 -18 21 -18 15 0 101 81 101 95 0 8 6
18 13 22 7 4 20 20 29 35 10 14 28 28 40 30 19 2 24 10 26 42 l3 38 25 -23 24
-22 0 46 c0 46 0 46 29 41 23 -5 32 -2 40 15 7 12 18 21 26 21 8 0 19 9 25 21
7 11 27 27 46 35 19 8 34 21 34 29 0 8 8 15 18 15 17 0 36 18 58 56 6 10 24
21 39 24 17 3 29 12 31 23 5 39 54 89 54 56 0 -5 5 -7 11 -3 6 3 8 16 5 28 -4
18 1 25 32 36 20 8 42 13 47 11 26 -7 30 -4 27 19 -2 18 8 36 36 64 35 33 42
36 62 26 28 -15 50 2 50 39 0 35 45 80 62 63 18 -18 32 -15 61 12 18 17 24 30
20 45 -4 16 3 31 23 52 43 46 63 54 78 33 13 -16 15 -16 39 8 17 17 24 33 21
46 -7 26 50 104 97 131 19 11 54 23 77 27 49 8 92 37 92 64 0 10 16 37 35 60
19 23 35 48 35 56 0 8 6 14 14 14 21 0 66 40 66 59 0 11 -20 28 -52 46 -29 15
-63 37 -76 48 -22 20 -24 20 -73 4 -45 -14 -53 -14 -66 -1 -16 16 -19 16 -50
4z"/>
</g>
</svg>
