<?xml version="1.0" standalone="no"?>
<!DOCTYPE svg PUBLIC "-//W3C//DTD SVG 20010904//EN"
 "http://www.w3.org/TR/2001/REC-SVG-20010904/DTD/svg10.dtd">
<svg version="1.0" xmlns="http://www.w3.org/2000/svg"
 width="848.000000pt" height="848.000000pt" viewBox="0 0 848.000000 848.000000"
 preserveAspectRatio="xMidYMid meet">
<metadata>
Created by potrace 1.16, written by Peter Selinger 2001-2019
</metadata>
<g transform="translate(0.000000,848.000000) scale(0.100000,-0.100000)"
fill="#000000" stroke="none">
<path d="M3748 3816 c-37 -9 -37 -10 -31 -52 7 -54 -15 -69 -51 -35 -26 25
-46 27 -46 6 0 -8 -9 -15 -20 -15 -13 0 -20 -7 -20 -19 0 -10 -17 -31 -37 -47
-21 -16 -52 -44 -69 -62 -31 -34 -32 -34 -58 -17 -21 14 -26 15 -26 3 0 -8 5
-19 10 -24 8 -8 6 -15 -5 -24 -14 -12 -18 -11 -26 1 -8 14 -11 10 -13 -21 -1
-9 -11 -15 -29 -15 -31 -1 -47 -18 -47 -51 0 -11 -9 -29 -20 -39 -17 -15 -24
-16 -45 -7 -23 11 -30 7 -80 -41 -30 -28 -55 -60 -55 -70 0 -33 -20 -58 -44
-55 -30 4 -56 -18 -56 -48 0 -30 -14 -38 -39 -22 -28 17 -37 3 -23 -35 7 -19
12 -41 12 -49 0 -25 -38 -10 -42 16 -4 27 -32 28 -36 1 -7 -49 -13 -65 -25
-65 -6 0 -24 -6 -38 -14 -22 -11 -29 -11 -44 0 -31 23 -45 17 -39 -15 7 -33
-10 -71 -32 -71 -22 0 -104 -70 -115 -97 -5 -14 -17 -23 -29 -23 -11 0 -20 -6
-20 -13 0 -16 -42 -57 -58 -57 -6 0 -19 -12 -29 -26 -9 -14 -27 -30 -40 -35
-13 -5 -23 -17 -23 -28 0 -23 -16 -36 -25 -21 -3 5 -11 10 -16 10 -9 0 -6 -20
8 -75 5 -17 1 -16 -24 8 -32 30 -45 35 -37 13 6 -16 -32 -46 -58 -46 -10 0
-24 -14 -33 -33 -9 -19 -33 -51 -55 -72 -37 -37 -40 -38 -58 -22 -10 9 -25 17
-34 17 -25 0 -101 -56 -165 -123 -58 -61 -61 -66 -47 -86 18 -25 10 -42 -40
-90 -22 -21 -41 -31 -50 -28 -22 9 -46 -2 -46 -20 0 -8 -5 -23 -11 -34 -10
-19 -12 -19 -28 -5 -21 19 -31 12 -31 -24 0 -34 -17 -49 -63 -57 -33 -5 -36
-9 -43 -46 l-6 -41 199 -196 c109 -108 227 -216 262 -241 34 -24 89 -62 121
-85 32 -22 75 -55 96 -73 45 -40 188 -111 224 -111 22 0 35 16 90 105 36 58
102 164 148 236 45 72 82 142 82 155 0 12 4 34 10 48 8 21 16 26 44 26 19 0
42 8 51 17 16 15 16 18 1 28 -23 17 -20 32 7 31 18 -1 23 5 25 30 2 22 11 35
29 43 20 9 23 14 13 25 -9 11 -7 16 5 23 9 5 17 17 19 26 1 9 10 25 20 36 10
11 15 24 12 29 -3 6 5 17 19 26 14 9 25 25 25 37 0 11 7 22 15 25 8 4 15 14
15 24 0 10 16 34 35 53 19 19 35 44 35 55 0 11 7 22 15 26 11 4 15 21 15 61 0
53 1 56 40 81 27 18 40 34 40 49 0 12 16 38 35 58 19 20 35 46 35 59 0 31 10
45 43 57 22 9 27 15 22 31 -9 27 18 68 47 72 12 2 33 18 45 37 29 43 30 65 3
56 -11 -3 -20 -4 -20 -1 0 5 236 412 422 730 43 73 78 120 90 124 15 4 17 7 6
13 -9 6 -7 9 10 9 27 0 39 26 24 51 -7 11 -8 20 -2 24 6 3 10 13 10 20 0 17
-48 11 -93 -12 -25 -13 -31 -13 -45 0 -32 28 -56 34 -94 23z"/>
</g>
</svg>
