<?xml version="1.0" standalone="no"?>
<!DOCTYPE svg PUBLIC "-//W3C//DTD SVG 20010904//EN"
 "http://www.w3.org/TR/2001/REC-SVG-20010904/DTD/svg10.dtd">
<svg version="1.0" xmlns="http://www.w3.org/2000/svg"
 width="848.000000pt" height="848.000000pt" viewBox="0 0 848.000000 848.000000"
 preserveAspectRatio="xMidYMid meet">
<metadata>
Created by potrace 1.16, written by Peter Selinger 2001-2019
</metadata>
<g transform="translate(0.000000,848.000000) scale(0.100000,-0.100000)"
fill="#000000" stroke="none">
<path d="M4689 4040 c-1 -3 -1 -8 -1 -11 1 -4 -8 -15 -18 -24 -25 -23 -25 -36
1 -68 16 -21 18 -31 9 -47 -8 -15 -8 -20 3 -20 7 0 18 5 24 11 7 7 19 2 41
-16 26 -22 30 -30 22 -45 -16 -30 -12 -46 18 -60 15 -8 32 -14 37 -14 6 -1 11
-13 13 -28 3 -22 11 -30 44 -40 31 -9 44 -9 59 0 17 11 19 9 19 -19 0 -43 49
-89 94 -87 60 2 136 -63 136 -117 0 -22 98 -110 124 -111 31 0 46 -12 46 -35
0 -14 10 -25 30 -32 17 -6 30 -17 30 -24 0 -7 9 -13 20 -13 12 0 29 -15 44
-37 45 -71 197 -201 261 -224 19 -7 35 -18 35 -24 0 -17 75 -95 91 -95 8 -1
23 -15 34 -33 17 -27 27 -32 58 -32 34 0 37 -3 37 -27 0 -28 37 -65 270 -267
104 -90 132 -105 144 -75 9 22 20 11 49 -48 13 -29 43 -74 66 -99 22 -26 45
-58 51 -73 8 -21 16 -26 45 -26 49 0 72 14 90 55 16 40 25 43 50 15 18 -19 17
-22 -8 -69 -33 -60 -35 -76 -6 -61 17 10 21 8 26 -9 3 -11 15 -23 27 -27 36
-11 54 -34 61 -80 7 -48 14 -52 50 -28 24 15 25 15 25 -4 0 -23 22 -34 55 -26
26 6 130 125 227 259 69 95 168 271 168 298 0 8 11 29 25 46 25 29 25 31 10
61 l-16 30 31 0 c26 0 33 7 59 58 70 140 111 249 111 300 0 56 -13 74 -30 42
-11 -21 -13 -20 -55 19 -41 37 -47 40 -70 29 -21 -9 -28 -9 -34 1 -12 19 -112
22 -133 4 -10 -9 -24 -13 -33 -9 -12 4 -14 16 -9 61 7 55 7 55 -20 55 -15 0
-29 -7 -32 -15 -7 -18 -62 -20 -85 -2 -9 7 -19 25 -23 40 -9 36 -84 74 -115
57 -27 -14 -41 -13 -41 5 0 8 -4 15 -10 15 -5 0 -10 -9 -10 -19 0 -11 -4 -22
-8 -25 -8 -5 -100 34 -242 102 -41 19 -81 34 -89 33 -7 -1 -20 7 -28 19 -10
15 -19 18 -25 12 -12 -12 -54 1 -82 26 -10 9 -20 16 -22 15 -2 -2 -6 -2 -9 -2
-3 1 -9 3 -15 4 -5 1 -13 4 -17 5 -5 1 -18 1 -29 1 -12 -1 -24 5 -28 14 -4 10
-12 15 -21 11 -9 -3 -18 1 -21 9 -4 8 -10 13 -14 10 -5 -3 -11 -1 -15 5 -4 6
-10 8 -15 5 -5 -3 -11 -1 -15 5 -4 6 -10 8 -15 5 -5 -3 -11 -1 -15 4 -3 6 -12
8 -21 4 -8 -3 -21 3 -29 13 -8 11 -15 15 -15 10 0 -5 -7 -3 -15 4 -8 7 -15 9
-15 5 0 -4 -7 -2 -15 5 -8 7 -21 10 -29 7 -8 -3 -26 3 -39 13 -13 11 -27 17
-31 13 -3 -3 -15 2 -25 11 -13 12 -27 15 -40 11 -14 -4 -23 -1 -27 9 -4 10
-18 16 -39 16 -20 0 -39 8 -51 21 -10 12 -26 18 -37 15 -13 -3 -21 3 -28 20
-12 33 -28 22 -35 -27 -11 -67 -25 -48 -37 51 -1 16 -8 24 -17 21 -41 -10 -92
-8 -97 5 -3 8 -9 12 -13 9 -5 -3 -11 -1 -15 4 -3 6 -12 8 -19 5 -8 -3 -26 6
-41 20 -16 15 -40 26 -55 26 -15 0 -30 7 -34 15 -3 8 -12 12 -20 9 -8 -3 -30
1 -47 10 -18 9 -48 16 -67 16 -19 0 -52 5 -73 12 -35 10 -42 9 -62 -10 -23
-22 -67 -30 -67 -13 0 5 5 22 10 37 9 24 9 26 -10 21 -12 -3 -20 -1 -19 6 4
31 -2 37 -26 31 -20 -5 -25 -2 -31 20 -8 32 -18 33 -31 4 -9 -20 -10 -20 -22
10 -10 23 -19 31 -39 31 -23 0 -54 5 -72 11 -13 5 -100 4 -101 0z"/>
</g>
</svg>
