<?xml version="1.0" standalone="no"?>
<!DOCTYPE svg PUBLIC "-//W3C//DTD SVG 20010904//EN"
 "http://www.w3.org/TR/2001/REC-SVG-20010904/DTD/svg10.dtd">
<svg version="1.0" xmlns="http://www.w3.org/2000/svg"
 width="848.000000pt" height="848.000000pt" viewBox="0 0 848.000000 848.000000"
 preserveAspectRatio="xMidYMid meet">
<metadata>
Created by potrace 1.16, written by Peter Selinger 2001-2019
</metadata>
<g transform="translate(0.000000,848.000000) scale(0.100000,-0.100000)"
fill="#000000" stroke="none">
<path d="M4769 4180 c-22 -22 -42 -51 -45 -65 -3 -14 -17 -28 -32 -34 -27 -9
-27 -9 -3 -10 13 -1 40 -13 58 -27 26 -20 42 -25 67 -21 19 3 39 -1 51 -9 10
-8 35 -14 54 -14 20 0 55 -9 79 -20 23 -10 49 -17 57 -14 10 4 15 0 15 -13 0
-11 9 -28 19 -37 33 -30 201 -89 258 -90 29 0 53 -4 53 -9 0 -4 17 -15 38 -24
37 -16 47 -20 109 -43 17 -7 37 -9 43 -5 6 4 17 2 24 -4 9 -8 20 -3 41 19 33
35 50 39 42 10 -3 -12 6 -35 24 -60 25 -34 32 -39 49 -30 29 15 40 12 50 -15
9 -22 13 -24 31 -15 24 14 67 0 95 -31 12 -13 21 -16 34 -9 13 7 21 5 30 -5 7
-8 23 -15 36 -15 12 0 26 -5 29 -10 4 -6 15 -8 24 -5 10 3 25 -3 35 -13 10
-12 25 -17 40 -15 17 4 25 -1 29 -17 4 -17 9 -20 23 -12 21 12 63 -1 81 -25 8
-10 29 -17 58 -18 33 -1 52 -8 72 -27 20 -19 32 -24 44 -18 11 7 29 -1 64 -25
27 -19 57 -35 67 -35 10 0 44 -13 76 -29 31 -16 90 -40 131 -55 40 -14 83 -33
94 -41 29 -20 32 -19 62 12 24 27 26 27 52 11 16 -9 34 -28 41 -42 15 -30 45
-52 84 -61 21 -5 27 -3 33 14 7 24 23 19 34 -12 7 -20 10 -18 30 21 22 44 37
56 26 22 -11 -34 3 -22 25 20 11 22 25 40 30 40 12 0 13 8 -5 -75 -8 -38 -11
-73 -6 -78 4 -4 28 -8 52 -9 51 0 89 -15 89 -35 0 -16 12 -17 28 -1 10 10 14
8 18 -9 5 -18 10 -20 35 -13 23 7 29 6 27 -5 -2 -8 2 -14 7 -15 6 -1 18 -6 27
-11 14 -8 19 -3 27 28 6 21 11 45 11 54 0 9 20 60 45 113 27 58 50 123 55 159
14 93 40 234 56 306 8 36 19 117 25 180 5 64 17 153 25 198 7 45 14 98 14 117
l0 36 -161 0 -160 0 -26 -30 c-36 -43 -56 -41 -37 5 l14 35 -1341 0 -1342 0
-38 -40z"/>
</g>
</svg>
