<?xml version="1.0" standalone="no"?>
<!DOCTYPE svg PUBLIC "-//W3C//DTD SVG 20010904//EN"
 "http://www.w3.org/TR/2001/REC-SVG-20010904/DTD/svg10.dtd">
<svg version="1.0" xmlns="http://www.w3.org/2000/svg"
 width="848.000000pt" height="848.000000pt" viewBox="0 0 848.000000 848.000000"
 preserveAspectRatio="xMidYMid meet">
<metadata>
Created by potrace 1.16, written by Peter Selinger 2001-2019
</metadata>
<g transform="translate(0.000000,848.000000) scale(0.100000,-0.100000)"
fill="#000000" stroke="none">
<path d="M7524 5460 c-12 -5 -25 -13 -29 -19 -3 -6 -15 -11 -25 -11 -11 0 -34
-13 -52 -29 -64 -56 -193 -105 -209 -80 -5 9 -17 4 -44 -20 -22 -19 -46 -31
-59 -30 -11 2 -37 -7 -56 -19 -19 -12 -44 -22 -55 -21 -11 1 -22 0 -25 -1 -9
-3 -45 -10 -79 -14 -22 -3 -42 -15 -56 -32 -16 -20 -27 -25 -40 -20 -12 4 -31
-3 -57 -20 -23 -16 -52 -27 -71 -27 -18 0 -40 -6 -49 -14 -9 -8 -21 -12 -26
-9 -5 3 -21 -3 -34 -14 -14 -11 -28 -17 -31 -13 -3 3 -14 2 -24 -2 -25 -11
-34 -14 -68 -21 -16 -3 -35 -13 -42 -21 -6 -8 -17 -12 -22 -8 -6 3 -14 0 -17
-9 -4 -10 -15 -13 -37 -9 -25 4 -40 -2 -71 -26 -39 -32 -82 -49 -93 -37 -3 3
-18 -4 -34 -15 -16 -11 -54 -29 -85 -39 -53 -19 -59 -19 -75 -4 -22 20 -23 18
-43 -76 -12 -56 -15 -61 -21 -38 -11 42 -29 52 -67 39 -21 -7 -34 -8 -36 -2
-2 5 -12 1 -23 -10 -11 -11 -30 -19 -43 -17 -13 1 -31 -5 -41 -15 -11 -12 -26
-16 -40 -13 -12 3 -30 -1 -41 -8 -14 -11 -22 -12 -33 -3 -10 9 -19 4 -40 -21
-27 -34 -49 -40 -68 -21 -9 9 -19 7 -40 -7 -42 -28 -71 -43 -76 -38 -2 3 -10
-2 -17 -11 -7 -8 -21 -15 -31 -15 -10 0 -21 -5 -25 -11 -3 -6 -14 -9 -24 -6
-11 3 -21 -1 -24 -9 -7 -19 -32 -18 -40 2 -11 30 -19 5 -18 -54 l2 -57 -27 48
-27 49 -19 -24 c-11 -12 -26 -22 -33 -20 -8 2 -26 -6 -41 -16 -59 -41 -90 -57
-133 -72 -39 -14 -46 -21 -56 -56 -16 -53 -33 -148 -28 -153 2 -2 12 3 22 12
17 15 19 15 35 0 14 -14 18 -14 33 -2 12 10 45 13 134 11 l119 -3 3 27 c6 49
28 41 28 -10 0 -48 9 -57 30 -31 7 8 23 15 36 15 12 0 35 5 50 10 31 12 91
-10 101 -37 5 -12 7 -12 15 -1 7 10 11 10 15 1 8 -21 30 -15 51 14 19 26 20
27 46 10 15 -10 31 -15 36 -12 6 4 14 -4 19 -17 10 -23 10 -22 10 5 l1 27 125
0 126 0 22 48 21 47 4 -42 c3 -39 6 -43 35 -47 131 -19 180 -23 234 -19 48 4
69 1 88 -11 31 -20 54 -20 84 0 20 15 43 16 175 10 170 -8 162 -8 272 0 53 4
89 2 103 -5 16 -9 59 -9 169 -1 81 6 214 14 296 18 105 5 151 11 154 19 2 7
-8 17 -22 23 -29 11 -34 20 -11 20 8 0 24 -9 34 -19 21 -21 31 -18 31 11 0 10
7 18 15 18 12 0 15 -13 15 -57 1 -44 3 -54 11 -40 15 26 141 24 176 -3 14 -11
41 -20 59 -20 32 0 33 1 40 56 9 74 -12 436 -31 549 -18 101 -86 418 -91 424
-1 1 -13 -4 -26 -13 -12 -9 -26 -16 -30 -16 -12 0 -10 58 3 82 9 17 8 23 -5
30 -9 5 -16 17 -16 26 0 9 -11 33 -23 52 -16 26 -28 34 -44 32 -15 -2 -23 2
-23 12 0 20 -11 25 -36 16z"/>
</g>
</svg>
