<?xml version="1.0" standalone="no"?>
<!DOCTYPE svg PUBLIC "-//W3C//DTD SVG 20010904//EN"
 "http://www.w3.org/TR/2001/REC-SVG-20010904/DTD/svg10.dtd">
<svg version="1.0" xmlns="http://www.w3.org/2000/svg"
 width="848.000000pt" height="848.000000pt" viewBox="0 0 848.000000 848.000000"
 preserveAspectRatio="xMidYMid meet">
<metadata>
Created by potrace 1.16, written by Peter Selinger 2001-2019
</metadata>
<g transform="translate(0.000000,848.000000) scale(0.100000,-0.100000)"
fill="#000000" stroke="none">
<path d="M6908 6503 c-20 -21 -38 -49 -40 -63 -2 -21 -8 -25 -30 -22 -15 1
-39 -5 -53 -14 -21 -14 -25 -24 -25 -68 -1 -47 -2 -49 -15 -32 -13 17 -15 17
-15 4 0 -22 -19 -33 -33 -19 -20 20 -36 12 -45 -21 -5 -19 -18 -38 -31 -44
-13 -7 -40 -28 -60 -48 -21 -20 -51 -40 -67 -45 -19 -5 -30 -15 -32 -30 -2
-14 -14 -26 -33 -33 -16 -5 -29 -13 -29 -18 0 -15 -53 -60 -106 -90 -30 -16
-54 -35 -54 -40 0 -6 -5 -10 -11 -10 -5 0 -38 -29 -72 -65 -34 -36 -68 -65
-75 -65 -6 0 -12 -4 -12 -10 0 -5 -5 -10 -11 -10 -17 0 -99 -71 -99 -86 0 -8
-9 -14 -20 -14 -12 0 -20 -7 -20 -16 0 -9 -9 -27 -20 -41 -11 -14 -20 -32 -20
-39 0 -19 -13 -17 -43 6 -33 26 -37 25 -37 -11 0 -25 -3 -29 -19 -24 -20 6
-51 -17 -51 -40 0 -18 -76 -91 -141 -136 -31 -21 -59 -45 -62 -54 -4 -8 -15
-15 -25 -15 -11 0 -36 -20 -56 -45 -24 -29 -45 -45 -60 -45 -15 0 -39 -19 -72
-57 -73 -84 -135 -143 -150 -143 -7 0 -18 -9 -24 -20 -6 -11 -17 -20 -25 -20
-7 0 -17 -9 -20 -20 -9 -30 -54 -57 -65 -40 -6 10 -10 8 -19 -8 -7 -13 -17
-18 -30 -15 -18 5 -19 1 -14 -31 l5 -35 -36 6 c-36 6 -36 5 -36 -31 0 -32 -3
-36 -25 -36 -14 0 -25 -4 -25 -10 0 -5 -9 -10 -21 -10 -11 0 -35 -10 -52 -22
-17 -12 -51 -28 -76 -34 -25 -7 -38 -13 -28 -13 10 -1 34 -8 54 -16 27 -12 33
-18 25 -28 -8 -10 -6 -22 9 -48 34 -56 60 -79 90 -79 18 0 32 -7 39 -20 13
-24 27 -18 40 15 7 19 16 22 50 21 24 0 44 5 49 13 5 7 17 12 27 11 11 -2 33
3 50 11 l32 13 -14 39 c-8 22 -14 41 -14 43 0 1 20 -8 44 -22 36 -20 52 -23
86 -18 23 4 44 13 47 21 3 8 12 12 19 9 7 -3 16 -1 19 5 4 5 11 7 16 3 5 -3
23 6 40 20 32 28 58 33 75 16 13 -13 109 20 147 50 14 11 38 20 54 20 15 0 45
9 66 20 20 11 45 20 55 20 10 0 22 4 27 9 6 5 21 11 35 13 17 2 26 10 28 24 2
12 12 30 23 40 18 16 21 16 35 2 14 -14 21 -12 71 15 31 16 73 31 94 33 21 1
51 12 67 24 25 19 33 20 53 10 19 -11 24 -10 36 6 7 10 13 21 13 25 0 4 15 7
33 6 20 0 45 8 61 20 14 12 35 19 45 16 10 -3 22 0 25 6 4 6 20 11 36 11 16 0
32 5 35 10 11 18 109 63 141 65 16 1 42 10 57 20 18 11 37 15 57 12 23 -5 30
-2 35 13 4 12 15 20 29 20 12 0 26 3 30 7 4 4 20 8 36 9 16 1 41 11 55 22 14
12 32 19 39 16 8 -3 29 1 47 9 19 8 52 17 74 21 22 4 46 13 54 19 7 6 30 13
50 14 23 1 43 10 56 25 15 18 28 22 55 20 29 -3 40 2 64 30 18 21 30 28 33 21
7 -20 27 -15 52 11 34 36 77 52 96 36 11 -9 19 -10 26 -3 7 7 5 14 -6 23 -14
11 -13 14 2 26 17 13 17 15 -5 32 -20 16 -24 29 -27 94 -4 91 -14 113 -56 122
-18 3 -29 9 -25 13 4 4 -3 12 -15 19 -22 12 -22 12 9 28 17 9 33 20 37 26 7
12 -90 204 -148 291 -23 35 -55 87 -72 115 -59 100 -215 302 -238 308 -57 15
-92 7 -129 -31z"/>
</g>
</svg>
