<?xml version="1.0" standalone="no"?>
<!DOCTYPE svg PUBLIC "-//W3C//DTD SVG 20010904//EN"
 "http://www.w3.org/TR/2001/REC-SVG-20010904/DTD/svg10.dtd">
<svg version="1.0" xmlns="http://www.w3.org/2000/svg"
 width="848.000000pt" height="848.000000pt" viewBox="0 0 848.000000 848.000000"
 preserveAspectRatio="xMidYMid meet">
<metadata>
Created by potrace 1.16, written by Peter Selinger 2001-2019
</metadata>
<g transform="translate(0.000000,848.000000) scale(0.100000,-0.100000)"
fill="#000000" stroke="none">
<path d="M6013 7323 c-11 -21 -23 -54 -27 -73 -3 -19 -20 -52 -37 -72 -16 -21
-28 -42 -24 -47 3 -5 -3 -12 -13 -15 -24 -8 -112 -141 -112 -169 0 -13 5 -28
11 -34 7 -7 9 -18 6 -27 -5 -12 -13 -13 -39 -6 -44 13 -58 -2 -36 -39 17 -32
9 -51 -23 -51 -27 0 -32 -18 -9 -30 26 -14 17 -30 -18 -30 -15 0 -39 -8 -54
-18 -26 -17 -27 -19 -12 -40 17 -24 13 -27 -17 -12 -29 16 -23 -5 8 -28 30
-22 25 -37 -16 -45 -40 -8 -69 -52 -53 -78 11 -17 9 -19 -28 -19 -36 0 -40 -2
-40 -25 0 -15 -7 -40 -16 -56 -14 -28 -14 -32 0 -48 9 -10 16 -23 16 -30 0
-21 -50 -79 -86 -100 -19 -11 -37 -29 -41 -38 -4 -10 -16 -30 -27 -45 -15 -21
-17 -33 -10 -50 11 -24 1 -46 -60 -139 -17 -24 -54 -81 -83 -126 -30 -46 -58
-83 -64 -83 -5 0 -9 -14 -9 -30 0 -20 -9 -39 -25 -54 -14 -13 -25 -30 -25 -38
0 -9 -9 -18 -20 -21 -13 -3 -20 -14 -20 -29 0 -29 -72 -164 -154 -288 -35 -52
-67 -106 -71 -120 -11 -36 -82 -159 -116 -202 -16 -20 -29 -41 -29 -46 0 -15
-134 -266 -158 -297 -16 -20 -19 -32 -12 -39 15 -15 77 20 84 47 4 17 8 19 17
10 8 -8 34 -10 80 -6 53 5 69 3 69 -7 0 -9 6 -7 20 5 11 10 20 24 20 32 0 7
10 13 23 13 22 0 49 24 73 66 8 14 20 18 45 16 29 -3 37 2 52 26 9 17 17 45
17 62 0 28 2 31 16 19 13 -10 17 -10 25 2 5 8 9 17 9 22 0 4 11 7 25 7 15 0
52 20 92 51 46 35 69 47 76 40 18 -18 29 -13 22 9 -5 15 3 32 27 60 18 22 49
59 68 82 43 51 194 178 253 213 25 14 47 35 50 46 3 11 19 25 36 32 17 6 31
17 31 24 0 7 11 15 25 19 14 3 25 13 25 23 0 9 13 29 30 44 29 27 30 28 56 11
26 -18 26 -17 60 22 18 21 33 49 34 62 0 16 9 27 29 35 16 7 50 36 76 65 26
29 58 55 71 58 13 3 32 21 42 39 12 19 39 41 66 55 26 12 65 41 89 63 23 23
45 40 50 39 4 -1 12 9 17 22 11 29 54 61 69 51 7 -3 8 0 5 9 -4 11 0 16 15 16
12 0 20 5 18 11 -1 7 11 15 27 20 15 4 35 17 43 29 8 11 33 32 55 46 23 15 46
40 54 61 13 31 17 33 27 19 17 -24 47 -10 47 21 0 13 -7 38 -16 55 -17 33 -13
32 38 -6 30 -21 49 -16 29 8 -18 21 32 67 68 64 20 -2 25 1 23 15 -4 22 94
119 149 147 21 11 39 25 39 31 0 6 -6 6 -19 0 -25 -14 -78 24 -160 117 -34 39
-94 98 -132 132 l-69 62 -36 -22 c-45 -26 -52 -20 -24 18 21 28 21 31 6 53 -8
13 -41 42 -72 64 -32 22 -73 54 -92 70 -20 17 -69 55 -111 87 l-75 56 -32 -36
c-38 -44 -51 -38 -30 11 12 31 12 38 -1 56 -18 26 -96 67 -145 76 -33 6 -36 5
-55 -32z"/>
</g>
</svg>
