<?xml version="1.0" standalone="no"?>
<!DOCTYPE svg PUBLIC "-//W3C//DTD SVG 20010904//EN"
 "http://www.w3.org/TR/2001/REC-SVG-20010904/DTD/svg10.dtd">
<svg version="1.0" xmlns="http://www.w3.org/2000/svg"
 width="848.000000pt" height="848.000000pt" viewBox="0 0 848.000000 848.000000"
 preserveAspectRatio="xMidYMid meet">
<metadata>
Created by potrace 1.16, written by Peter Selinger 2001-2019
</metadata>
<g transform="translate(0.000000,848.000000) scale(0.100000,-0.100000)"
fill="#000000" stroke="none">
<path d="M4900 7793 c-14 -3 -33 -14 -43 -25 -17 -18 -18 -21 -3 -37 9 -10 12
-21 7 -27 -15 -15 4 -172 23 -192 22 -26 20 -39 -3 -18 -22 20 -41 14 -41 -13
0 -9 -13 -30 -30 -46 -33 -32 -40 -65 -12 -65 14 0 13 -3 -6 -18 -21 -16 -22
-20 -8 -31 23 -19 20 -44 -9 -69 -28 -24 -30 -39 -13 -77 8 -19 8 -29 0 -37
-8 -8 -7 -16 1 -29 9 -14 8 -22 -6 -37 -9 -10 -14 -22 -10 -26 4 -4 -3 -16
-17 -26 -21 -16 -22 -20 -10 -34 9 -12 10 -20 2 -28 -6 -6 -8 -17 -5 -24 3 -8
0 -20 -5 -27 -7 -8 -7 -18 -2 -27 7 -11 3 -20 -13 -32 -21 -16 -21 -17 -3 -37
13 -14 16 -24 9 -33 -17 -22 -23 -61 -11 -75 8 -10 7 -18 -4 -31 -21 -23 -31
-69 -17 -78 7 -4 2 -15 -16 -31 -14 -14 -24 -31 -21 -39 3 -8 1 -25 -5 -38 -7
-15 -8 -34 -1 -59 6 -23 6 -39 0 -45 -6 -6 -6 -12 2 -17 8 -5 3 -15 -16 -30
-25 -20 -27 -25 -15 -39 10 -11 10 -20 3 -29 -7 -8 -7 -18 -2 -27 5 -8 5 -19
1 -25 -14 -18 -20 -69 -9 -88 7 -13 4 -29 -11 -60 -14 -27 -17 -45 -11 -51 16
-16 12 -41 -10 -69 -17 -22 -19 -29 -9 -46 10 -15 9 -24 -4 -45 -11 -17 -15
-35 -11 -51 4 -18 1 -32 -11 -45 -10 -11 -15 -26 -12 -33 3 -8 1 -19 -5 -25
-8 -8 -8 -15 1 -25 9 -11 8 -17 -4 -27 -11 -9 -14 -22 -9 -47 12 -66 -29 -263
-55 -263 -19 0 -31 -40 -52 -171 -18 -119 -18 -133 -4 -149 24 -27 18 -69 -15
-107 -34 -38 -37 -51 -14 -60 12 -4 15 -23 13 -106 -2 -93 -1 -101 20 -119 45
-36 108 -17 140 42 10 19 69 125 130 234 79 142 111 209 111 233 0 23 5 33 15
33 9 0 15 9 15 21 0 33 59 129 85 139 24 9 45 35 94 118 32 54 39 82 21 82
-18 0 -11 17 25 60 19 23 35 50 35 61 0 10 9 23 20 29 11 6 20 18 20 28 1 29
35 95 74 140 20 24 36 51 36 61 0 9 9 22 20 29 11 6 17 17 15 24 -3 7 8 20 24
30 43 24 83 93 83 141 -1 50 12 75 45 88 21 8 23 12 13 24 -17 20 2 42 44 53
28 8 31 12 28 43 -2 19 -8 39 -13 45 -14 17 1 24 28 13 34 -13 44 -1 16 18
-13 9 -23 20 -23 26 0 6 18 34 40 63 41 54 49 74 29 74 -16 0 -6 42 13 54 13
8 23 8 38 -2 24 -15 53 -3 70 28 9 17 7 22 -14 31 l-24 11 41 65 c32 52 38 66
26 73 -10 7 -11 12 -2 21 8 8 17 7 36 -6 29 -19 44 -6 27 24 -5 11 -10 27 -10
36 0 12 4 14 19 5 28 -15 49 -14 33 2 -7 7 -12 18 -12 26 0 22 168 282 217
334 51 56 56 88 16 116 -54 37 -340 170 -483 225 -268 103 -576 183 -650 170z"/>
</g>
</svg>
