<?xml version="1.0" standalone="no"?>
<!DOCTYPE svg PUBLIC "-//W3C//DTD SVG 20010904//EN"
 "http://www.w3.org/TR/2001/REC-SVG-20010904/DTD/svg10.dtd">
<svg version="1.0" xmlns="http://www.w3.org/2000/svg"
 width="848.000000pt" height="848.000000pt" viewBox="0 0 848.000000 848.000000"
 preserveAspectRatio="xMidYMid meet">
<metadata>
Created by potrace 1.16, written by Peter Selinger 2001-2019
</metadata>
<g transform="translate(0.000000,848.000000) scale(0.100000,-0.100000)"
fill="#000000" stroke="none">
<path d="M3901 5744 c-46 -97 -55 -157 -55 -371 l0 -201 27 -39 c38 -55 47
-93 47 -201 l0 -92 57 -93 c73 -120 80 -127 120 -127 30 0 33 3 33 31 0 35
-49 329 -86 523 -25 130 -43 181 -65 188 -9 3 -7 12 5 30 16 25 16 34 -9 194
-36 234 -37 237 -74 158z"/>
</g>
</svg>
