<?xml version="1.0" standalone="no"?>
<!DOCTYPE svg PUBLIC "-//W3C//DTD SVG 20010904//EN"
 "http://www.w3.org/TR/2001/REC-SVG-20010904/DTD/svg10.dtd">
<svg version="1.0" xmlns="http://www.w3.org/2000/svg"
 width="848.000000pt" height="848.000000pt" viewBox="0 0 848.000000 848.000000"
 preserveAspectRatio="xMidYMid meet">
<metadata>
Created by potrace 1.16, written by Peter Selinger 2001-2019
</metadata>
<g transform="translate(0.000000,848.000000) scale(0.100000,-0.100000)"
fill="#000000" stroke="none">
<path d="M1120 6083 c-39 -58 -220 -426 -249 -505 l-21 -58 23 -14 c24 -15
179 -66 202 -66 7 0 44 -15 82 -34 37 -19 91 -40 118 -47 28 -7 97 -31 155
-54 58 -23 168 -63 245 -90 l139 -48 16 23 c8 12 32 41 52 64 21 24 45 60 54
81 14 35 14 40 0 50 -8 7 -58 17 -110 23 -84 11 -141 27 -253 73 -29 12 -36
11 -71 -9 -22 -12 -51 -22 -64 -22 -31 0 -85 40 -162 118 -58 59 -59 61 -53
105 9 65 24 90 65 112 63 34 117 172 80 202 -7 6 -25 13 -40 17 -14 3 -58 33
-98 66 -39 33 -73 60 -75 60 -2 0 -17 -21 -35 -47z"/>
</g>
</svg>
