<?xml version="1.0" standalone="no"?>
<!DOCTYPE svg PUBLIC "-//W3C//DTD SVG 20010904//EN"
 "http://www.w3.org/TR/2001/REC-SVG-20010904/DTD/svg10.dtd">
<svg version="1.0" xmlns="http://www.w3.org/2000/svg"
 width="848.000000pt" height="848.000000pt" viewBox="0 0 848.000000 848.000000"
 preserveAspectRatio="xMidYMid meet">
<metadata>
Created by potrace 1.16, written by Peter Selinger 2001-2019
</metadata>
<g transform="translate(0.000000,848.000000) scale(0.100000,-0.100000)"
fill="#000000" stroke="none">
<path d="M3375 2460 c-40 -15 -46 -35 -49 -152 -3 -130 -17 -181 -77 -274 -22
-34 -46 -89 -55 -127 -16 -62 -16 -68 0 -92 31 -47 85 -65 191 -65 92 0 100
-2 202 -46 59 -26 120 -47 137 -48 l30 -1 23 130 c72 399 91 521 83 529 -4 4
-71 16 -148 26 -152 20 -201 36 -247 79 -41 39 -66 50 -90 41z"/>
</g>
</svg>
