<?xml version="1.0" standalone="no"?>
<!DOCTYPE svg PUBLIC "-//W3C//DTD SVG 20010904//EN"
 "http://www.w3.org/TR/2001/REC-SVG-20010904/DTD/svg10.dtd">
<svg version="1.0" xmlns="http://www.w3.org/2000/svg"
 width="848.000000pt" height="848.000000pt" viewBox="0 0 848.000000 848.000000"
 preserveAspectRatio="xMidYMid meet">
<metadata>
Created by potrace 1.16, written by Peter Selinger 2001-2019
</metadata>
<g transform="translate(0.000000,848.000000) scale(0.100000,-0.100000)"
fill="#000000" stroke="none">
<path d="M5005 1793 c-72 -8 -135 -26 -207 -60 -74 -34 -78 -38 -78 -69 0 -38
64 -392 80 -444 6 -19 13 -55 16 -80 7 -60 52 -324 66 -377 8 -33 15 -43 30
-43 21 0 110 26 140 41 10 5 31 9 47 9 l28 0 6 183 c4 144 9 191 23 227 14 36
18 71 17 167 l-1 123 -50 107 c-28 60 -56 131 -63 158 -14 60 -16 62 -54 58z"/>
</g>
</svg>
