<?xml version="1.0" standalone="no"?>
<!DOCTYPE svg PUBLIC "-//W3C//DTD SVG 20010904//EN"
 "http://www.w3.org/TR/2001/REC-SVG-20010904/DTD/svg10.dtd">
<svg version="1.0" xmlns="http://www.w3.org/2000/svg"
 width="848.000000pt" height="848.000000pt" viewBox="0 0 848.000000 848.000000"
 preserveAspectRatio="xMidYMid meet">
<metadata>
Created by potrace 1.16, written by Peter Selinger 2001-2019
</metadata>
<g transform="translate(0.000000,848.000000) scale(0.100000,-0.100000)"
fill="#000000" stroke="none">
<path d="M5055 4514 c-33 -14 -91 -38 -129 -53 -39 -16 -76 -37 -83 -48 -8
-12 -15 -47 -16 -79 l-2 -59 43 -3 c24 -2 49 1 55 6 7 5 21 6 32 1 11 -4 59
-8 108 -8 l87 -1 0 119 c0 124 -4 151 -24 151 -6 0 -38 -12 -71 -26z"/>
</g>
</svg>
