<?xml version="1.0" standalone="no"?>
<!DOCTYPE svg PUBLIC "-//W3C//DTD SVG 20010904//EN"
 "http://www.w3.org/TR/2001/REC-SVG-20010904/DTD/svg10.dtd">
<svg version="1.0" xmlns="http://www.w3.org/2000/svg"
 width="848.000000pt" height="848.000000pt" viewBox="0 0 848.000000 848.000000"
 preserveAspectRatio="xMidYMid meet">
<metadata>
Created by potrace 1.16, written by Peter Selinger 2001-2019
</metadata>
<g transform="translate(0.000000,848.000000) scale(0.100000,-0.100000)"
fill="#000000" stroke="none">
<path d="M4771 4924 c-12 -15 -21 -30 -21 -34 0 -3 -32 -44 -71 -91 -76 -91
-103 -134 -94 -149 7 -12 115 -13 115 -2 0 5 39 38 88 74 48 36 100 79 115 95
l28 30 -40 36 c-22 20 -53 43 -70 51 -29 15 -30 15 -50 -10z"/>
</g>
</svg>
