<?xml version="1.0" standalone="no"?>
<!DOCTYPE svg PUBLIC "-//W3C//DTD SVG 20010904//EN"
 "http://www.w3.org/TR/2001/REC-SVG-20010904/DTD/svg10.dtd">
<svg version="1.0" xmlns="http://www.w3.org/2000/svg"
 width="848.000000pt" height="848.000000pt" viewBox="0 0 848.000000 848.000000"
 preserveAspectRatio="xMidYMid meet">
<metadata>
Created by potrace 1.16, written by Peter Selinger 2001-2019
</metadata>
<g transform="translate(0.000000,848.000000) scale(0.100000,-0.100000)"
fill="#000000" stroke="none">
<path d="M2144 2443 c-249 -206 -355 -304 -361 -335 -3 -15 -8 -28 -12 -29
-49 -5 -68 -14 -111 -51 -27 -24 -50 -49 -50 -55 0 -7 -6 -13 -13 -13 -21 0
-97 -60 -97 -77 0 -8 42 -55 93 -105 50 -49 130 -127 177 -173 82 -80 131
-120 259 -215 34 -25 92 -69 129 -97 67 -53 111 -77 203 -113 l49 -20 48 73
c27 39 78 122 114 182 138 233 154 269 178 421 11 66 10 75 -9 113 -22 42 -25
44 -118 59 -57 10 -157 65 -180 98 -7 12 -22 70 -33 130 -10 60 -25 127 -33
150 -26 71 -77 164 -91 164 -7 0 -71 -48 -142 -107z m-71 -684 c73 -38 76
-148 6 -185 -99 -51 -195 47 -144 146 8 16 23 34 32 39 24 14 79 14 106 0z"/>
</g>
</svg>
