<?xml version="1.0" standalone="no"?>
<!DOCTYPE svg PUBLIC "-//W3C//DTD SVG 20010904//EN"
 "http://www.w3.org/TR/2001/REC-SVG-20010904/DTD/svg10.dtd">
<svg version="1.0" xmlns="http://www.w3.org/2000/svg"
 width="848.000000pt" height="848.000000pt" viewBox="0 0 848.000000 848.000000"
 preserveAspectRatio="xMidYMid meet">
<metadata>
Created by potrace 1.16, written by Peter Selinger 2001-2019
</metadata>
<g transform="translate(0.000000,848.000000) scale(0.100000,-0.100000)"
fill="#000000" stroke="none">
<path d="M4598 3889 c-23 -13 -41 -84 -33 -127 9 -48 50 -129 161 -312 113
-187 121 -197 134 -184 6 6 15 62 20 125 16 176 14 173 95 144 22 -8 56 -14
75 -14 l35 0 -45 41 c-25 23 -85 71 -135 108 -49 37 -99 78 -110 90 -24 27
-132 113 -160 128 -13 7 -27 7 -37 1z"/>
</g>
</svg>
