<?xml version="1.0" standalone="no"?>
<!DOCTYPE svg PUBLIC "-//W3C//DTD SVG 20010904//EN"
 "http://www.w3.org/TR/2001/REC-SVG-20010904/DTD/svg10.dtd">
<svg version="1.0" xmlns="http://www.w3.org/2000/svg"
 width="848.000000pt" height="848.000000pt" viewBox="0 0 848.000000 848.000000"
 preserveAspectRatio="xMidYMid meet">
<metadata>
Created by potrace 1.16, written by Peter Selinger 2001-2019
</metadata>
<g transform="translate(0.000000,848.000000) scale(0.100000,-0.100000)"
fill="#000000" stroke="none">
<path d="M5332 6058 c-43 -54 -762 -1299 -762 -1321 0 -14 53 28 100 81 25 27
60 76 78 109 19 33 80 115 138 182 76 89 104 129 104 149 0 54 95 217 188 324
49 58 141 292 152 388 4 36 10 73 15 83 8 20 2 23 -13 5z"/>
</g>
</svg>
