<?xml version="1.0" standalone="no"?>
<!DOCTYPE svg PUBLIC "-//W3C//DTD SVG 20010904//EN"
 "http://www.w3.org/TR/2001/REC-SVG-20010904/DTD/svg10.dtd">
<svg version="1.0" xmlns="http://www.w3.org/2000/svg"
 width="848.000000pt" height="848.000000pt" viewBox="0 0 848.000000 848.000000"
 preserveAspectRatio="xMidYMid meet">
<metadata>
Created by potrace 1.16, written by Peter Selinger 2001-2019
</metadata>
<g transform="translate(0.000000,848.000000) scale(0.100000,-0.100000)"
fill="#000000" stroke="none">
<path d="M6078 7342 c-15 -17 -95 -145 -160 -257 -57 -96 -79 -143 -69 -150 5
-3 12 -1 16 5 3 5 28 10 55 10 40 0 56 6 97 38 75 56 150 149 197 241 17 32
17 34 -4 56 -11 12 -43 34 -69 49 -45 24 -49 25 -63 8z"/>
</g>
</svg>
