<?xml version="1.0" standalone="no"?>
<!DOCTYPE svg PUBLIC "-//W3C//DTD SVG 20010904//EN"
 "http://www.w3.org/TR/2001/REC-SVG-20010904/DTD/svg10.dtd">
<svg version="1.0" xmlns="http://www.w3.org/2000/svg"
 width="848.000000pt" height="848.000000pt" viewBox="0 0 848.000000 848.000000"
 preserveAspectRatio="xMidYMid meet">
<metadata>
Created by potrace 1.16, written by Peter Selinger 2001-2019
</metadata>
<g transform="translate(0.000000,848.000000) scale(0.100000,-0.100000)"
fill="#000000" stroke="none">
<path d="M6380 5818 c-106 -85 -157 -145 -203 -237 -40 -83 -51 -96 -184 -223
-15 -14 -38 -40 -51 -57 -13 -17 -46 -43 -74 -58 l-50 -28 6 -113 c6 -113 29
-195 60 -222 18 -14 258 70 1262 438 463 170 474 175 426 201 -15 8 -20 27
-25 91 -4 44 -11 89 -16 99 -15 26 -84 33 -140 14 -25 -9 -61 -15 -79 -14 -36
2 -61 -9 -114 -52 l-38 -30 -58 31 -58 31 -99 -29 c-55 -16 -107 -30 -116 -30
-8 0 -30 16 -49 35 -34 35 -34 35 -126 35 -61 0 -95 4 -102 13 -5 6 -23 44
-39 82 -21 49 -35 71 -49 72 -11 2 -48 -20 -84 -49z"/>
</g>
</svg>
