<?xml version="1.0" standalone="no"?>
<!DOCTYPE svg PUBLIC "-//W3C//DTD SVG 20010904//EN"
 "http://www.w3.org/TR/2001/REC-SVG-20010904/DTD/svg10.dtd">
<svg version="1.0" xmlns="http://www.w3.org/2000/svg"
 width="848.000000pt" height="848.000000pt" viewBox="0 0 848.000000 848.000000"
 preserveAspectRatio="xMidYMid meet">
<metadata>
Created by potrace 1.16, written by Peter Selinger 2001-2019
</metadata>
<g transform="translate(0.000000,848.000000) scale(0.100000,-0.100000)"
fill="#000000" stroke="none">
<path d="M5694 3676 c-9 -22 33 -174 55 -202 11 -14 52 -54 92 -90 71 -64 72
-64 132 -64 55 0 70 -5 149 -50 57 -34 106 -54 142 -60 63 -10 77 -17 166 -77
35 -25 66 -40 68 -34 2 6 11 11 21 11 11 0 34 29 63 78 77 128 59 118 173 93
103 -23 125 -22 78 2 -38 20 -837 305 -983 351 -63 20 -123 41 -133 46 -13 8
-19 7 -23 -4z"/>
</g>
</svg>
