<?xml version="1.0" standalone="no"?>
<!DOCTYPE svg PUBLIC "-//W3C//DTD SVG 20010904//EN"
 "http://www.w3.org/TR/2001/REC-SVG-20010904/DTD/svg10.dtd">
<svg version="1.0" xmlns="http://www.w3.org/2000/svg"
 width="848.000000pt" height="848.000000pt" viewBox="0 0 848.000000 848.000000"
 preserveAspectRatio="xMidYMid meet">
<metadata>
Created by potrace 1.16, written by Peter Selinger 2001-2019
</metadata>
<g transform="translate(0.000000,848.000000) scale(0.100000,-0.100000)"
fill="#000000" stroke="none">
<path d="M5782 3998 c-45 -123 -83 -229 -84 -236 -2 -8 32 -28 88 -52 133 -55
786 -291 1019 -368 110 -36 220 -75 245 -87 56 -28 191 -77 197 -71 6 6 110
286 139 374 27 83 30 112 10 112 -12 0 -13 4 -1 28 12 22 12 45 3 127 -19 164
-15 220 19 306 l30 76 -126 6 c-69 4 -425 7 -791 7 l-665 0 -83 -222z m1546
-393 c26 -56 11 -93 -52 -130 -23 -14 -46 -25 -49 -25 -4 0 -14 11 -23 25 -14
22 -15 30 -4 50 14 27 48 33 68 13 9 -9 13 -7 18 8 4 10 13 26 21 36 10 11 11
18 4 23 -13 7 -15 25 -3 25 5 0 14 -11 20 -25z"/>
</g>
</svg>
