<?xml version="1.0" standalone="no"?>
<!DOCTYPE svg PUBLIC "-//W3C//DTD SVG 20010904//EN"
 "http://www.w3.org/TR/2001/REC-SVG-20010904/DTD/svg10.dtd">
<svg version="1.0" xmlns="http://www.w3.org/2000/svg"
 width="848.000000pt" height="848.000000pt" viewBox="0 0 848.000000 848.000000"
 preserveAspectRatio="xMidYMid meet">
<metadata>
Created by potrace 1.16, written by Peter Selinger 2001-2019
</metadata>
<g transform="translate(0.000000,848.000000) scale(0.100000,-0.100000)"
fill="#000000" stroke="none">
<path d="M7626 5148 c-48 -51 -99 -113 -113 -138 -15 -25 -59 -76 -99 -115
-63 -60 -75 -78 -89 -128 -14 -47 -15 -72 -7 -131 12 -90 27 -123 93 -203 l51
-63 54 0 54 0 -6 -57 -6 -58 98 3 c151 4 184 10 193 35 8 21 2 148 -19 387
-13 150 -88 527 -110 553 -4 4 -46 -34 -94 -85z"/>
</g>
</svg>
