<?xml version="1.0" standalone="no"?>
<!DOCTYPE svg PUBLIC "-//W3C//DTD SVG 20010904//EN"
 "http://www.w3.org/TR/2001/REC-SVG-20010904/DTD/svg10.dtd">
<svg version="1.0" xmlns="http://www.w3.org/2000/svg"
 width="848.000000pt" height="848.000000pt" viewBox="0 0 848.000000 848.000000"
 preserveAspectRatio="xMidYMid meet">
<metadata>
Created by potrace 1.16, written by Peter Selinger 2001-2019
</metadata>
<g transform="translate(0.000000,848.000000) scale(0.100000,-0.100000)"
fill="#000000" stroke="none">
<path d="M661 4808 c-10 -28 -29 -228 -38 -404 l-6 -131 439 -7 c241 -3 804
-9 1249 -12 l810 -6 81 84 c67 68 85 93 98 137 30 101 46 90 -308 217 l-149
53 -22 -23 c-14 -16 -43 -28 -81 -36 -32 -7 -87 -18 -122 -25 -63 -13 -63 -13
-130 21 -54 27 -87 36 -167 44 -115 12 -157 9 -395 -32 -96 -16 -234 -32 -305
-35 -118 -5 -141 -3 -242 21 -129 31 -263 45 -421 46 -108 0 -115 1 -155 29
-23 15 -61 40 -85 55 l-42 26 -9 -22z"/>
</g>
</svg>
