<?xml version="1.0" standalone="no"?>
<!DOCTYPE svg PUBLIC "-//W3C//DTD SVG 20010904//EN"
 "http://www.w3.org/TR/2001/REC-SVG-20010904/DTD/svg10.dtd">
<svg version="1.0" xmlns="http://www.w3.org/2000/svg"
 width="848.000000pt" height="848.000000pt" viewBox="0 0 848.000000 848.000000"
 preserveAspectRatio="xMidYMid meet">
<metadata>
Created by potrace 1.16, written by Peter Selinger 2001-2019
</metadata>
<g transform="translate(0.000000,848.000000) scale(0.100000,-0.100000)"
fill="#000000" stroke="none">
<path d="M5173 4210 c-17 -7 -23 -18 -23 -42 0 -18 -11 -73 -24 -121 l-24 -88
42 -19 c85 -36 452 -162 487 -167 29 -4 38 -1 43 13 28 71 103 273 126 340
l28 82 -30 6 c-40 8 -263 8 -322 0 -33 -5 -46 -11 -46 -23 -1 -13 -3 -12 -16
4 -13 17 -28 20 -117 22 -56 2 -112 -2 -124 -7z"/>
</g>
</svg>
