<?xml version="1.0" standalone="no"?>
<!DOCTYPE svg PUBLIC "-//W3C//DTD SVG 20010904//EN"
 "http://www.w3.org/TR/2001/REC-SVG-20010904/DTD/svg10.dtd">
<svg version="1.0" xmlns="http://www.w3.org/2000/svg"
 width="848.000000pt" height="848.000000pt" viewBox="0 0 848.000000 848.000000"
 preserveAspectRatio="xMidYMid meet">
<metadata>
Created by potrace 1.16, written by Peter Selinger 2001-2019
</metadata>
<g transform="translate(0.000000,848.000000) scale(0.100000,-0.100000)"
fill="#000000" stroke="none">
<path d="M3486 3946 l-59 -22 -68 -185 c-85 -225 -92 -249 -75 -249 7 0 29 17
49 38 19 20 54 51 77 67 23 17 57 47 75 67 19 20 47 44 63 52 16 8 42 30 57
48 14 18 43 42 63 53 23 12 38 29 40 43 3 18 -5 26 -45 44 -26 11 -61 31 -76
44 -34 28 -28 28 -101 0z"/>
</g>
</svg>
