<?xml version="1.0" standalone="no"?>
<!DOCTYPE svg PUBLIC "-//W3C//DTD SVG 20010904//EN"
 "http://www.w3.org/TR/2001/REC-SVG-20010904/DTD/svg10.dtd">
<svg version="1.0" xmlns="http://www.w3.org/2000/svg"
 width="848.000000pt" height="848.000000pt" viewBox="0 0 848.000000 848.000000"
 preserveAspectRatio="xMidYMid meet">
<metadata>
Created by potrace 1.16, written by Peter Selinger 2001-2019
</metadata>
<g transform="translate(0.000000,848.000000) scale(0.100000,-0.100000)"
fill="#000000" stroke="none">
<path d="M1133 6098 c-47 -51 -212 -392 -258 -536 -14 -42 -32 -88 -39 -102
-22 -41 -77 -222 -74 -243 2 -14 18 -25 54 -37 29 -9 66 -29 84 -43 17 -15 42
-30 55 -33 32 -8 163 13 263 42 45 13 90 24 100 24 22 0 149 -74 184 -107 25
-24 32 -26 95 -20 141 12 221 57 243 136 6 23 27 59 45 80 19 21 42 56 51 77
14 34 14 39 0 49 -8 7 -58 17 -110 23 -84 11 -141 27 -253 73 -29 12 -36 11
-71 -9 -22 -12 -51 -22 -64 -22 -31 0 -85 40 -162 118 -58 59 -59 61 -53 105
9 65 24 90 65 112 68 37 119 182 72 205 -8 4 -31 15 -50 24 -19 9 -59 36 -88
61 -29 25 -56 45 -61 45 -4 0 -17 -10 -28 -22z"/>
</g>
</svg>
