<?xml version="1.0" standalone="no"?>
<!DOCTYPE svg PUBLIC "-//W3C//DTD SVG 20010904//EN"
 "http://www.w3.org/TR/2001/REC-SVG-20010904/DTD/svg10.dtd">
<svg version="1.0" xmlns="http://www.w3.org/2000/svg"
 width="848.000000pt" height="848.000000pt" viewBox="0 0 848.000000 848.000000"
 preserveAspectRatio="xMidYMid meet">
<metadata>
Created by potrace 1.16, written by Peter Selinger 2001-2019
</metadata>
<g transform="translate(0.000000,848.000000) scale(0.100000,-0.100000)"
fill="#000000" stroke="none">
<path d="M3965 7854 c-84 -7 -296 -34 -339 -44 -23 -5 -81 -17 -129 -25 -132
-24 -365 -90 -517 -147 -168 -62 -436 -190 -472 -225 -36 -34 -36 -73 0 -138
25 -46 32 -52 92 -72 51 -17 101 -23 236 -28 l171 -8 57 47 c86 70 92 73 211
96 61 11 169 41 240 66 279 98 414 124 646 124 l165 0 28 29 c16 16 52 39 81
51 54 22 92 62 114 123 15 40 14 122 -2 136 -14 11 -480 23 -582 15z"/>
</g>
</svg>
