<?xml version="1.0" standalone="no"?>
<!DOCTYPE svg PUBLIC "-//W3C//DTD SVG 20010904//EN"
 "http://www.w3.org/TR/2001/REC-SVG-20010904/DTD/svg10.dtd">
<svg version="1.0" xmlns="http://www.w3.org/2000/svg"
 width="848.000000pt" height="848.000000pt" viewBox="0 0 848.000000 848.000000"
 preserveAspectRatio="xMidYMid meet">
<metadata>
Created by potrace 1.16, written by Peter Selinger 2001-2019
</metadata>
<g transform="translate(0.000000,848.000000) scale(0.100000,-0.100000)"
fill="#000000" stroke="none">
<path d="M4155 6923 c-22 -9 -109 -39 -193 -67 l-153 -51 6 -45 c7 -53 61
-363 76 -437 9 -46 16 -57 61 -90 114 -87 99 -81 175 -71 232 29 219 26 225
70 2 15 12 36 23 48 16 17 17 26 9 49 -9 23 -7 32 11 53 14 17 27 53 36 104
10 59 14 71 17 46 2 -18 8 -30 13 -27 5 4 9 70 9 148 0 118 -4 149 -19 184
-26 55 -50 69 -155 88 -105 18 -91 18 -141 -2z m-16 -173 c12 -33 26 -60 31
-60 4 0 22 8 38 17 35 20 54 10 71 -38 l10 -29 -140 0 -140 0 7 23 c4 12 11
33 16 47 9 24 10 24 24 6 8 -11 14 -24 14 -29 0 -4 4 -6 9 -3 5 4 12 30 16 59
12 85 15 86 44 7z"/>
</g>
</svg>
