<?xml version="1.0" standalone="no"?>
<!DOCTYPE svg PUBLIC "-//W3C//DTD SVG 20010904//EN"
 "http://www.w3.org/TR/2001/REC-SVG-20010904/DTD/svg10.dtd">
<svg version="1.0" xmlns="http://www.w3.org/2000/svg"
 width="848.000000pt" height="848.000000pt" viewBox="0 0 848.000000 848.000000"
 preserveAspectRatio="xMidYMid meet">
<metadata>
Created by potrace 1.16, written by Peter Selinger 2001-2019
</metadata>
<g transform="translate(0.000000,848.000000) scale(0.100000,-0.100000)"
fill="#000000" stroke="none">
<path d="M5010 1793 c-95 -11 -226 -55 -280 -93 -18 -12 -54 -19 -130 -23 -58
-3 -166 -18 -240 -32 -74 -14 -177 -28 -228 -32 l-93 -6 -37 -45 c-41 -50 -50
-92 -51 -247 -1 -78 4 -104 36 -200 l36 -109 -37 -69 c-35 -63 -38 -75 -39
-158 -2 -105 -2 -105 93 -115 84 -9 510 3 575 16 28 6 86 14 129 19 86 10 106
23 106 70 1 25 1 25 14 -5 8 -18 24 -34 37 -37 23 -6 113 15 151 34 10 5 31 9
47 9 l28 0 6 183 c4 144 9 191 23 227 14 36 18 71 17 167 l-1 123 -50 107
c-28 60 -56 131 -63 158 -14 59 -16 62 -49 58z m-554 -887 c28 -28 34 -42 34
-76 0 -73 -76 -127 -141 -100 -44 19 -69 56 -69 104 0 68 37 104 109 105 25 1
41 -7 67 -33z"/>
</g>
</svg>
