<?xml version="1.0" standalone="no"?>
<!DOCTYPE svg PUBLIC "-//W3C//DTD SVG 20010904//EN"
 "http://www.w3.org/TR/2001/REC-SVG-20010904/DTD/svg10.dtd">
<svg version="1.0" xmlns="http://www.w3.org/2000/svg"
 width="848.000000pt" height="848.000000pt" viewBox="0 0 848.000000 848.000000"
 preserveAspectRatio="xMidYMid meet">
<metadata>
Created by potrace 1.16, written by Peter Selinger 2001-2019
</metadata>
<g transform="translate(0.000000,848.000000) scale(0.100000,-0.100000)"
fill="#000000" stroke="none">
<path d="M6964 6499 c-133 -93 -169 -133 -209 -227 -48 -115 -110 -214 -190
-299 l-65 -71 16 -48 c27 -81 40 -89 149 -89 l94 0 40 -39 40 -40 103 32 c57
18 106 32 111 32 4 0 25 -11 47 -25 22 -14 44 -25 49 -25 6 0 35 17 65 38 48
34 65 40 128 45 97 9 148 24 148 44 0 22 -91 192 -181 338 -103 168 -258 375
-279 375 -4 0 -33 -19 -66 -41z"/>
</g>
</svg>
