<?xml version="1.0" standalone="no"?>
<!DOCTYPE svg PUBLIC "-//W3C//DTD SVG 20010904//EN"
 "http://www.w3.org/TR/2001/REC-SVG-20010904/DTD/svg10.dtd">
<svg version="1.0" xmlns="http://www.w3.org/2000/svg"
 width="848.000000pt" height="848.000000pt" viewBox="0 0 848.000000 848.000000"
 preserveAspectRatio="xMidYMid meet">
<metadata>
Created by potrace 1.16, written by Peter Selinger 2001-2019
</metadata>
<g transform="translate(0.000000,848.000000) scale(0.100000,-0.100000)"
fill="#000000" stroke="none">
<path d="M1595 3256 c-77 -18 -645 -224 -705 -256 -27 -15 -25 -37 12 -133 75
-195 280 -555 430 -754 282 -376 731 -783 1029 -933 58 -30 62 -30 80 -14 10
9 52 74 93 143 158 270 181 325 212 506 15 90 15 94 -5 134 -22 42 -25 44
-118 59 -57 10 -157 65 -180 98 -7 12 -22 70 -33 130 -21 123 -30 151 -91 279
-38 80 -42 99 -46 180 l-5 90 37 25 37 24 -6 66 c-8 71 -32 118 -76 143 -40
24 -239 103 -313 125 -38 11 -93 37 -123 58 -45 31 -65 38 -112 41 -31 1 -84
-4 -117 -11z m247 -237 c44 -12 85 -27 92 -35 7 -7 26 -63 41 -123 19 -79 47
-151 95 -250 l68 -139 -62 -60 c-89 -87 -266 -232 -284 -232 -29 0 -279 277
-317 350 -33 65 -78 237 -71 272 8 38 84 166 106 178 33 18 185 59 219 59 19
1 70 -9 113 -20z m237 -1263 c31 -17 51 -54 51 -97 0 -48 -56 -99 -108 -99
-54 0 -102 45 -102 96 0 94 77 142 159 100z"/>
</g>
</svg>
