<?xml version="1.0" standalone="no"?>
<!DOCTYPE svg PUBLIC "-//W3C//DTD SVG 20010904//EN"
 "http://www.w3.org/TR/2001/REC-SVG-20010904/DTD/svg10.dtd">
<svg version="1.0" xmlns="http://www.w3.org/2000/svg"
 width="848.000000pt" height="848.000000pt" viewBox="0 0 848.000000 848.000000"
 preserveAspectRatio="xMidYMid meet">
<metadata>
Created by potrace 1.16, written by Peter Selinger 2001-2019
</metadata>
<g transform="translate(0.000000,848.000000) scale(0.100000,-0.100000)"
fill="#000000" stroke="none">
<path d="M6250 6586 c-20 -8 -58 -25 -86 -39 -40 -20 -254 -96 -383 -135 -18
-5 -30 -24 -50 -79 -24 -66 -33 -78 -103 -138 -42 -36 -80 -74 -83 -85 -3 -10
-42 -49 -85 -85 -44 -36 -87 -77 -96 -91 -28 -41 -126 -316 -116 -326 10 -10
121 44 329 160 169 94 246 132 270 132 47 0 273 171 273 207 0 28 51 112 132
218 105 136 118 161 118 225 l0 50 -42 -1 c-24 0 -59 -6 -78 -13z"/>
</g>
</svg>
