<?xml version="1.0" standalone="no"?>
<!DOCTYPE svg PUBLIC "-//W3C//DTD SVG 20010904//EN"
 "http://www.w3.org/TR/2001/REC-SVG-20010904/DTD/svg10.dtd">
<svg version="1.0" xmlns="http://www.w3.org/2000/svg"
 width="848.000000pt" height="848.000000pt" viewBox="0 0 848.000000 848.000000"
 preserveAspectRatio="xMidYMid meet">
<metadata>
Created by potrace 1.16, written by Peter Selinger 2001-2019
</metadata>
<g transform="translate(0.000000,848.000000) scale(0.100000,-0.100000)"
fill="#000000" stroke="none">
<path d="M4775 7457 c-78 -87 -155 -205 -204 -315 -46 -103 -81 -164 -117
-202 l-23 -25 32 -50 c30 -47 32 -56 35 -160 4 -137 -10 -210 -76 -380 -62
-161 -76 -213 -102 -391 -19 -132 -19 -147 -5 -220 8 -44 15 -127 15 -186 0
-59 7 -138 15 -176 20 -99 24 -460 6 -575 -17 -102 -8 -131 46 -154 70 -29
141 -9 155 44 5 18 41 67 84 114 41 45 84 100 96 123 25 50 56 90 170 224 64
74 88 110 88 130 0 15 9 46 20 70 25 55 115 193 167 255 37 45 82 142 132 288
11 32 22 102 26 169 7 100 11 122 41 183 43 90 38 97 -66 97 l-79 0 -24 53
c-28 61 -56 92 -154 171 -55 44 -75 67 -83 94 -19 70 -13 90 51 174 60 81 120
189 133 241 3 15 -3 80 -14 145 -25 146 -48 183 -132 216 -31 13 -74 37 -95
53 -76 60 -75 60 -138 -10z"/>
</g>
</svg>
