<?xml version="1.0" standalone="no"?>
<!DOCTYPE svg PUBLIC "-//W3C//DTD SVG 20010904//EN"
 "http://www.w3.org/TR/2001/REC-SVG-20010904/DTD/svg10.dtd">
<svg version="1.0" xmlns="http://www.w3.org/2000/svg"
 width="848.000000pt" height="848.000000pt" viewBox="0 0 848.000000 848.000000"
 preserveAspectRatio="xMidYMid meet">
<metadata>
Created by potrace 1.16, written by Peter Selinger 2001-2019
</metadata>
<g transform="translate(0.000000,848.000000) scale(0.100000,-0.100000)"
fill="#000000" stroke="none">
<path d="M7616 5139 c-42 -45 -88 -102 -103 -128 -14 -25 -59 -77 -99 -116
-63 -60 -75 -78 -89 -128 -14 -47 -15 -72 -7 -131 12 -90 27 -123 93 -203 l51
-63 55 0 55 0 -7 -46 c-5 -34 -3 -49 7 -55 7 -5 73 -9 146 -9 l132 0 0 54 c0
278 -100 906 -144 906 -8 0 -48 -36 -90 -81z"/>
</g>
</svg>
