<?xml version="1.0" standalone="no"?>
<!DOCTYPE svg PUBLIC "-//W3C//DTD SVG 20010904//EN"
 "http://www.w3.org/TR/2001/REC-SVG-20010904/DTD/svg10.dtd">
<svg version="1.0" xmlns="http://www.w3.org/2000/svg"
 width="848.000000pt" height="848.000000pt" viewBox="0 0 848.000000 848.000000"
 preserveAspectRatio="xMidYMid meet">
<metadata>
Created by potrace 1.16, written by Peter Selinger 2001-2019
</metadata>
<g transform="translate(0.000000,848.000000) scale(0.100000,-0.100000)"
fill="#000000" stroke="none">
<path d="M5841 6892 c-25 -15 -58 -40 -74 -57 -16 -16 -116 -180 -222 -363
-189 -327 -193 -335 -183 -370 7 -26 7 -46 -2 -70 -6 -18 -9 -36 -6 -39 10
-10 92 46 132 90 76 88 90 103 147 155 46 44 67 76 116 175 32 67 69 154 81
192 13 39 34 93 48 120 20 38 26 65 26 113 0 34 -5 67 -10 72 -5 5 -26 -2 -53
-18z"/>
</g>
</svg>
