<?xml version="1.0" standalone="no"?>
<!DOCTYPE svg PUBLIC "-//W3C//DTD SVG 20010904//EN"
 "http://www.w3.org/TR/2001/REC-SVG-20010904/DTD/svg10.dtd">
<svg version="1.0" xmlns="http://www.w3.org/2000/svg"
 width="848.000000pt" height="848.000000pt" viewBox="0 0 848.000000 848.000000"
 preserveAspectRatio="xMidYMid meet">
<metadata>
Created by potrace 1.16, written by Peter Selinger 2001-2019
</metadata>
<g transform="translate(0.000000,848.000000) scale(0.100000,-0.100000)"
fill="#000000" stroke="none">
<path d="M6410 6379 c-83 -15 -108 -23 -123 -41 -66 -83 -114 -159 -137 -216
-25 -63 -32 -71 -126 -143 -55 -42 -122 -84 -150 -93 -77 -27 -205 -90 -382
-188 -90 -50 -198 -102 -240 -117 -67 -24 -82 -33 -113 -75 -51 -67 -121 -202
-119 -229 1 -12 2 -27 1 -33 -1 -6 -49 -67 -107 -135 l-106 -124 51 -46 c29
-25 66 -54 84 -64 18 -9 44 -35 59 -56 24 -34 31 -38 51 -30 33 13 121 67 190
118 71 51 150 82 234 90 61 6 63 7 91 50 41 63 131 135 244 194 94 50 138 86
138 115 0 7 27 31 60 54 73 49 95 79 153 202 l46 96 164 135 c90 74 186 160
214 191 56 60 159 255 150 280 -3 8 -23 24 -45 35 -36 18 -150 52 -168 50 -5
-1 -56 -9 -114 -20z"/>
</g>
</svg>
