<?xml version="1.0" standalone="no"?>
<!DOCTYPE svg PUBLIC "-//W3C//DTD SVG 20010904//EN"
 "http://www.w3.org/TR/2001/REC-SVG-20010904/DTD/svg10.dtd">
<svg version="1.0" xmlns="http://www.w3.org/2000/svg"
 width="848.000000pt" height="848.000000pt" viewBox="0 0 848.000000 848.000000"
 preserveAspectRatio="xMidYMid meet">
<metadata>
Created by potrace 1.16, written by Peter Selinger 2001-2019
</metadata>
<g transform="translate(0.000000,848.000000) scale(0.100000,-0.100000)"
fill="#000000" stroke="none">
<path d="M1623 6111 c-107 -92 -156 -150 -195 -231 -20 -42 -60 -103 -92 -138
-31 -34 -56 -67 -56 -71 0 -20 94 -133 123 -147 29 -15 34 -15 85 6 54 23 56
23 101 6 124 -48 160 -58 240 -65 47 -4 92 -6 98 -3 14 5 53 121 53 157 0 13
-7 36 -15 52 -29 57 -54 119 -70 177 -9 33 -29 85 -45 116 -16 31 -36 83 -45
116 -19 67 -35 84 -82 84 -25 0 -47 -13 -100 -59z m84 -152 c35 -41 63 -77 63
-81 0 -13 -109 -9 -130 4 -16 10 -24 10 -40 0 -11 -6 -29 -12 -41 -12 -24 0
-21 16 18 95 31 62 43 77 57 72 6 -2 39 -37 73 -78z"/>
</g>
</svg>
