<?xml version="1.0" standalone="no"?>
<!DOCTYPE svg PUBLIC "-//W3C//DTD SVG 20010904//EN"
 "http://www.w3.org/TR/2001/REC-SVG-20010904/DTD/svg10.dtd">
<svg version="1.0" xmlns="http://www.w3.org/2000/svg"
 width="848.000000pt" height="848.000000pt" viewBox="0 0 848.000000 848.000000"
 preserveAspectRatio="xMidYMid meet">
<metadata>
Created by potrace 1.16, written by Peter Selinger 2001-2019
</metadata>
<g transform="translate(0.000000,848.000000) scale(0.100000,-0.100000)"
fill="#000000" stroke="none">
<path d="M626 4148 c15 -198 36 -416 41 -437 5 -22 9 -23 59 -17 33 4 124 -3
246 -19 251 -32 388 -33 555 0 71 13 175 29 233 35 58 5 157 17 221 26 105 14
122 14 192 0 42 -9 110 -16 151 -16 61 0 86 -5 142 -30 37 -17 69 -29 71 -27
2 3 10 46 17 96 18 115 26 127 136 186 42 23 61 41 79 76 l25 46 133 13 c149
14 148 13 159 95 l7 45 -1237 0 -1236 0 6 -72z"/>
</g>
</svg>
